<svg width="223" height="216" viewBox="0 0 223 216" fill="none" xmlns="http://www.w3.org/2000/svg">
<path d="M3.00195 139.5C3.60195 157.9 13.0853 164.5 17.7519 165.5C17.3519 164.3 16.4186 157.667 16.0019 154.5L20.2519 150.25C21.6519 148.65 28.8353 147.584 32.2519 147.25C23.4519 138.45 9.58528 137.417 3.75195 138L3.00195 139.5Z" fill="#6E9AA5"/>
<path d="M4.25195 140.75C5.50195 155.25 12.5019 160.5 15.7519 162.75C15.4374 161.817 13.7519 156.75 14.5019 153L18.5661 149.635C19.6669 148.39 25.8153 146.26 28.5019 146C20.7519 138.95 9.33885 139.797 4.75195 140.25L4.25195 140.75Z" fill="#2E6681"/>
<path d="M5.75 143.5C9 154.25 10.5 156.25 13.25 158.75C12.9841 157.951 13.0321 154.866 13.6661 151.658L17 149.25C17.9306 148.185 22.4788 145.972 24.75 145.75C17.4988 140.831 10.6276 141.612 6.75 142L5.75 143.5Z" fill="#20556D"/>
<path d="M181.248 54.75C180.648 54.75 176.998 57.9167 175.248 59.5L177.748 66.5L180.748 80.25L182.248 82.5L184.498 83.25L187.498 84.5L192.998 88L196.748 91.25L198.498 92.75L199.498 82.5L207.998 75.75L207.498 73.5L199.998 61.5L211.498 45.5L206.248 46L202.498 46.5L194.498 48.75L187.998 51.25L181.248 54.75Z" fill="#54C4D1"/>
<path d="M46.248 79.25L44.248 92.25L46.998 89.5L48.748 88.25L52.498 86L56.248 84L58.748 83.25L59.998 83L61.498 80L62.998 72.5L64.498 66L66.748 59.25L62.498 55.75L58.248 53L54.498 51.25L48.748 49L44.248 47.5L39.998 46.5C38.6647 46.3333 35.798 45.95 34.998 45.75C34.198 45.55 31.6647 45.5 30.498 45.5L43.248 62.75L33.998 75L46.248 79.25Z" fill="#54C4D1"/>
<path d="M193.502 119.75C187.102 118.55 180.835 122.417 178.502 124.5L160.752 148.75L164.502 156C171.502 153.4 178.919 155.583 181.752 157C189.352 149 197.419 148.167 200.502 148.75L201.502 148.25C201.702 147.05 204.252 141.75 205.502 139.25C205.502 136.5 212.502 130 212.252 130C212.052 130 215.335 128.167 217.002 127.25L208.752 123.25C204.952 120.85 197.002 119.917 193.502 119.75Z" fill="#FEE6AC"/>
<path d="M61.0019 156.75C68.2019 153.95 75.5019 154.75 78.2519 155.5L80.2519 151.25L64.7519 124.5C48.5519 114.3 32.002 122.083 25.752 127.25C35.3519 133.65 40.0853 144.083 41.2519 148.5C49.6519 148.7 57.9186 154.083 61.0019 156.75Z" fill="#FEE6AC"/>
<path d="M204.252 49C204.652 48.4 209.585 46.4167 212.002 45.5L211.502 46.25C210.502 48 208.302 52.2 207.502 55C206.702 57.8 206.669 59.8333 206.752 60.5C206.352 61.1 206.585 64.5833 206.752 66.25L207.752 72.25L209.002 75.5C208.085 76.0833 206.052 77.4 205.252 78C204.452 78.6 203.252 80.4166 202.752 81.25L200.502 85.75L199.502 89.5L198.752 93.25L198.502 92.5L197.002 90.25L192.752 84.75L190.252 82L185.252 78C184.652 77.2 181.669 76 180.252 75.5L179.752 73L182.252 72.75C182.652 72.35 189.085 72.5833 192.252 72.75L200.502 73.75L208.002 75L207.502 74.5L200.752 71.25L193.002 68.25L188.002 67L182.752 66.25L178.002 66L177.752 65C177.952 64.2 183.669 60.3333 186.502 58.5C187.502 57.7 191.752 55.3333 193.752 54.25C194.152 53.85 200.919 50.5833 204.252 49Z" fill="#FEE6AC"/>
<path d="M48.0019 86.25C45.4019 89.25 44.2519 92 44.0019 93H43.2519L42.7519 88.75C42.3353 87.6666 41.4519 85.35 41.2519 84.75C41.0519 84.15 39.6686 82 39.0019 81L37.5019 79.25L34.7519 76.5L33.2519 75.25L34.2519 72.5L35.2519 68.75L35.5019 65.5L35.7519 61.5L35.2519 57.5L34.5019 55L33.7519 52.75L32.252 49.5C32.252 49.3 31.252 47.75 30.752 47L29.752 45.25L30.752 45.75L35.7519 47.75L42.2519 50.75L48.0019 53.5L52.0019 55.5L57.5019 58.75L61.7519 61.75L64.2519 64.5L64.5019 66C63.7019 65.6 60.1686 66 58.5019 66.25C57.5019 66.25 53.5853 67.0833 51.7519 67.5L42.7519 70.75C42.1519 70.75 37.3353 73.0833 35.0019 74.25L33.7519 75.25L36.2519 74.75L47.7519 73L55.5019 72.25C61.1019 72.05 62.6686 72.6667 62.7519 73L62.5019 75.5C61.7019 75.1 57.3353 77.8333 55.2519 79.25C53.9186 80.3333 50.6019 83.25 48.0019 86.25Z" fill="#FEE6AC"/>
<path d="M41.75 148.25C53.15 134.85 60.2498 134.5 62.7498 135.25C57.9498 141.25 59.4981 151.417 60.4981 156.25L60.7483 148.75L61.4983 143.5L62.9983 139.25L64.7483 135.5C65.2483 134.833 66.2983 133.5 66.4983 133.5C66.6983 133.5 66.915 132.5 66.9983 132H61.7483L58.2483 133.25L52.9983 136L46.9984 141.5L43.7484 145.5L41.75 148.25Z" fill="#E3C485"/>
<path d="M55.5 124.75C50.5013 120.95 33.2505 124.833 25.25 127.25L27 126.25L34.75 122.75L38 121.5L48.5 120L53.75 120.25L59 122L64.5 124.75C62.5833 125.417 58.6497 126.75 58.2483 126.75C57.847 126.75 56.0822 127.917 55.25 128.5L51.25 131.25L47.25 134.75L44.75 138.25L43 141.5L41.25 147.5C42.25 133.5 51.1667 126.5 55.5 124.75Z" fill="#E3C485"/>
<path d="M79.75 152.75C73.95 151.55 70.5 146.75 69.5 144.5C66.5 145.5 63.0833 152.75 61.75 156.25L63.75 150.25L66.5 144.25L68.75 140.25L70.5 138.75C71.3 142.95 73.5 146 74.5 147C75.5 148.4 78.75 150.417 80.25 151.25L79.75 152.75Z" fill="#E3C485"/>
<path d="M172.5 144.5C171.9 147.9 165.917 151.25 163 152.5L162 151C162.667 150.583 164.25 149.65 165.25 149.25C166.25 148.85 168.167 145.917 169 144.5L170.75 141L171.5 138.75L173.25 140.5L177 147L179.566 154.501C179.807 155.136 180.037 155.802 180.25 156.5L179.566 154.501C177.318 148.589 174.005 145.403 172.5 144.5Z" fill="#E3C485"/>
<path d="M180.75 136C183.75 141 182.667 151.75 181.75 156.5L181.25 147.25L179.5 141.5C179.333 140.667 178.95 138.95 178.75 138.75C178.5 138.5 177.5 135.75 177.25 135.5C177.05 135.3 175.833 133.083 175.25 132L176.5 132.25H180.5L183.5 133.25L188.25 135.75L191.5 138.25L197.25 143.75L200.5 147.5L200.75 148.25C197.95 142.85 186.25 137.833 180.75 136Z" fill="#E3C485"/>
<path d="M189 124.25C198.6 134.65 201.167 144.583 201.25 148.25L200.75 146.75C199.917 144.5 197.85 139.3 196.25 136.5C194.65 133.7 190.25 130.167 188.25 128.75C186.85 126.95 181 125.333 178.25 124.75L180.75 122.5L185.5 120.5L188.75 120C190.55 119.2 195.167 119.5 197.25 119.75L208.5 123L213.5 125.25L216.5 127.25C204.1 120.65 193 122.5 189 124.25Z" fill="#E3C485"/>
<path d="M51.1587 80.3626C47.5833 84.3631 45.8532 88.6873 44.25 92.25L45.5 89.5L46.75 88L47.75 86.5L49 85L50.5 83.25L52.25 81.75L53.5 80.75L58.25 77.25C58.45 76.85 60.6667 76.0833 61.75 75.75L62.25 75.5L62.5 72.75L60.25 72.5L56.5 72.25C55.3 72.05 49.3333 72.8333 46.5 73.25L38.5 74.25C42.6318 74.25 46.4293 74.4888 49.4939 74.7853C52.1303 75.0404 52.9237 78.3877 51.1587 80.3626Z" fill="#E3C485"/>
<path d="M63.25 63.25L64.75 65.25L64 66H61.5H59L56.5 66.5L51.75 67.5L46.25 69.25L41.25 71.25L38.25 72.75C41.4314 69.1348 47.0699 66.4345 51.0831 64.7435C52.5951 64.1064 52.8056 61.9868 51.4893 61.0072C46.0132 56.932 38.0081 49.9681 32.5 46.5L37.75 48.75L45 52L49.25 54L54.75 57L59.75 60.25L62.25 62.25L63.25 63.25Z" fill="#E3C485"/>
<path d="M195 87.25L197.75 91.25C194.897 85.1556 191.96 81.0438 189.771 78.5877C188.699 77.3856 189.103 75.3814 190.695 75.1353C194.591 74.5328 199.952 74.25 203 74.25L196.5 73.25L187.75 72.5L179.75 73L180.25 75.5L182.75 76.5L187 79.25L190.75 82.5L195 87.25Z" fill="#E3C485"/>
<path d="M177.75 64.75L178 66.25L178.75 66L182.75 66.25L186.25 66.75L190.5 67.75L195.75 69.25L200.5 71C198.083 68.5 192.75 64.5 187.25 63.25C189.083 60.6667 195.35 54.1 205.75 48.5L201.5 50.25L192.5 55L184.25 60L177.75 64.75Z" fill="#E3C485"/>
<path d="M86.5 206C84.1667 208.5 76 211.5 62 203.5C58.25 200.917 49.9501 195.8 46.7501 196C42.9999 200.5 30.7501 201.3 31.7501 189.5C29.3333 187.5 25.8998 182.25 31.4998 177.25C30.6666 173.917 30.95 167.15 38.75 166.75C41.4167 166.25 48.15 166.15 53.75 169.75L54.25 166.25C46.6667 165.25 30.15 162.35 24.75 158.75C19.6667 156.5 8.3 149.5 3.5 139.5L14 147.25C17.0833 148.75 24.15 151.95 27.75 152.75C31.35 153.55 37.4167 154.083 40 154.25C44.4167 154.417 53.6 154.45 55 153.25L56.75 153.75L61.25 156.75C64.0833 155.417 71.45 153.35 78.25 155.75L80.25 151.25C77.25 149.75 71.1 145.1 70.5 138.5C68.4166 140.917 63.7 147.7 61.5 155.5L60.75 155.25C60.5 152.417 60.3 146.3 61.5 144.5C62.25 141.333 64.5 134.45 67.5 132.25C65.5833 131.75 60.5 131.55 55.5 134.75C50.5 137.95 44.25 144.75 41.75 147.75C41.8333 145.583 42.55 140.7 44.75 138.5C46.25 136.083 50.25 130.8 54.25 129L64.25 125C62.5 123.5 57.65 120.45 52.25 120.25C45.5 120 39.25 120.75 35 122.75L26 126.5L31.25 121.5L35.5 118.25C37.5 117 41.95 114.5 43.75 114.5C45.75 114.083 50.2 113.4 52 114C54.25 114.75 61.25 115 64.5 117.25L68.75 120C69.5833 122.917 71.7 129.1 73.5 130.5C75.4166 133.25 80.45 139 85.25 140C89.6386 140.914 90.7392 141.341 90.7682 141.471C92.7745 138.292 96.8006 131.544 97 129.75L106.25 131.5H136L146 129.5C146.917 132.833 149.3 139.8 151.5 141C154 140.5 159.85 138.8 163.25 136C165.583 134.417 170.9 129.1 173.5 120.5C175 118.417 179.8 114.15 187 113.75C191.083 113.083 200.8 112.9 207 117.5C210.083 119.583 216.4 124.45 217 127.25C212.25 124.667 202.05 119.7 199.25 120.5C194.333 119.25 183.35 118.35 178.75 124.75C182.083 125.667 189.45 128.4 192.25 132C194.333 133.083 198.95 137.75 200.75 147.75C196.833 142.75 187.25 132.7 180.25 132.5C179.083 132.083 176.45 131.45 175.25 132.25C176.5 134.167 179.15 138.7 179.75 141.5C180.25 142.333 181.35 146.5 181.75 156.5H180.5C178.5 150.833 173.9 139.4 171.5 139C170.5 142.75 167.2 150.35 162 150.75L164.5 155.75C168.333 155 176.65 154 179.25 156C180.667 156.583 183.6 157.95 184 158.75C184.5 159.75 188.25 162.5 188 170C194.083 166.667 207.15 162.55 210.75 172.75L211.25 177.25C213.25 179 215.9 183.85 210.5 189.25C211.333 192.5 211 199.05 203 199.25C200.917 199.333 196.4 198.7 195 195.5C193.167 196.083 189.2 197.45 188 198.25L180.5 203.25C176.833 205.083 168.9 208.7 166.5 208.5C163.333 208.667 156.75 208.3 155.75 205.5C155.083 207.083 153.25 210.15 151.25 209.75C149.25 209.35 146.083 209.583 144.75 209.75L142.25 207.25C141.333 208.167 138.85 209.6 136.25 208C134.333 207.583 130.1 206.1 128.5 203.5L114 203.75L111.5 205.75L105.75 208.25C104.583 208.667 101.85 209.05 100.25 207.25C98.5 208.917 94.3 211.75 91.5 209.75C90.3334 209.833 87.7001 209.2 86.5 206Z" fill="#54C4D1"/>
<path d="M108.004 132L106.004 131.75C106.404 132.15 105.671 135.083 105.254 136.5L103.504 141L102.004 145L100.254 150L98.7539 155.5L97.2539 162.25L96.5039 168.25V174.75L102.254 187.75C102.654 190.75 105.087 192.667 106.254 193.25C111.654 194.65 113.837 198.333 114.254 200C117.054 198.8 118.587 203 119.004 205.25H123.254C123.454 202.05 126.337 200.583 127.754 200.25C127.954 198.05 131.504 195.167 133.254 194L137.254 192.5L137.754 191.75L145.754 174.5L145.504 169C146.104 167.8 143.754 156.5 142.504 151C142.504 149.4 139.671 142.667 138.254 139.5C137.254 138.25 136.254 132.25 136.254 132C136.254 131.8 136.087 131.583 136.004 131.5L134.004 132C122.604 142.6 111.754 135 108.004 132Z" fill="#E3C485"/>
<path d="M133.754 133C128.254 144 108.754 140 108.754 133L112.254 134.75L116.004 136.25L119.754 137C121.837 137.083 126.354 137 127.754 136L133.754 133Z" fill="#FEE6AC"/>
<path d="M134.508 150C128.258 158.25 110.508 155.75 106.258 150C105.135 146.954 107.095 145.04 111.215 145.506C117.146 146.178 123.135 147.061 128.995 145.93C134.183 144.927 135.211 146.66 134.508 150Z" fill="#FEE6AC"/>
<path d="M140.507 167.25C134.505 177 107.259 175.5 102.259 168.5C99.1949 162.773 105.994 160.56 114.865 161.861C118.922 162.456 123.072 162.425 127.111 161.72C135.48 160.257 142.325 161.792 140.507 167.25Z" fill="#FEE6AC"/>
<path d="M135.615 189.334C125.257 194.227 106.953 193.798 102.005 187.5L100.755 184.75C100.588 183.167 101.272 181.115 105.505 181.5C111.005 182 120.005 184.75 132.004 181.25C133.85 180.712 140.264 180.389 140.091 184.152C139.98 186.559 137.794 188.305 135.615 189.334Z" fill="#FEE6AC"/>
<path d="M30.748 177.75C29.548 176.75 25.0814 176.5 22.998 176.5C23.998 171.9 29.248 170.917 31.748 171L31.498 176.75L30.748 177.75Z" fill="#F8F3D6"/>
<path d="M21.748 187.25C22.348 182.45 26.6647 181.083 28.748 181C27.548 183 28.9147 186.167 29.748 187.5C28.248 186.5 22.498 187.5 22.248 187.5C22.048 187.5 21.8314 187.333 21.748 187.25Z" fill="#F8F3D6"/>
<path d="M31.748 189.5C31.7314 189.504 31.7147 189.507 31.6978 189.511C31.2094 189.751 32.1824 193.73 32.748 195.75C31.748 195.15 27.498 196 25.498 196.5C25.101 192.132 29.4333 190.031 31.6978 189.511C31.7131 189.504 31.7298 189.5 31.748 189.5Z" fill="#F8F3D6"/>
<path d="M218.998 176.5C217.998 172.1 212.915 171.167 210.498 171.25L211.248 176L211.498 177.5C212.498 176.7 216.915 176.5 218.998 176.5Z" fill="#F8F3D6"/>
<path d="M221.248 188C221.048 183.6 215.831 181.333 213.248 180.75C213.848 182.15 212.998 185.833 212.498 187.5C213.898 186.7 218.915 187.5 221.248 188Z" fill="#F8F3D6"/>
<path d="M217.248 196.5C216.648 191.7 212.831 189.667 210.998 189.25C211.198 190.25 210.415 194.167 209.998 196C210.598 195.6 215.081 196.167 217.248 196.5Z" fill="#F8F3D6"/>
<path d="M94.5762 35.0483C88.3762 35.2483 79.1595 42.7983 75.3262 46.5483C74.3262 45.9483 71.9095 41.465 70.8262 39.2983L69.3262 35.5483L67.8262 30.2983L66.8262 24.5483L66.5762 19.7983V17.5483L67.0762 14.5483L67.8262 12.2983L68.8262 10.5483C69.4095 9.88167 70.6762 8.54834 71.0762 8.54834C71.4762 8.54834 73.9095 11.5483 75.0762 13.0483L77.8262 17.7983C78.0262 18.9983 80.9095 22.2983 82.3262 23.7983L86.8262 27.7983L89.3262 29.7983L92.5762 32.5483L94.5762 35.0483Z" fill="#F8F3D6"/>
<path d="M154.826 28.0483C152.026 29.6483 149.493 33.215 148.576 34.7983C156.976 37.3983 164.076 43.715 166.576 46.5483L168.326 44.7983L169.826 42.2983L171.076 39.7983L171.826 38.5483L174.076 31.7983L174.576 29.2983L175.326 25.0483L175.576 20.2983C175.659 19.6317 175.626 17.4983 174.826 14.2983C174.026 11.0983 171.826 9.13167 170.826 8.54834C168.426 9.74834 166.159 14.5483 165.326 16.7983C165.126 17.5983 161.743 21.2983 160.076 23.0483L154.826 28.0483Z" fill="#F8F3D6"/>
<path d="M210.748 193.75C211.948 192.15 215.581 194.916 217.248 196.5C214.448 196.1 211.415 196 210.248 196L210.748 193.75Z" fill="#A29F87" fill-opacity="0.53"/>
<path d="M220.998 188C219.398 185.2 215.331 184.5 213.498 184.5L212.498 187.5C213.298 186.7 218.498 187.5 220.998 188Z" fill="#A29F87" fill-opacity="0.53"/>
<path d="M211.248 175C215.048 173.8 217.498 175.5 218.248 176.5C215.248 176.1 212.331 177 211.248 177.5V175Z" fill="#A29F87" fill-opacity="0.53"/>
<path d="M31.748 193.25C29.348 192.25 26.748 195 25.748 196.5C26.348 195.7 30.8314 195.666 32.998 195.75L31.748 193.25Z" fill="#A29F87" fill-opacity="0.53"/>
<path d="M21.7918 187.469C21.7771 187.479 21.7625 187.49 21.748 187.5C21.748 187.489 21.763 187.479 21.7918 187.469C23.4775 186.296 27.0585 184.207 28.248 185L29.748 187.25C27.2228 187.25 22.3062 187.295 21.7918 187.469Z" fill="#A29F87" fill-opacity="0.53"/>
<path d="M31.248 174C28.248 173.6 24.8314 175.5 23.498 176.5C24.898 176.1 29.248 177.166 31.248 177.75V174Z" fill="#A29F87" fill-opacity="0.53"/>
<path d="M163.5 187C163.167 187.833 162.5 189.55 162.5 189.75C168.5 190.5 194 163.5 204.75 167L204.25 166.5L199.75 166.25L194.5 167.25L188.25 170.25L181.75 174.5L174.75 180C172.75 182.2 166.417 185.583 163.5 187Z" fill="white" fill-opacity="0.2"/>
<path d="M78.5019 186.75L80.0019 190.25C64.5019 177.75 46.502 166.941 39.252 166.5H42.752L47.002 167L53.2519 169.5L66.5019 177.75L78.5019 186.75Z" fill="white" fill-opacity="0.2"/>
<path d="M75 155L78.5 155.5L77.75 157.5C58.55 153.7 55.25 164.917 56 171L54 170L54.5 165L55.5 162.5L58 159.5L61.5 156.75L64.5 155.75L70.5 154.75L75 155Z" fill="white" fill-opacity="0.2"/>
<path d="M60.2519 157.5C58.0519 157.5 54.9186 163 54.5019 164.75C42.7019 165.55 15.752 154.25 10.002 146.25C21.2519 157.25 49.5019 157 60.2519 157.5Z" fill="#319EA2"/>
<path d="M169.75 155L164.5 156L165.25 158C175.25 153.25 188.25 161 186 171.5L188.25 169.75L187.5 164.75L185.5 160.5L182.25 157.25L177.5 155.5L173 155H169.75Z" fill="white" fill-opacity="0.2"/>
<path d="M158.002 198.25L155.502 200.5C168.502 180.5 166.502 146.75 147.502 140.5L143.752 130L146.002 129.5L148.502 136.5L152.252 142.25L155.252 144L160.502 148.5L163.502 153L166.002 160.75L166.752 169L166.502 174L165.252 179.75L164.002 185L162.252 190L159.752 195.5L158.002 198.25Z" fill="white" fill-opacity="0.2"/>
<path d="M80.752 191.75L86.502 200.75C72.002 169 80.752 146.75 94.5019 140.5C95.7019 135.9 98.5019 131.75 99.7519 130.25L97.2519 129.5L92.0019 140.5L92.2519 141C91.5019 141.25 89.5019 142.05 87.5019 143.25C85.502 144.45 82.1686 148.75 80.752 150.75L77.502 157.25L76.502 163.75L76.002 173.5L77.252 182.25L80.752 191.75Z" fill="white" fill-opacity="0.2"/>
<path d="M48.0018 154.25L55.7518 153.25L57.5019 154.5C29.5019 158.3 12.1686 148.917 7.00195 143.75C9.80195 151.35 35.5019 165.25 54.7519 164.75L54.2519 166.25L47.2519 165.5L38.7519 163.75L33.2519 162.25L24.7519 159L21.2519 157L13.0019 151.25L6.50195 144.75L4.00195 141L4.25195 139.5L9.75195 144.5L12.2519 146.25C12.0519 146.45 18.1685 149.167 21.2519 150.5L30.7518 153L39.7518 154.25H48.0018Z" fill="white" fill-opacity="0.2"/>
<path d="M86.3407 144.632C94.9729 157.314 83.8935 159.331 77.25 158.75C77.6659 155.007 80.5082 150.807 83.1292 147.75C79 146.25 74.4167 140.916 73.25 138.25C70.25 134.25 66.75 141.25 62 148.5C62.5 137.75 68.4167 133.916 70.25 133.75C66.25 126.75 56.25 132 48 137.75C53.5 129 63.75 124.5 65.75 127.25C67.5 119.25 50.5 116.75 37 119.75C47.4 112.55 61.6667 117.916 67.5 121.5C69.5 132.7 81.5 141 87.25 143.75L86.3407 144.632Z" fill="#319EA2"/>
<path d="M76.75 178C80.5 176.25 85 182 79 187C78.6102 186.04 78.1062 184.71 77.6577 183.362L78.25 186.25L65 176.75C65.8333 172.916 69.15 166 75.75 169L76.25 176.5L76.6124 178.266C76.6428 178.152 76.6881 178.061 76.75 178Z" fill="#319EA2"/>
<path d="M92 181.75C88.4262 183 89.3446 184.874 90.9527 186.032C92.1809 186.916 94.0201 187.231 95.0075 186.084C96.5883 184.248 95.8526 180.401 92 181.75Z" fill="#319EA2"/>
<path d="M63 156C74.5 157.25 63 179.25 55 164C55.4167 162.416 57.6 158.6 63 156Z" fill="#319EA2"/>
<path d="M159.5 147.5C138.25 147.75 150 170.75 166 160.75C166 155.55 161.667 149.75 159.5 147.5Z" fill="#319EA2"/>
<path d="M163.25 186.5C148.006 185 155.245 165.014 165.988 176.487C166.2 175.231 166.243 174.371 166 174.25C168.75 168.75 182.5 171.75 172.75 181.5L163.25 187.25C164.106 184.395 165.455 179.539 165.963 176.634L163.25 186.5Z" fill="#319EA2"/>
<path d="M149 185.25C150.5 184 154.25 185.75 152 188.25C149.041 191.537 147.25 186.5 149 185.25Z" fill="#319EA2"/>
<path d="M172.75 155C175.333 154.916 180.9 155.35 182.5 157.75C184.5 160.75 172 169.5 172.75 155Z" fill="#319EA2"/>
<path d="M174.75 121.5C172.55 135.7 159.167 141.416 152.75 142.5L158.75 146.5C162.35 146.7 167.5 140.25 170 137C174 135.6 178.167 144.416 179.75 149C177.55 136.2 173.833 133.5 172.25 133.75C173.75 126.25 186 128.25 196 139.5C189 127.5 179.417 126.333 175.5 127.25C176.5 119 192.75 116 206 119.75C193 110.95 179.75 117.25 174.75 121.5Z" fill="#319EA2"/>
<path d="M63.7559 68.4995L61.7559 79.7495L58.5059 86.7495C60.2559 85.2495 63.5059 84.4995 63.7559 84.4995C64.9559 83.8995 68.4225 84.0828 70.0059 84.2495L77.0059 85.9995L87.7558 88.4995C88.9558 89.2995 95.2558 89.8328 98.2558 89.9995C98.8558 90.1995 103.839 90.0828 106.256 89.9995C108.056 87.9995 113.006 86.4995 115.256 85.9995C116.339 85.7495 119.256 85.2495 122.256 85.2495C125.256 85.2495 128.839 86.2495 130.256 86.7495C131.656 86.9495 134.839 89.1662 136.256 90.2495L147.006 89.4995C154.406 89.4995 159.589 87.8328 161.256 86.9995L164.756 85.7495L167.506 84.9995L170.506 84.2495L174.256 83.9995L177.256 84.2495L180.256 84.9995L183.506 86.4995L180.756 79.4995C180.006 71.7495 176.506 65.4995 175.256 60.7495C174.256 56.9495 168.922 50.4995 166.506 47.2495C165.506 43.9995 156.506 37.2495 149.256 34.4995C143.456 32.2995 133.673 30.8328 129.506 30.7495L114.256 30.9995C113.089 30.8328 109.606 30.6495 105.006 31.2495C100.406 31.8495 94.5892 34.1662 92.2558 34.9995C88.5058 35.9995 81.5892 41.1662 78.2559 43.9995C75.0559 45.7995 70.3392 53.3328 68.5059 56.9995C67.1059 58.5995 64.5892 65.1662 63.7559 68.4995Z" fill="#54C4D1"/>
<path d="M166.826 46.548C168.571 44.7383 170.316 41.7925 171.785 38.298M148.502 34.4995C148.902 32.8995 152.076 30.298 153.576 29.048C153.975 28.7073 154.362 28.374 154.736 28.048M165.302 16.548C168.566 9.39366 170.506 8.22212 171.076 8.548C174.073 10.8158 175.39 14.8678 175.573 19.548M165.302 16.548C165.228 16.7115 165.152 16.8782 165.076 17.048C164.791 17.7905 163.346 19.8638 159.826 23.3484M165.302 16.548C166.391 17.9646 169.97 20.548 175.573 19.548M175.573 19.548C175.693 22.6352 175.319 25.9959 174.607 29.298M159.826 23.3484C161.014 25.8316 165.632 30.498 174.607 29.298M159.826 23.3484C158.46 24.7008 156.781 26.2657 154.736 28.048M174.607 29.298C173.929 32.4471 172.943 35.5431 171.785 38.298M154.736 28.048C155.988 31.298 161.152 37.898 171.785 38.298M75.0763 46.298C73.3854 44.2797 71.8374 41.5829 70.536 38.548M87.3271 28.048C93.1271 32.648 94.3353 34.1662 94.2519 34.4995M87.3271 28.048C82.9271 36.448 74.2997 38.548 70.536 38.548M87.3271 28.048C85.1247 26.3012 83.3572 24.6914 81.9754 23.298M70.536 38.548C69.3027 35.6719 68.291 32.492 67.5892 29.298M81.9754 23.298C79.4964 20.798 78.8271 19.798 78.0771 18.548C77.5728 17.5394 77.0894 16.6253 76.6281 15.798M81.9754 23.298C80.9341 26.048 76.5989 31.098 67.5892 29.298M67.5892 29.298C66.834 25.8608 66.4377 22.4072 66.5105 19.298M66.5105 19.298C66.6258 14.3721 67.9183 10.3106 70.8263 8.54797C71.5493 8.69252 73.6139 10.3916 76.6281 15.798M66.5105 19.298C69.0667 19.7146 74.6689 19.598 76.6281 15.798" stroke="#A29F87" stroke-linecap="round" stroke-linejoin="round"/>
<path d="M96.7507 175.249C96.5145 173.911 96.3924 171.706 96.5731 168.749M104.001 140C104.917 137.75 106.501 133.5 106.001 132M104.001 140C102.348 143.915 101.035 147.594 100.001 150.997M104.001 140C108.072 143.166 120.618 147.5 138.233 139.5M136.251 131.5C136.251 132.922 136.656 136.413 138.233 139.5M145.751 174.499C145.784 172.598 145.722 170.672 145.585 168.749M108.001 193.499C111.501 194.999 122.301 197.349 133.501 193.749M96.5731 168.749C106.001 177.499 126.501 184.749 145.585 168.749M96.5731 168.749C96.8415 164.359 97.7779 158.314 100.001 150.997M145.585 168.749C144.676 156.01 140.456 143.475 138.501 140C138.408 139.834 138.319 139.668 138.233 139.5M100.001 150.997C109.251 159.749 128.751 161.499 142.251 150.997M119.001 205.249C119.918 205.416 121.801 205.649 123.001 205.249" stroke="#876828" stroke-linecap="round" stroke-linejoin="round"/>
<path d="M77.0054 85.9993L87.7554 88.7493C90.1554 89.7493 100.922 90.1659 106.005 90.2493C106.405 89.6493 108.339 88.4993 109.256 87.9993C110.456 86.9993 113.923 86.2493 115.506 85.9993C118.306 84.5993 124.006 85.2493 126.506 85.7493C127.906 85.5493 132.089 87.4993 134.006 88.4993L136.506 90.2493L146.506 89.4993C155.106 89.2993 160.922 87.4159 162.756 86.4993L170.006 84.2493C174.256 83.7493 176.006 83.9993 178.006 84.2493C179.606 84.4493 181.506 85.4993 182.256 85.9993L183.756 86.7493C184.556 89.7493 184.922 94.4993 185.006 96.4993C185.406 101.899 182.006 107.416 180.256 109.499C178.856 111.899 174.506 115.833 172.506 117.499C171.506 118.499 164.922 121.916 161.756 123.499C157.506 125.999 147.756 128.749 145.506 129.499C143.706 130.099 137.589 131.249 134.756 131.749L130.256 134.999C128.506 135.833 124.206 137.449 121.006 137.249C117.006 136.999 113.506 135.749 113.256 135.499C113.056 135.299 111.506 134.583 110.756 134.249L107.256 131.499H106.506L95.7558 129.499L89.0058 127.499L79.7558 123.749L69.2559 117.499L64.5059 112.999L60.5059 107.999L57.7554 100.499C56.3554 96.4993 57.1721 91.1659 57.7554 88.9993C58.3554 85.3993 64.1721 84.1659 67.0054 83.9993C69.4054 83.5993 74.6721 85.1659 77.0054 85.9993Z" fill="#FEE6AC"/>
<path d="M121.633 54.8076C120.591 55.2723 119.66 54.8371 118.994 54.1004C118.025 53.0282 118.149 51.4233 118.555 50.036C120.301 44.0644 121.961 45.6935 123.06 48.6931C123.86 50.8807 123.76 53.8583 121.633 54.8076Z" fill="#F8F3D6" stroke="#A29F87" stroke-linecap="round" stroke-linejoin="round"/>
<path d="M145.75 45.4991C148.333 43.8325 155.05 42.4491 161.25 50.2491C161.25 43.4992 150.25 33.7492 145.75 45.4991Z" fill="#00555F"/>
<path d="M96.25 44.9992C93.4167 43.8325 86.45 43.1992 81.25 49.9992C81.25 43.9992 91 34.2492 96.25 44.9992Z" fill="#00555F"/>
<path d="M145.75 45.4991C148.333 43.8325 155.05 42.4491 161.25 50.2491C161.25 43.4992 150.25 33.7492 145.75 45.4991Z" stroke="#003F46" stroke-linecap="round" stroke-linejoin="round"/>
<path d="M96.25 44.9992C93.4167 43.8325 86.45 43.1992 81.25 49.9992C81.25 43.9992 91 34.2492 96.25 44.9992Z" stroke="#003F46" stroke-linecap="round" stroke-linejoin="round"/>
<path d="M181.754 82.4995C184.171 82.6662 191.004 85.0995 199.004 93.4995M199.004 93.4995C196.421 88.6662 188.954 78.2495 179.754 75.2495M199.004 93.4995C199.004 89.1662 201.004 79.4995 209.004 75.4995M209.004 75.4995C204.087 74.0828 191.304 71.5995 179.504 72.9995M209.004 75.4995C203.921 72.2495 190.554 65.7995 177.754 65.9995M209.004 75.4995C206.504 69.9162 203.704 56.0495 212.504 45.2495M212.504 45.2495C203.921 48.8328 184.954 57.7995 177.754 64.9995M212.504 45.2495C204.587 45.6662 186.054 49.0995 175.254 59.4995" stroke="#044249" stroke-linecap="round" stroke-linejoin="round"/>
<path d="M89.75 54.9994C94.75 55.1994 99.1667 58.5827 100.75 60.2494L99.75 60.2494L97.75 59.4994C96.5833 59.2494 94 58.8494 93 59.2494C92.1667 59.3327 90.15 59.5994 88.75 59.9994C87.4167 60.7494 84.7 62.2994 84.5 62.4994C84.25 62.7494 81.75 64.7494 81 66.9994L79.75 70.7494L79.5 72.2494V76.2494L80.25 80.2494L82.25 83.9994L85.75 88.2494C83 87.5827 77 85.5494 75 82.7494C73 79.9494 72 76.5827 71.75 75.2494V70.4994L73.25 65.9994C74 64.4994 75.55 61.4494 75.75 61.2494C75.95 61.0494 78.6667 58.4994 80 57.2494C81.1667 56.4161 84.75 54.7994 89.75 54.9994Z" fill="white"/>
<path d="M141 60.9994H140.25L140.75 59.9994C141.55 58.6528 146.25 56.4383 148.5 55.4994C150.5 54.8994 154.833 55.2494 156.75 55.4994L162.25 56.9994L166 60.4994C166.75 61.9161 168.35 64.7494 168.75 64.7494C169.15 64.7494 170.417 69.4161 171 71.7494L170.75 75.2494L170 78.7494L166.5 83.7494L163.75 85.7494L157.5 87.9994L160.5 83.9994L161.5 81.9994L162.25 79.4994L162.5 76.4994L162.75 72.9994L161.75 68.4994C161.15 66.0994 158.667 63.6661 157.5 62.7494C156.5 61.1494 152.25 59.9161 150.25 59.4994C148.85 58.6994 145 59.4994 143.25 59.9994L141 60.9994Z" fill="white"/>
<path d="M60.0019 82.7495C56.2519 83.7495 47.6519 87.3495 43.2519 93.7495M43.2519 93.7495C45.1686 89.3328 51.6519 79.4995 62.2519 75.4995M43.2519 93.7495C43.4186 89.9995 41.6519 81.0495 33.252 75.2495M33.252 75.2495C41.6686 73.6662 59.4019 70.9995 63.0019 72.9995M33.252 75.2495C39.5019 71.7495 54.5019 64.9995 64.5019 65.9995M33.252 75.2495C35.752 70.0828 38.5019 56.8495 29.502 45.2495M29.502 45.2495C40.0019 49.3328 61.7019 58.9995 64.5019 64.9995M29.502 45.2495C37.3353 45.4995 55.7519 48.6495 66.7519 59.2495" stroke="#044249" stroke-linecap="round" stroke-linejoin="round"/>
<path d="M88.9536 118.533C57.797 107.644 66.3091 91.1276 79.2521 86.4995C79.6512 86.8995 84.9191 87.8328 87.5032 88.2495C89.3032 90.0495 100.586 90.1662 106.003 89.9995C104.603 92.1995 100.419 93.5828 98.5025 93.9995C67.0616 96.7506 83.0403 107.843 91.3174 115.377C93.7647 117.605 92.0777 119.624 88.9536 118.533Z" fill="#E3C483" fill-opacity="0.6"/>
<path d="M136.503 90.2495C138.103 92.4495 142.503 93.4995 144.503 93.7495C174.7 91.022 163.906 105.906 154.475 116.158C153.002 117.76 154.58 119.905 156.489 118.861C183.228 104.253 186.816 89.8167 165.003 85.4995L142.753 89.9995L136.503 90.2495Z" fill="#E3C483" fill-opacity="0.6"/>
<path d="M66.5029 115C65.0862 113.666 61.5527 109.65 58.7527 104.25C55.9527 98.8495 57.2527 90.3329 58.2527 86.7495L60.2529 85.7495C53.8529 106.75 70.2529 122.5 105.003 128.75L107.003 131.5L97.2529 129.75C92.8363 128.25 83.3529 125.05 80.7529 124.25C78.1529 123.45 73.3363 120.083 71.2529 118.5L66.5029 115Z" fill="#FCF6DD"/>
<path d="M140.003 131L135.003 131.5L137.503 128.75C181.477 121.545 184.961 97.5508 181.813 85.7204C181.793 85.6463 181.773 85.5727 181.753 85.4995L182.438 85.8908L183.503 86.4995L185.003 92.9995V98.7495L183.503 104.25L180.503 109.75C179.086 111.166 176.103 114.2 175.503 115C174.903 115.8 168.42 120 165.253 122L161.003 123.75C160.403 124.35 153.586 127 150.253 128.25L140.003 131Z" fill="#FCF6DD"/>
<path d="M61.7536 79.9994L62.5728 80.5729L62.7161 80.3682L62.7463 80.1202L61.7536 79.9994ZM100.754 124.999C100.202 124.999 99.7539 125.447 99.7539 125.999C99.7539 126.552 100.202 126.999 100.754 126.999V124.999ZM141.807 126.894C142.301 127.141 142.901 126.941 143.148 126.447C143.395 125.953 143.195 125.352 142.701 125.105L141.807 126.894ZM180.754 80.2494L179.762 80.3787L179.786 80.5617L179.874 80.7241L180.754 80.2494ZM60.9344 79.4259C56.3983 85.9061 53.5157 96.8489 59.1652 107.433C64.8097 118.007 78.8078 127.914 107.337 132.735L107.67 130.763C79.3994 125.985 66.1475 116.266 60.9296 106.491C55.7166 96.7249 58.359 86.5927 62.5728 80.5729L60.9344 79.4259ZM100.754 126.999C101.107 126.999 101.601 127.162 102.221 127.549C102.824 127.926 103.456 128.459 104.062 129.06C105.284 130.27 106.287 131.637 106.635 132.246L108.372 131.253C107.92 130.462 106.798 128.954 105.47 127.639C104.802 126.977 104.053 126.335 103.281 125.853C102.525 125.381 101.65 124.999 100.754 124.999V126.999ZM106.851 132.507C109.378 134.686 113.798 137.288 118.919 138.051C124.091 138.821 129.962 137.706 135.211 132.456L133.797 131.042C129.046 135.793 123.833 136.761 119.214 136.073C114.543 135.377 110.462 132.98 108.156 130.992L106.851 132.507ZM135.299 132.355C135.894 131.575 137.459 130.047 139.053 128.775C139.844 128.143 140.6 127.609 141.207 127.274C141.514 127.105 141.744 127.009 141.897 126.966C142.089 126.913 141.996 126.989 141.807 126.894L142.701 125.105C142.212 124.86 141.693 124.948 141.365 125.038C140.998 125.14 140.613 125.318 140.241 125.523C139.491 125.937 138.635 126.549 137.805 127.212C136.157 128.527 134.447 130.174 133.708 131.143L135.299 132.355ZM134.652 132.738C146.146 131.018 162.348 126.357 173.472 117.889C179.046 113.646 183.415 108.393 185.21 102.008C187.012 95.6012 186.18 88.2036 181.634 79.7747L179.874 80.7241C184.227 88.7952 184.919 95.658 183.285 101.467C181.645 107.299 177.62 112.218 172.261 116.297C161.518 124.475 145.695 129.064 134.356 130.76L134.652 132.738ZM181.745 80.1201C180.607 71.3914 177.177 58.5042 168.639 47.9034C160.063 37.256 146.392 28.9923 124.98 29.4997L125.028 31.4992C145.815 31.0066 158.894 38.9929 167.081 49.1579C175.306 59.3697 178.651 71.8574 179.762 80.3787L181.745 80.1201ZM62.7463 80.1202C63.8614 70.9529 66.776 59.0071 74.6735 49.2927C82.5351 39.6227 95.4299 32.0457 116.768 31.7493L116.74 29.7495C94.8779 30.0532 81.3977 37.8512 73.1217 48.0311C64.8817 58.1667 61.8961 70.546 60.7609 79.8787L62.7463 80.1202Z" fill="#044249"/>
<path d="M136.756 70.2499C135.956 68.2499 138.423 63.2499 139.756 60.9999L141.006 60.7499L142.256 60.2499L145.256 59.4999L148.506 59.2499L151.006 59.4999L153.006 59.9999C154.172 60.6666 156.606 62.0499 157.006 62.2499C157.406 62.4499 159.506 64.8332 160.506 65.9999L161.756 68.9999L162.506 71.9999L162.756 74.4999L162.506 77.9999L161.756 80.7499C161.756 81.5499 160.589 83.7499 160.006 84.7499L158.006 87.2499L150.006 88.7499C143.606 89.7499 140.339 87.1666 139.506 85.7499C136.306 83.7499 136.339 74.5832 136.756 70.2499Z" fill="#865815"/>
<path d="M100.006 60.2499C103.406 61.4499 104.923 66.5832 105.256 68.9999C105.756 71.5832 106.456 77.8499 105.256 82.2499C104.056 86.6499 101.089 87.7499 99.7558 87.7499L93.2559 88.4999H86.5059L83.0059 84.9999L81.2559 82.2499L80.0059 78.7499L79.5059 76.4999V73.9999L79.7559 71.2499L80.2559 68.9999L80.7559 67.2499L82.5059 64.4999L84.2559 62.7499L87.5059 60.4999L91.0059 59.4999L94.7559 58.9999C95.7559 58.7999 98.6725 59.7499 100.006 60.2499Z" fill="#865815"/>
<path d="M98.502 93.9999C99.8353 93.9165 103.252 92.9999 106.252 89.9999C110.002 86.2499 125.502 81.4999 136.002 89.9999C137.419 91.2499 140.252 93.7499 144.502 93.7499" stroke="#044249" stroke-linecap="round" stroke-linejoin="round"/>
<path d="M87.2512 71.7493C83.7683 82.4034 90.0012 87.5826 93.2512 88.7493C96.0514 89.5493 100.918 87.9159 103.001 86.9993C106.001 84.3993 105.917 74.5826 105.501 69.9993C105.001 64.9993 91.5011 58.7493 87.2512 71.7493Z" fill="#050505"/>
<path d="M153.001 67.9993C159.801 80.1993 153.168 87.0826 149.001 88.9993C140.251 88.2492 142.001 87.4993 139.251 85.4993C137.051 83.8993 136.501 74.9993 136.501 70.7493L137.001 69.9993C141.001 60.4993 151.251 63.4993 153.001 67.9993Z" fill="#050505"/>
<circle cx="94" cy="70.4995" r="3" fill="white"/>
<circle cx="148.256" cy="70.7495" r="2.75" fill="white"/>
<circle cx="99.752" cy="77.7495" r="1.25" fill="white"/>
<circle cx="142.5" cy="77.9995" r="1" fill="white"/>
<path d="M139.005 62.2496C147.005 55.4996 165.755 59.9996 162.255 79.2496C161.922 81.3329 160.255 86.0496 156.255 88.2496M102.004 61.7496C95.004 55.2496 75.2539 60.4996 80.2549 79.9996C81.5036 83.4996 83.1536 85.8996 86.7536 88.4996" stroke="#044249"/>
<path d="M108.001 100.499L108.251 101.499C111.372 103.858 112.508 98.9571 110.502 98.2491C109.966 98.0604 109.616 98.1427 109.393 98.3L108.751 98.7491L108.501 99.2491L108.251 99.7491L108.001 100.499Z" fill="#6B5B38"/>
<path d="M112.235 100.472C112.433 101.888 111.651 103.079 110.601 103.226C109.551 103.373 108.472 102.443 108.274 101.027C108.075 99.611 108.858 98.4209 109.907 98.2739C110.957 98.1268 112.037 99.0562 112.235 100.472Z" stroke="#594315" stroke-width="0.5"/>
<path d="M134.253 101.499L134.002 101.999C130.502 104.499 130.003 99.2496 132.253 98.4995C132.853 98.2995 133.003 98.5828 133.253 98.7495L134.252 99.9995L134.253 101.499Z" fill="#6B5B38"/>
<path d="M134.131 101.374C133.909 102.787 132.815 103.698 131.768 103.534C130.721 103.37 129.958 102.168 130.179 100.755C130.4 99.3423 131.494 98.4306 132.542 98.5947C133.589 98.7587 134.352 99.9613 134.131 101.374Z" stroke="#594315" stroke-width="0.5"/>
<path d="M96.4061 101.209C96.0867 100.88 95.7858 100.559 95.5039 100.249C95.7732 100.451 96.0766 100.779 96.4061 101.209C104.585 109.645 124.859 123.588 146.754 100.249C143.587 105.332 137.254 117.749 134.754 123.749C129.754 129.999 115.254 136.299 105.254 119.499C103.256 114.468 99.0127 104.617 96.4061 101.209Z" fill="#430503"/>
<path d="M95.5039 100.249C103.004 108.499 124.004 124.499 146.754 100.249C143.587 105.332 137.254 117.749 134.754 123.749C129.754 129.999 115.254 136.299 105.254 119.499C103.004 113.832 97.9039 102.049 95.5039 100.249Z" stroke="#1B0302" stroke-linecap="round" stroke-linejoin="round"/>
<path d="M114.735 124C107.544 112.365 134.381 110.341 128.014 124H114.735Z" fill="black"/>
<path d="M111.004 125.999C114.421 123.499 123.304 119.999 131.504 125.999C128.504 129.249 118.404 132.999 111.004 125.999Z" fill="#FEACA9" stroke="#D6908E" stroke-linecap="round" stroke-linejoin="round"/>
<path d="M123.498 123C135.998 127 121.998 129.5 115.498 128.75C123.248 131.5 129.665 128.083 131.498 126C129.498 124.2 124.748 123.166 123.498 123Z" fill="#D6908E"/>
<path d="M96.1379 99.7797C95.5061 100.185 94.9229 100.744 94.3915 101.424C94.1859 101.687 93.8195 101.526 93.9702 101.228C94.4733 100.234 95.2432 99.6288 96.053 99.288C96.387 99.1474 96.4429 99.584 96.1379 99.7797Z" fill="#044249"/>
<path d="M145.275 99.2942C146.246 99.7962 147.136 100.623 147.934 101.691C148.136 101.961 148.516 101.793 148.375 101.487C147.666 99.9472 146.485 99.1531 145.325 98.8084C144.979 98.7059 144.955 99.1289 145.275 99.2942Z" fill="#1B0302"/>
<path d="M115.752 112.749C114.217 115.522 110.252 117.999 108.502 110.249C111.752 111.749 113.002 111.999 115.752 112.749Z" fill="#FDFEFF"/>
<path d="M126.502 112.749C127.984 115.418 131.812 117.957 133.502 110.499C130.364 111.943 129.157 112.028 126.502 112.749Z" fill="#FDFEFF"/>
<path d="M116.005 36.2135C115.836 40.181 123.658 44.6315 126.502 36.2135C123.455 16.2035 116.451 25.691 116.005 36.2135Z" fill="#F8F3D6" stroke="#A29F87" stroke-linecap="round" stroke-linejoin="round"/>
<ellipse cx="121.504" cy="123.75" rx="2.5" ry="0.75" fill="#FFE8E7"/>
<path d="M58.0039 87.4991C60.0039 85.2491 65.5039 81.9991 77.2539 85.9991C89.0039 89.9991 98.2539 90.4991 106.254 89.9991M184.004 87.2492C182.504 85.4991 175.504 81.7491 165.254 85.7491C157.945 88.6015 157.004 89.2492 136.504 90.2491" stroke="#044249" stroke-linecap="round" stroke-linejoin="round"/>
<path d="M175.502 70.2495C172.102 69.4495 170.419 67.5828 170.002 66.7495L170.752 69.2495C171.752 70.2495 174.335 70.3328 175.502 70.2495Z" fill="#044249"/>
<path d="M175.752 78.7495C173.152 77.7495 171.669 75.1662 171.252 73.9995L170.752 75.7495C172.552 78.1495 174.835 78.7495 175.752 78.7495Z" fill="#044249"/>
<path d="M68 61.7495C70.2 62.9495 73.75 62.2495 75.25 61.7495L74.25 63.7495C70.45 64.3495 68.5 62.6662 68 61.7495Z" fill="#044249"/>
<path d="M66.502 70.2495C70.302 69.2495 72.0853 67.4995 72.502 66.7495L72.002 69.2495C70.202 70.4495 67.5853 70.4162 66.502 70.2495Z" fill="#044249"/>
<path d="M71.7539 75.4995C69.9539 78.0995 67.8372 78.5828 67.0039 78.4995C68.6017 77.9003 70.4987 75.0906 71.2508 73.755L71.7539 75.4995Z" fill="#044249"/>
<path d="M159.75 50.2495C159.75 52.3337 157.5 54.2495 156.5 55.2495L158 55.4995C160 53.7495 160.12 51.4074 159.75 50.2495Z" fill="#044249"/>
<path d="M169.752 54.7495C169.352 56.3495 164.752 57.0828 162.502 57.2495L164.502 58.4995C168.102 58.2995 169.502 55.9162 169.752 54.7495Z" fill="#044249"/>
<path d="M174.252 61.9995C171.652 62.9995 168.669 62.4162 167.502 61.9995L168.252 63.2495C171.452 63.6495 173.752 62.5828 174.252 61.9995Z" fill="#044249"/>
<path d="M82.7533 50.2495C83.1533 53.2495 85.2533 54.4995 86.2533 54.7495L84.5033 55.4995C82.3033 53.6995 82.42 51.2495 82.7533 50.2495Z" fill="#044249"/>
<path d="M72.502 54.7495C74.702 57.1495 78.5853 57.2495 80.2519 56.9995L78.002 58.9995C74.002 58.7995 72.6686 56.0828 72.502 54.7495Z" fill="#044249"/>
<path d="M31.2519 171C28.9186 171.083 24.002 172.3 23.002 176.5C25.1686 176.583 29.7519 176.95 30.7519 177.75M29.0019 181C26.8353 181 22.352 182.3 21.752 187.5C24.002 187.25 28.7019 186.9 29.5019 187.5M31.2519 189.5C29.0853 190.25 24.902 192.7 25.502 196.499C26.9186 196.083 30.3019 195.35 32.5019 195.749M210.502 171.25C212.835 171.083 217.802 171.9 219.002 176.5C216.669 176.5 211.902 176.7 211.502 177.5M213.752 180.75C216.085 181.333 220.852 183.6 221.252 188C219.502 187.583 215.352 186.9 212.752 187.5M210.752 189.25C212.585 189.416 216.452 191.1 217.252 196.499C215.169 196.166 210.802 195.599 210.002 195.999" stroke="#A29F87" stroke-linecap="round" stroke-linejoin="round"/>
<path d="M119.018 204.535C118.255 201.948 116.785 199.61 114.256 200C114.506 200.5 114.089 202.75 113.756 204C114.424 203.866 116.095 204.692 117.579 205.552C118.331 205.989 119.264 205.369 119.018 204.535Z" fill="#F8F3D6"/>
<path d="M123.213 206.06C123.354 202.136 126.387 200.326 127.756 200.25C127.756 201.25 128.256 203.5 129.256 204.25C128.6 203.758 126.161 205.754 124.339 206.764C123.796 207.066 123.19 206.681 123.213 206.06Z" fill="#F8F3D6"/>
<path d="M119.018 204.535C118.255 201.948 116.785 199.61 114.256 200C114.506 200.5 114.089 202.75 113.756 204C114.424 203.866 116.095 204.692 117.579 205.552C118.331 205.989 119.264 205.369 119.018 204.535Z" stroke="#A29F87"/>
<path d="M123.213 206.06C123.354 202.136 126.387 200.326 127.756 200.25C127.756 201.25 128.256 203.5 129.256 204.25C128.6 203.758 126.161 205.754 124.339 206.764C123.796 207.066 123.19 206.681 123.213 206.06Z" stroke="#A29F87"/>
<path d="M97.0029 129.749C96.0029 133.082 93.3525 139.849 90.7525 141.249C85.336 140.999 73.3529 136.399 68.7529 119.999C61.0029 114.082 41.4529 107.249 25.2529 127.249M94.5025 140.499C91.3658 140.927 84.7775 143.696 80.3091 151.249M78.2525 155.499C76.0397 161.338 74.0717 173.851 78.7292 186.999M78.2525 155.499C70.4395 154.145 64.8404 155.004 61.0029 157.065M78.2525 155.499C78.8596 153.938 79.5541 152.525 80.3091 151.249M91.7529 209.999C89.1943 209.892 87.1921 207.968 86.6569 205.999M96.5029 209.499C97.5914 209.179 99.4529 208.265 100.002 207.079M94.7523 197.749C100.555 197.898 101.598 203.635 100.002 207.079M100.002 207.079C101.002 208.053 103.853 209.599 106.253 207.999M109.752 202.749C110.252 200.249 108.002 195.999 104.252 195.749M111.502 205.749C114.752 205.249 117.552 196.499 104.752 192.499C101.252 186.249 100.002 182.749 98.1978 177.999C94.3619 170.331 92.6029 169.249 90.0023 169.249M86.6569 205.999C86.1881 204.274 86.269 202.322 86.5025 200.999C82.8814 196.433 80.3861 191.676 78.7292 186.999M86.6569 205.999C83.772 208.999 73.5523 211.949 55.7523 199.749C53.4189 198.249 49.0017 195.999 47.0792 196.033M48.0023 193.249C48.2517 200.499 29.9866 202.799 31.7866 189.199M46.0017 185.499C41.2527 197.249 21.0022 188.249 31.2517 177.249M49.2529 176.749C48.7529 188.249 27.6136 184.599 31.7866 170.999C34.0029 166.999 42.5029 163.249 54.0029 169.999M54.0029 169.999C59.0029 171.999 77.3103 185.399 78.7292 186.999M54.0029 169.999C53.7113 165.187 55.6312 159.949 61.0029 157.065M25.2529 127.249C33.0958 122.416 51.9258 115.199 64.5029 124.999C57.5862 126.082 43.2529 132.349 41.2529 148.749M25.2529 127.249C28.5029 128.416 36.2529 134.349 41.2529 148.749M41.2529 148.749C45.5863 142.249 56.9029 129.799 67.5029 131.999C64.4196 135.459 58.8029 145.317 61.0029 157.065M41.2529 148.749C45.8995 148.085 51.464 150.562 55.7529 153.235M61.0029 157.065C62.7529 152.126 67.1029 141.499 70.5029 138.499C71.0403 141.666 73.754 148.649 80.3091 151.249M61.0029 157.065C59.7702 155.993 57.9252 154.589 55.7529 153.235M55.7529 153.235C47.9377 154.824 33.1025 155.437 19.7529 150.081M2.75294 137.999C7.49505 143.702 13.4589 147.555 19.7529 150.081M2.75294 137.999C18.7529 137.249 27.5029 142.999 30.5029 145.249C32.9029 147.049 32.1696 147.499 31.5029 147.499C28.1029 147.299 22.2529 149.137 19.7529 150.081M2.75294 137.999C2.58627 145.332 5.40293 161.099 18.0029 165.499C17.0863 161.578 15.4529 153.764 16.2529 153.868M2.75294 137.999C4.04238 141.992 8.1425 148.201 16.2529 153.868M54.0029 166.499C36.5718 164.696 24.3927 159.555 16.2529 153.868M152.253 169.499C146.753 168.999 145.503 176.749 137.753 192.249C131.753 193.499 122.503 200.249 131.003 205.749M132.753 202.249C132.503 200.499 132.703 196.749 138.503 195.749M135.753 207.749C137.003 208.332 140.203 209.499 142.003 207.499M147.503 197.749C144.003 196.249 137.753 205.499 144.753 209.749M151.503 209.749C152.569 209.812 154.66 208.873 155.42 205.249M147.503 140.499C154.329 142.53 158.995 146.186 162.016 150.749M154.199 143.372C153.468 142.977 152.364 142.092 151.188 140.749M146.003 129.749C146.891 134.699 149.147 138.416 151.188 140.749M155.42 205.249C155.669 204.059 155.802 202.578 155.753 200.749C158.396 197.971 161.209 192.983 163.32 186.999M155.42 205.249C157.531 208.666 166.203 212.549 184.003 200.749C187.003 198.666 193.253 194.999 195.169 195.749M194.253 192.499C194.42 195.916 197.303 201.799 207.503 197.999C209.086 197.166 211.903 194.249 210.503 189.249M210.503 189.249C201.303 193.449 197.336 188.499 196.503 185.499M210.503 189.249C212.753 188.222 216.003 181.249 211.003 177.249M211.003 177.249C206.753 187.499 193.503 182.499 192.753 177.249M211.003 177.249C212.667 170.383 204.808 160.92 188.003 170.33M163.32 186.999C167.173 185.799 173.881 180.832 176.753 178.499C180.863 174.892 184.615 172.228 188.003 170.33M163.32 186.999C166.681 177.473 168.266 165.424 164.569 155.749M164.569 155.749C168.882 154.663 175.461 154.18 180.554 156.499M164.569 155.749C163.898 153.994 163.054 152.318 162.016 150.749M188.003 170.33C188.282 162.643 184.979 158.514 180.554 156.499M151.188 140.749C156.46 140.749 168.303 136.699 173.503 120.499C177.753 113.249 203.053 106.699 217.253 127.499M217.253 127.499C208.086 121.666 188.753 114.749 178.003 124.749C184.42 125.499 198.053 131.399 201.253 148.999M217.253 127.499C214.086 127.916 206.453 132.799 201.253 148.999M201.253 148.999C196.836 142.499 185.403 130.049 175.003 132.249C177.586 135.166 182.553 144.514 181.753 157.114C189.553 148.807 198.003 148.243 201.253 148.999ZM180.554 156.499C178.87 151.416 174.703 140.749 171.503 138.749C170.511 142.332 167.226 149.749 162.016 150.749" stroke="#044249" stroke-width="2" stroke-linecap="round" stroke-linejoin="round"/>
<path d="M75.5052 61.9997C67.5052 73.5997 73.588 82.083 77.7547 85.2497C80.8812 88.4997 100.255 90.2497 103.005 86.7497C105.562 83.4957 106.255 78.4997 105.505 68.4997C104.755 58.4997 85.5052 47.4997 75.5052 61.9997Z" stroke="#044249" stroke-width="2" stroke-linecap="round" stroke-linejoin="round"/>
<path d="M164.826 59.5803C175.95 71.5707 169.503 81.5332 164.505 85.4997C149.755 90.4997 143.505 89.7497 139.505 85.9997C136.305 82.9997 136.338 73.083 136.755 68.4997C139.945 54.3727 152.272 53.329 160.677 56.6619C162.265 57.2913 163.665 58.3286 164.826 59.5803Z" stroke="#044249" stroke-width="2" stroke-linecap="round" stroke-linejoin="round"/>
<path d="M210.754 188.999C201.955 193.599 197.588 188.582 196.505 185.499C207.255 191.499 213.083 185.749 211.254 177.749C215.854 182.349 212.838 187.166 210.754 188.999Z" fill="black" fill-opacity="0.15"/>
<path d="M206.505 167.749C215.004 181.999 199.088 181.582 192.755 176.999C192.588 177.749 192.955 179.699 195.755 181.499C199.255 183.749 204.005 182.749 205.505 182.499C207.005 182.249 208.005 180.999 209.754 179.499C211.154 178.299 211.338 175.166 211.254 173.749L209.754 170.499L206.505 167.749Z" fill="black" fill-opacity="0.15"/>
<path d="M158.599 71.8652C159.516 78.9798 156.738 82.5627 153.814 86.164C153.485 86.5685 153.894 87.0809 154.344 86.818C160.681 83.114 161.104 77.0622 159.464 71.5887C159.29 71.0082 158.522 71.2641 158.599 71.8652Z" fill="#F2B25A"/>
<path d="M84.7652 71.433C83.0209 78.5525 85.6155 82.4064 88.3566 86.2985C88.6569 86.7249 88.2106 87.2097 87.7781 86.9183C81.3591 82.5947 81.5851 76.4138 83.9281 71.0531C84.1702 70.4992 84.909 70.846 84.7652 71.433Z" fill="#F2B25A"/>
<path d="M100.75 202.75C96.35 209.55 89.25 206.75 86.25 204.5C86.9167 208.083 90.6 213.6 100 207C101.083 208.25 103.8 210.2 106 208C108.2 205.8 109.083 205.417 109.25 205.5H111.5C112.75 205.167 115 203.4 114 199C113.083 200.333 111 202.6 110 201C108.25 202.833 103.95 205.75 100.75 202.75Z" fill="black" fill-opacity="0.15"/>
<path d="M103.248 194C92.498 169 93.498 172.5 89.748 169.25H91.248L93.498 170.5L95.748 173.5L97.998 177.75L101.498 186.25L104.498 191.5L105.248 192.5L108.998 194.5L111.998 196.5L113.498 197.75L113.972 199.173L112.498 200.75C111.898 196.15 106.248 195 103.248 194Z" fill="black" fill-opacity="0.15"/>
<path d="M132.751 200.75C129.351 202.75 128.167 200.583 128.001 199.25C127.251 200.167 126.801 202.7 131.001 205.5C135.201 208.3 138.417 208.667 139.501 208.5L142.001 207.5L144.501 209.5L151.501 209.75C153.084 209.5 156.151 207.75 155.751 202.75C153.251 205.5 147.201 207.85 142.001 203.25C139.667 204 134.55 204.55 132.751 200.75Z" fill="black" fill-opacity="0.15"/>
<path d="M91 207.75C91 206 95.25 204.25 96.75 207.75C96.5 214.333 94.25 219.25 91 207.75Z" fill="#F8F3D6"/>
<path d="M109.75 202.75C106.766 202.087 105.179 204.126 104.533 205.793C104.334 206.308 104.694 206.847 105.172 207.123C106.054 207.631 107.016 208.551 107.915 209.524C109.026 210.726 110.961 210.235 111.089 208.603C111.39 204.758 110.525 203.008 109.75 202.75Z" fill="#F8F3D6"/>
<path d="M151.5 208.25C149.3 203.05 146.25 205.75 145 207.75C145 210.314 145.357 212.279 145.879 213.667C146.448 215.177 148.204 214.934 149.055 213.563C150.954 210.506 151.769 208.788 151.5 208.25Z" fill="#F8F3D6"/>
<path d="M138.353 204.335C137.076 201.793 133.87 202.161 132.25 202.75C131.207 203.42 130.192 205.807 131.985 210.303C132.28 211.043 133.28 211.08 133.698 210.402C134.761 208.682 136.185 206.659 137.585 205.855C138.136 205.539 138.638 204.903 138.353 204.335Z" fill="#F8F3D6"/>
<path d="M91 207.75C91 206 95.25 204.25 96.75 207.75C96.5 214.333 94.25 219.25 91 207.75Z" stroke="#A29F87"/>
<path d="M109.75 202.75C106.766 202.087 105.179 204.126 104.533 205.793C104.334 206.308 104.694 206.847 105.172 207.123C106.054 207.631 107.016 208.551 107.915 209.524C109.026 210.726 110.961 210.235 111.089 208.603C111.39 204.758 110.525 203.008 109.75 202.75Z" stroke="#A29F87"/>
<path d="M151.5 208.25C149.3 203.05 146.25 205.75 145 207.75C145 210.314 145.357 212.279 145.879 213.667C146.448 215.177 148.204 214.934 149.055 213.563C150.954 210.506 151.769 208.788 151.5 208.25Z" stroke="#A29F87"/>
<path d="M138.353 204.335C137.076 201.793 133.87 202.161 132.25 202.75C131.207 203.42 130.192 205.807 131.985 210.303C132.28 211.043 133.28 211.08 133.698 210.402C134.761 208.682 136.185 206.659 137.585 205.855C138.136 205.539 138.638 204.903 138.353 204.335Z" stroke="#A29F87"/>
<path d="M194.254 190.25C175.254 206.05 157.004 206 157.004 200L155.754 200.75V205.5C156.671 206.333 158.854 208.05 160.254 208.25C162.004 208.5 164.504 209.25 166.504 208.5C168.504 207.75 173.504 206.75 174.504 205.75C177.087 204.666 182.854 201.9 185.254 199.5L193.754 195.75L195.004 195.5C195.337 196.5 196.904 198.6 200.504 199C204.104 199.4 206.837 198.5 207.754 198C209.087 196.583 211.554 193 210.754 190C208.754 195.5 199.754 200.5 194.254 190.25Z" fill="black" fill-opacity="0.15"/>
<path d="M45.7512 185.75C33.7507 193 29.0005 183.5 30.2512 179C29.7509 179.75 28.7004 181.3 28.5004 181.5C28.3004 181.7 28.5838 184.25 28.7504 185.5L31.2504 188.75L35.5004 190.75C36.5004 191.35 39.2504 190.833 40.5004 190.5L44.2505 188.75L45.7512 185.75Z" fill="black" fill-opacity="0.15"/>
<path d="M47.75 190.5C44.5 198.5 35.75 195.583 32 193.25C33.25 197.083 38.05 203 47.25 196C50.3333 197.083 56.8 199.65 58 201.25C62.25 203.833 71.5 208.85 74.5 208.25C77.3333 208.667 83.7 208.85 86.5 206.25V201.25L85.5 199.5C82.5 205.25 65.15 204.1 47.75 190.5Z" fill="black" fill-opacity="0.15"/>
<path d="M49.2486 176.75C39.9986 187.75 30.25 176.25 34.5 168.25L31.75 171.25L31.25 174.5L31.75 176.75L33 179.5L35.75 182.25L40 183.5L44 183.25L47.25 181.75L48.75 179.75L49.2486 176.75Z" fill="black" fill-opacity="0.15"/>
<path d="M150.5 169.75H152.5C150 170.5 148.5 174.25 138.75 193.75C132.55 194.55 129.667 199.167 129 201.25C128.8 201.25 128.083 200 127.75 199.5L129.25 197.25L131 195.75L133.5 194L135.75 192.75L137.75 192.25L139.25 189.5L143.75 179.25L146 174.75L148.5 171L150.5 169.75Z" fill="black" fill-opacity="0.15"/>
<path d="M133.246 130.809C124.267 137.498 115.892 135.494 110.52 131.608C109.593 130.938 110.478 129.912 111.529 130.362C118.959 133.541 126.402 131.791 132.317 129.384C133.355 128.962 134.144 130.139 133.246 130.809Z" fill="#FCF6DD"/>
<path d="M93.5 214C94.2997 214.6 94.8335 214.583 95.0004 214.5C92.0005 211.7 92.0838 207.666 92.5004 206L91 207.5L91.25 208.5L92 210.25L93.5 214Z" fill="#A29F87" fill-opacity="0.53"/>
<path d="M110 211.25C109 208.05 106.75 205.083 105.75 204L104.25 206.5L107.5 209L109.25 211L110 211.25Z" fill="#A29F87" fill-opacity="0.53"/>
<path d="M116.5 205L119 206.25C117 202.25 115.25 202.416 114.5 203C114.5 203.25 114.333 203.666 114.25 204L116.5 205Z" fill="#A29F87" fill-opacity="0.53"/>
<path d="M128.5 204.25C128.3 204.05 127.917 203.5 127.75 203.25C125.15 203.65 123.833 205.916 123.5 207L126.25 205.5L128.5 204.25Z" fill="#A29F87" fill-opacity="0.53"/>
<path d="M138.25 204.25C133.25 205.25 132.5 209.5 132.75 211.5L134.75 209L135.75 207.5L137.25 206.25L138.25 205.5L138.5 205L138.25 204.25Z" fill="#A29F87" fill-opacity="0.53"/>
<path d="M149.25 205.75C151.65 207.75 148.917 212.916 147.25 215.25H147.75L149 213.75L150.25 211.5L150.75 210.75L151.25 209.25L151.5 208L150 206L149 205.5L149.25 205.75Z" fill="#A29F87" fill-opacity="0.53"/>
<path d="M81.5 82.5C76.7495 81.25 73 76.25 72.2505 69.5C71.0005 71.5 71.7505 75.5 72.2505 78C72.6505 80 76.4171 84.1667 78.2505 86L82.2505 87.5L85.7505 88L81.5 82.5Z" fill="black" fill-opacity="0.1"/>
<path d="M170.75 75C169.35 77.2 163.5 81.75 160.75 83.75L157.75 87.75L164.75 85.5C167.95 83.3 170.083 77.5833 170.75 75Z" fill="black" fill-opacity="0.1"/>
<path d="M118.276 32.3677C116.648 34.4759 115.359 36.8616 117.499 39C119.5 41 122.249 41.25 123.749 40C121.8 39.4003 120.712 35.9537 120.255 32.9666C120.114 32.0457 118.845 31.6303 118.276 32.3677Z" fill="#D8CFAC" fill-opacity="0.54"/>
<path d="M119.284 50.2034C118.562 51.6875 117.923 53.1917 119.5 54.2499C120.576 54.9717 121 54.9999 122.5 53.9999C121.164 53.9804 120.657 52.0111 120.218 50.2844C120.104 49.8339 119.487 49.7854 119.284 50.2034Z" fill="#D8CFAC" fill-opacity="0.54"/>
<path d="M164.929 27.7417C161.834 31.9075 156.167 34.6942 153 35.75L162 42.25C165.648 35.5794 167.304 30.9955 167.818 27.9463C168.203 25.6622 166.311 25.8826 164.929 27.7417Z" fill="black" fill-opacity="0.2"/>
<path d="M74.8662 24.8699C78.198 30.1496 84.9556 35.7795 88.252 36.75L79.752 42.25C75.4457 35.2947 73.2523 29.11 72.5902 25.1065C72.2292 22.9237 73.6854 22.9988 74.8662 24.8699Z" fill="black" fill-opacity="0.2"/>
</svg>
