<svg width="25" height="25" viewBox="0 0 25 25" fill="none" xmlns="http://www.w3.org/2000/svg">
<path fillRule="evenodd" clipRule="evenodd" d="M3.80948 18.8689L2.68917 18.9821C1.66207 19.0857 -0.323125 18.7077 -0.703394 18.3359C-1.09075 17.9573 -2.00344 14.9229 -1.78857 14.7284C-1.75879 14.7016 -1.48358 14.8398 -1.17693 15.0356C0.0726857 15.8336 1.79722 16.2317 3.89599 16.2069C6.89922 16.1711 8.94901 15.7769 10.9691 14.1539C11.2844 13.9007 11.8769 13.4691 11.8952 13.5315C11.9674 13.7779 11.3594 15.0374 10.6055 15.8288C9.25704 17.2441 6.15418 18.6321 3.80948 18.8689ZM11.5807 13.1694C10.8967 13.8152 9.19665 14.4298 7.61512 14.6027C6.40801 14.7348 5.70941 14.7048 4.32601 14.4615C2.3126 14.1075 0.33952 13.2789 -0.908587 12.263C-1.96899 11.4001 -2.05593 11.214 -1.92692 10.0854C-1.82292 9.17623 -1.41394 7.63011 -1.23864 7.48314C-1.19207 7.44418 -1.13488 7.47223 -1.11158 7.54559C-1.00839 7.87022 -0.430567 8.67808 0.146171 9.30394C1.68269 10.971 4.25787 12.33 6.90191 12.869C7.99752 13.0923 10.2141 13.1568 10.9691 12.9874C11.8706 12.7852 11.9595 12.8117 11.5807 13.1694ZM11.6644 12.3596C11.6634 12.3839 11.4978 12.4429 11.2964 12.4909C10.6385 12.6477 9.0752 12.5332 8.14421 12.2599C7.11346 11.9572 5.63733 11.1842 4.46608 10.3336C2.90423 9.19936 1.18172 6.99444 0.678471 5.48504C0.340131 4.47015 0.339996 4.31114 0.678076 3.79638C1.02199 3.27265 2.82123 1.37874 2.96891 1.38508C3.02158 1.38734 3.05206 1.72225 3.03672 2.1292C2.99886 3.12804 3.18937 4.02941 3.67689 5.15754C5.0092 8.23987 8.0723 11.1338 11.0333 12.1076C11.3814 12.2221 11.6654 12.3355 11.6644 12.3596ZM11.6352 11.4268C11.7867 11.5807 11.9099 11.7438 11.9092 11.789C11.9038 12.091 10.5091 11.4895 9.52606 10.7613C7.94694 9.59149 6.52437 7.24166 5.88651 4.74973C5.67217 3.91212 5.63397 3.4752 5.6504 2.04927C5.67824 -0.367078 5.68286 -0.376212 7.19666 -1.03572C8.30955 -1.52061 10.085 -2.02175 10.2113 -1.88664C10.2419 -1.85381 10.153 -1.66128 10.0138 -1.45885C9.8746 -1.2563 9.58297 -0.685632 9.36575 -0.190609C8.99631 0.651571 8.96402 0.81512 8.86335 2.35196C8.74008 4.23384 8.81322 4.9974 9.29126 6.81758C9.77914 8.6753 10.6897 10.4661 11.6352 11.4268ZM12.7156 10.8535L12.7147 10.8559C12.698 10.9023 12.6808 10.9562 12.6631 11.0114C12.5765 11.2817 12.48 11.5828 12.3956 11.1853C12.2505 10.5014 12.2997 9.10507 12.4965 8.32783C12.6938 7.54843 13.3296 6.15745 13.8512 5.36375C15.6782 2.58367 18.4152 0.66513 21.0013 0.351772C21.2215 0.325059 21.4133 0.502398 21.404 0.724055L21.3561 1.86776L21.3198 2.73464C21.3024 3.15071 21.0157 3.50629 20.6129 3.61123C19.2835 3.95769 17.29 5.20439 15.8224 6.60721C15.788 6.64015 15.7536 6.67302 15.7192 6.70584C14.4228 7.94444 13.2135 9.09976 12.8786 10.3542C12.8312 10.5315 12.7433 10.7764 12.7156 10.8535ZM11.8625 7.32847C11.703 8.07634 11.6732 9.78335 11.8076 10.467C11.9819 11.3534 11.1894 10.1761 10.86 9.05916C10.4991 7.83577 10.4156 6.75661 10.547 5.01267C10.6931 3.07116 11.0567 1.66947 11.6945 0.589221C11.8977 0.245241 12.0658 -0.0810287 12.0681 -0.135831C12.0741 -0.270971 12.9752 -1.35254 13.379 -1.70921C13.6596 -1.95708 13.7945 -1.9929 14.3463 -1.96613C14.9803 -1.9355 16.8076 -1.62786 17.3941 -1.45301C17.7991 -1.33228 17.7723 -1.24196 17.2691 -1.03144C16.8809 -0.869009 16.3314 -0.516181 15.6506 0.00801694C15.2188 0.340315 14.1885 1.63002 13.6457 2.51758C12.8034 3.89486 12.3118 5.22121 11.8625 7.32847ZM20.8584 5.70478L21.9731 5.54361C22.995 5.39605 24.994 5.68854 25.3893 6.04368C25.7919 6.40528 26.8289 9.39788 26.6222 9.6014C26.5936 9.62949 26.3129 9.50321 25.9984 9.32076C24.717 8.57702 22.9776 8.25326 20.8817 8.36813C17.8826 8.5327 15.1781 9.55576 13.2267 11.264C12.9222 11.5305 12.656 11.6983 12.6352 11.6368C12.5528 11.3938 13.4732 9.85681 14.1938 9.03375C15.4827 7.56186 18.5256 6.04192 20.8584 5.70478ZM13.329 11.7327C13.9858 11.058 15.659 10.371 17.232 10.1304C18.4326 9.94666 19.1318 9.94666 20.524 10.1304C22.5503 10.3977 24.5557 11.141 25.8446 12.1024C26.9397 12.9191 27.0342 13.1012 26.9518 14.2344C26.8854 15.1472 26.5405 16.7095 26.3714 16.8639C26.3265 16.9048 26.2682 16.8792 26.2419 16.8069C26.1254 16.487 25.5148 15.7046 24.9128 15.1041C23.3089 13.5044 20.68 12.2571 18.0161 11.8321C16.9122 11.656 14.6949 11.6866 13.9476 11.8882C13.0552 12.1289 12.9653 12.1063 13.329 11.7327ZM13.2788 12.5453C13.2788 12.521 13.4418 12.455 13.641 12.3984C14.2919 12.2134 15.8585 12.2608 16.8 12.4939C17.8423 12.7521 19.349 13.461 20.5542 14.2607C22.1615 15.3269 23.9733 17.456 24.5384 18.9425C24.9182 19.9419 24.9249 20.1008 24.6084 20.6296C24.2863 21.1676 22.5667 23.1371 22.4189 23.1371C22.3662 23.1371 22.322 22.8037 22.3205 22.3965C22.3172 21.3969 22.0897 20.5045 21.5561 19.3983C20.0979 16.3759 16.9182 13.616 13.9197 12.77C13.5672 12.6706 13.2788 12.5694 13.2788 12.5453ZM13.3464 13.4761C13.1887 13.3287 13.0588 13.1711 13.0577 13.1259C13.0507 12.824 14.4689 13.3651 15.4811 14.0504C17.1071 15.1515 18.6252 17.4382 19.3652 19.9006C19.6139 20.7282 19.6701 21.1631 19.7124 22.5885C19.7842 25.0039 19.78 25.0132 18.2947 25.7371C17.2028 26.2693 15.4496 26.8462 15.3178 26.7166C15.2859 26.6851 15.3667 26.489 15.4975 26.2807C15.6282 26.0724 15.8961 25.4897 16.0927 24.9858C16.4271 24.1285 16.4526 23.9637 16.4899 22.4239C16.5355 20.5384 16.4309 19.7787 15.8783 17.9806C15.3142 16.1455 14.3307 14.3954 13.3464 13.4761ZM12.2271 13.9824C12.2676 13.8014 12.3199 13.5916 12.3435 13.5161C12.4304 13.2384 12.5932 13.392 12.7144 13.8659C12.8877 14.543 12.7782 15.8242 12.6136 16.6092C12.4486 17.3964 11.8707 18.8134 11.3823 19.6288C9.67151 22.4848 6.03248 24.5191 3.46164 24.9431C3.24276 24.9793 3.04377 24.8103 3.04391 24.5885L3.04465 23.4437L3.04514 22.576C3.04538 22.1596 3.31723 21.792 3.71534 21.6699C5.02929 21.2667 7.95304 19.9356 9.36152 18.471C10.6427 17.1388 11.9367 15.2837 12.2271 13.9824ZM13.2882 17.5805C13.4168 16.8264 13.3762 15.1197 13.2137 14.4424C13.003 13.5643 13.8433 14.7065 14.2185 15.8083C14.6295 17.0152 14.7575 18.0898 14.6981 19.8378C14.6321 21.7839 14.3265 23.1999 13.7339 24.3066C13.5451 24.659 13.3906 24.9922 13.3904 25.047C13.3901 25.1823 12.5344 26.3016 12.1456 26.6752C11.8755 26.9349 11.7422 26.9765 11.1898 26.9734C10.5551 26.97 8.7167 26.7411 8.12348 26.5915C7.71384 26.4883 7.73691 26.3969 8.23104 26.165C8.61214 25.986 9.14662 25.6099 9.80527 25.057C10.2229 24.7065 11.1991 23.3737 11.7049 22.4636C12.4897 21.0514 12.9262 19.7052 13.2882 17.5805Z" fill="url(#paint0_radial_103_775)"/>
<defs>
<radialGradient id="paint0_radial_103_775" cx="0" cy="0" r="1" gradientUnits="userSpaceOnUse" gradientTransform="translate(12.5009 12.5) rotate(90) scale(14.4736)">
<stop stop-color="#D92A00"/>
<stop offset="0.0552082" stop-color="#D90027"/>
<stop offset="0.33044" stop-color="#E10000"/>
<stop offset="0.628125" stop-color="#EF0303"/>
<stop offset="0.919792" stop-color="#B60606"/>
</radialGradient>
</defs>
</svg>
