<svg width="238" height="70" viewBox="0 0 238 70" fill="none" xmlns="http://www.w3.org/2000/svg">
<path d="M100.044 32H85.1639L82.0839 39H77.9639L90.6439 11H94.6039L107.324 39H103.124L100.044 32ZM98.6439 28.8L92.6039 15.08L86.5639 28.8H98.6439ZM114.621 21.36C115.287 20.1333 116.274 19.2 117.581 18.56C118.887 17.92 120.474 17.6 122.341 17.6V21.32C122.127 21.2933 121.834 21.28 121.461 21.28C119.381 21.28 117.741 21.9067 116.541 23.16C115.367 24.3867 114.781 26.1467 114.781 28.44V39H110.941V17.8H114.621V21.36ZM127.074 17.8H130.914V39H127.074V17.8ZM128.994 13.72C128.247 13.72 127.62 13.48 127.114 13C126.634 12.52 126.394 11.9333 126.394 11.24C126.394 10.5467 126.634 9.96 127.114 9.48C127.62 8.97333 128.247 8.72 128.994 8.72C129.74 8.72 130.354 8.96 130.834 9.44C131.34 9.89333 131.594 10.4667 131.594 11.16C131.594 11.88 131.34 12.4933 130.834 13C130.354 13.48 129.74 13.72 128.994 13.72ZM147.325 39.24C145.219 39.24 143.325 38.7733 141.645 37.84C139.965 36.9067 138.645 35.6267 137.685 34C136.752 32.3467 136.285 30.48 136.285 28.4C136.285 26.32 136.752 24.4667 137.685 22.84C138.645 21.1867 139.965 19.9067 141.645 19C143.325 18.0667 145.219 17.6 147.325 17.6C149.432 17.6 151.312 18.0667 152.965 19C154.645 19.9067 155.952 21.1867 156.885 22.84C157.845 24.4667 158.325 26.32 158.325 28.4C158.325 30.48 157.845 32.3467 156.885 34C155.952 35.6267 154.645 36.9067 152.965 37.84C151.312 38.7733 149.432 39.24 147.325 39.24ZM147.325 35.88C148.685 35.88 149.899 35.5733 150.965 34.96C152.059 34.32 152.912 33.44 153.525 32.32C154.139 31.1733 154.445 29.8667 154.445 28.4C154.445 26.9333 154.139 25.64 153.525 24.52C152.912 23.3733 152.059 22.4933 150.965 21.88C149.899 21.2667 148.685 20.96 147.325 20.96C145.965 20.96 144.739 21.2667 143.645 21.88C142.579 22.4933 141.725 23.3733 141.085 24.52C140.472 25.64 140.165 26.9333 140.165 28.4C140.165 29.8667 140.472 31.1733 141.085 32.32C141.725 33.44 142.579 34.32 143.645 34.96C144.739 35.5733 145.965 35.88 147.325 35.88Z" fill="#03A66D"/>
<path d="M101.336 61V50.824H97.3999V49.8H106.456V50.824H102.52V61H101.336ZM108.107 61V52.6H109.243V61H108.107ZM108.683 50.744C108.449 50.744 108.251 50.664 108.091 50.504C107.931 50.344 107.851 50.152 107.851 49.928C107.851 49.704 107.931 49.5173 108.091 49.368C108.251 49.208 108.449 49.128 108.683 49.128C108.918 49.128 109.115 49.2027 109.275 49.352C109.435 49.5013 109.515 49.688 109.515 49.912C109.515 50.1467 109.435 50.344 109.275 50.504C109.126 50.664 108.929 50.744 108.683 50.744ZM115.972 61.08C115.098 61.08 114.33 60.8987 113.668 60.536C113.007 60.1627 112.49 59.656 112.116 59.016C111.743 58.3653 111.556 57.624 111.556 56.792C111.556 55.96 111.732 55.224 112.084 54.584C112.447 53.944 112.938 53.4427 113.556 53.08C114.186 52.7067 114.89 52.52 115.668 52.52C116.458 52.52 117.156 52.7013 117.764 53.064C118.383 53.416 118.868 53.9173 119.22 54.568C119.572 55.208 119.748 55.9493 119.748 56.792C119.748 56.8453 119.743 56.904 119.732 56.968C119.732 57.0213 119.732 57.08 119.732 57.144H112.42V56.296H119.124L118.676 56.632C118.676 56.024 118.543 55.4853 118.276 55.016C118.02 54.536 117.668 54.1627 117.22 53.896C116.772 53.6293 116.255 53.496 115.668 53.496C115.092 53.496 114.575 53.6293 114.116 53.896C113.658 54.1627 113.3 54.536 113.044 55.016C112.788 55.496 112.66 56.0453 112.66 56.664V56.84C112.66 57.48 112.799 58.0453 113.076 58.536C113.364 59.016 113.759 59.3947 114.26 59.672C114.772 59.9387 115.354 60.072 116.004 60.072C116.516 60.072 116.991 59.9813 117.428 59.8C117.876 59.6187 118.26 59.3413 118.58 58.968L119.22 59.704C118.847 60.152 118.378 60.4933 117.812 60.728C117.258 60.9627 116.644 61.08 115.972 61.08ZM122.061 61V52.6H123.149V54.888L123.037 54.488C123.271 53.848 123.666 53.3627 124.221 53.032C124.775 52.6907 125.463 52.52 126.285 52.52V53.624C126.242 53.624 126.199 53.624 126.157 53.624C126.114 53.6133 126.071 53.608 126.029 53.608C125.143 53.608 124.45 53.88 123.949 54.424C123.447 54.9573 123.197 55.72 123.197 56.712V61H122.061ZM131.726 58.056V57.224L137.662 49.8H138.942L133.054 57.224L132.43 57.032H141.438V58.056H131.726ZM138.046 61V58.056L138.078 57.032V54.44H139.198V61H138.046Z" fill="#505050"/>
</svg>
