<svg width="389" height="683" viewBox="0 0 389 683" fill="none" xmlns="http://www.w3.org/2000/svg">
<rect x="1" y="114" width="387" height="568" rx="19" fill="#EEFAFF"/>
<rect x="1" y="114" width="387" height="568" rx="19" stroke="white" stroke-width="2"/>
<path d="M162.943 107.855L159.678 110.246L161.194 112.286L172.97 112.17L176.76 106.806L176.294 106.223L162.943 107.855Z" fill="#B48FEE"/>
<path d="M227.249 112.17L217.105 111.995L215.414 108.905C216.16 107.692 221.983 108.866 224.801 109.604L227.249 112.17Z" fill="#B48FEE"/>
<path d="M162.943 107.855L159.678 110.246L161.194 112.286L172.97 112.17L176.76 106.806L176.294 106.223L162.943 107.855Z" stroke="black"/>
<path d="M227.249 112.17L217.105 111.995L215.414 108.905C216.16 107.692 221.983 108.866 224.801 109.604L227.249 112.17Z" stroke="black"/>
<path d="M142.42 123.13L139.738 123.014L138.222 122.431L137.173 120.215L136.59 116.717L136.24 111.004L137.29 108.555L139.972 107.156L143.936 107.039L146.501 107.272L147.784 107.389L149.067 105.64L151.282 104.474L152.914 104.707L154.78 105.873L156.762 107.739L159.328 109.837L160.96 112.17L158.978 113.452L157.579 116.834L156.179 122.081L154.547 124.18L152.331 124.529L149.999 123.713L148.95 123.13L147.551 124.296L145.568 124.646L143.819 124.296L142.42 123.13Z" fill="#7AF6E9"/>
<path d="M227.074 111.936L229.406 110.304L231.855 108.088L233.837 105.99L235.703 104.824L237.219 104.94L238.851 105.873L240.134 107.855L243.632 107.505H246.897L249.345 107.855L251.094 109.255L251.561 112.636V116.95L250.395 121.498L249.579 122.897L248.063 123.597L245.847 123.48L244.798 124.413L243.049 124.996L240.367 124.646L239.201 123.247L237.802 124.413L235.819 124.879L233.837 124.413L231.972 122.78L231.272 120.448L230.456 117.3L228.823 113.802L227.074 111.936Z" fill="#7AF6E9"/>
<path d="M140.088 40.6919L143.353 41.1583L146.618 42.2077L150.466 43.7236L153.964 45.356L155.363 46.0556L155.946 43.7236L157.812 39.2927L160.727 34.1621L163.875 30.7806L167.256 27.8656L172.037 25.0671L176.701 23.6678L180.899 22.8516L185.097 22.6184L187.779 22.8516L187.079 26.3497L187.312 29.3814L188.128 31.7135C188.128 31.7135 190.46 37.7768 197.573 37.8934C204.686 38.01 209.583 32.2965 209.817 25.4169C209.817 25.4169 215.413 26.3497 220.194 29.6146C220.194 29.6146 225.325 32.6463 228.706 38.2432C228.706 38.2432 232.438 45.0062 232.554 48.9707C232.554 48.9707 240.133 44.5398 248.645 44.4232C248.645 44.4232 239.317 49.2039 238.034 53.6349C238.034 53.6349 235.586 58.7654 245.497 58.882C245.497 58.882 237.918 60.1646 236.985 64.5956C236.985 64.5956 236.402 67.394 241.533 70.3091L235.353 70.7755L236.402 75.323L236.868 80.4536C236.868 80.4536 238.618 92.6969 229.173 99.8097C229.173 99.8097 222.41 105.173 216.346 106.573L205.502 109.604L202.471 111.587C202.471 111.587 196.174 118.35 185.213 112.636L181.599 110.304L178.334 107.272L176.701 106.223L170.638 103.891L165.624 101.909L161.426 99.4599L157.229 96.4282L153.73 92.9301L151.981 89.432L150.116 84.5347L149.533 79.6374L150.116 74.8566L151.398 69.7261L151.865 67.6272L149.183 67.1608L145.685 67.0442L148.6 65.5284L150.582 63.1963L150.699 61.3307L149.416 59.5816L146.734 57.4828L143.003 55.2673L146.967 54.9175L149.883 52.9352L150.349 51.4194L149.066 48.2711L145.452 44.6564L142.653 42.9074L140.088 40.6919Z" fill="#7AF6E9"/>
<path d="M226.141 53.9964C226.141 53.9964 224.089 50.6382 221.943 49.3206C221.943 49.3206 217.267 45.391 210.901 47.6881C210.901 47.6881 205.782 51.5477 210.598 53.1218C210.598 53.1218 212.207 52.8886 216.148 51.501C216.148 51.501 219.926 50.2534 226.141 53.9964Z" fill="#6CE5D7"/>
<path d="M208.558 50.8948C208.558 50.8948 211.123 51.4311 213.618 50.5566C214.784 50.1485 216.009 49.9503 217.221 50.0552C219.308 50.2301 222.375 51.0463 225.687 53.8681L221.501 51.8159L216.417 51.3728L211.659 53.0169L209.362 52.982L208.558 50.8948Z" fill="#64D8C7"/>
<path d="M213.746 47.0234C214.236 46.8602 214.737 46.7786 215.239 46.7436C215.74 46.7086 216.253 46.7086 216.766 46.7669C217.023 46.8019 217.268 46.8369 217.524 46.8952C217.652 46.9302 217.769 46.9535 217.897 46.9885C218.025 47.0235 218.142 47.0701 218.259 47.1167C218.737 47.3033 219.203 47.5598 219.565 47.933C219.075 47.7697 218.608 47.6531 218.142 47.5598C218.025 47.5365 217.897 47.5132 217.781 47.4899L217.419 47.4316C217.302 47.4082 217.174 47.3966 217.058 47.3849C216.941 47.3733 216.813 47.3499 216.696 47.3383C216.218 47.28 215.728 47.2333 215.239 47.1867C214.749 47.1517 214.247 47.1051 213.746 47.0234Z" fill="#D5FFFD"/>
<path d="M214.119 46.9535C213.56 47.0235 213 47.1401 212.452 47.28C212.184 47.3499 211.904 47.4316 211.647 47.5248C211.507 47.5715 211.379 47.6181 211.251 47.6648L211.053 47.7347C210.983 47.7581 210.924 47.793 210.866 47.8164C210.376 48.0496 209.957 48.3994 209.63 48.8308C209.304 49.2622 209.082 49.7636 208.965 50.2883C208.837 50.8131 208.826 51.3611 209.012 51.8042C209.199 52.2473 209.618 52.5621 210.096 52.7487C210.33 52.842 210.586 52.8886 210.831 52.9003C211.088 52.9119 211.332 52.8886 211.577 52.8186C211.822 52.7603 212.055 52.6554 212.277 52.5271L212.464 52.4222C212.522 52.3872 212.592 52.3522 212.662 52.3173C212.79 52.2473 212.918 52.1773 213.058 52.119C214.108 51.606 215.25 51.2562 216.405 51.0929C217.571 50.9297 218.748 50.953 219.903 51.1512C220.474 51.2445 221.046 51.3961 221.605 51.571C222.165 51.7459 222.701 51.9674 223.226 52.2006C224.275 52.6904 225.267 53.3084 226.188 53.9847L225.85 54.2878C225.605 53.8214 225.325 53.3667 225.022 52.9236C224.719 52.4805 224.404 52.0491 224.054 51.6293C223.716 51.2095 223.354 50.8131 222.981 50.4283C222.608 50.0435 222.2 49.6704 221.792 49.3205C222.235 49.6354 222.678 49.9502 223.086 50.3117C223.296 50.4866 223.494 50.6731 223.692 50.8597C223.786 50.953 223.891 51.0579 223.984 51.1512C224.077 51.2445 224.17 51.3494 224.264 51.4427C224.637 51.8392 224.998 52.259 225.325 52.6904C225.663 53.1335 225.966 53.5766 226.258 54.0546L226.771 54.9292L225.908 54.3461C224.975 53.7165 223.996 53.1685 222.969 52.7254C222.456 52.5038 221.932 52.3172 221.407 52.154C220.871 52.0024 220.334 51.8858 219.786 51.7925C218.702 51.6176 217.582 51.606 216.498 51.7576C215.414 51.9091 214.341 52.224 213.35 52.702C213.221 52.7603 213.105 52.8186 212.977 52.8886L212.603 53.0868C212.335 53.2384 212.032 53.355 211.729 53.425C211.426 53.4949 211.099 53.5183 210.784 53.5066C210.47 53.4949 210.155 53.4133 209.863 53.2967C209.572 53.1801 209.292 53.0169 209.059 52.7953C208.814 52.5738 208.616 52.3056 208.499 51.9908C208.382 51.6876 208.336 51.3611 208.347 51.0579C208.359 50.7431 208.406 50.4516 208.487 50.1601C208.651 49.5771 208.93 49.0407 209.315 48.5859C209.7 48.1312 210.19 47.7581 210.749 47.5482C211.309 47.3616 211.857 47.2217 212.417 47.1167C212.977 47.0234 213.548 46.9768 214.119 46.9535Z" fill="#64D8C7"/>
<path d="M162.487 52.1774C162.487 52.1774 164.353 48.9824 166.324 47.7231C166.324 47.7231 170.591 43.9802 176.41 46.1723C176.41 46.1723 181.086 49.8453 176.69 51.3495C176.69 51.3495 175.22 51.1279 171.617 49.8103C171.606 49.8103 168.154 48.621 162.487 52.1774Z" fill="#6CE5D7"/>
<path d="M178.544 49.2273C178.544 49.2273 176.2 49.7403 173.914 48.9124C172.842 48.5276 171.734 48.3411 170.626 48.4344C168.714 48.5976 165.916 49.3788 162.896 52.0607L166.72 50.1018L171.373 49.6703L175.722 51.2328L177.821 51.2095L178.544 49.2273Z" fill="#64D8C7"/>
<path d="M173.809 45.5426C173.343 45.6242 172.888 45.6709 172.445 45.7175C172.002 45.7642 171.547 45.8108 171.116 45.8691C170.673 45.9274 170.241 45.9857 169.81 46.0673C169.378 46.1606 168.947 46.2656 168.504 46.4171C168.819 46.0557 169.239 45.8108 169.682 45.6242C170.125 45.4493 170.591 45.3444 171.058 45.2861C171.524 45.2278 171.99 45.2278 172.457 45.2628C172.9 45.3094 173.355 45.3794 173.809 45.5426Z" fill="#D5FFFD"/>
<path d="M173.459 45.4844C173.984 45.496 174.509 45.5543 175.034 45.6476C175.29 45.6943 175.547 45.7526 175.803 45.8225C175.931 45.8575 176.06 45.8925 176.188 45.9275L176.375 45.9858L176.573 46.0557C177.086 46.2656 177.541 46.6154 177.879 47.0469C178.229 47.4783 178.485 47.9797 178.625 48.5161C178.695 48.7842 178.753 49.0641 178.765 49.3439C178.777 49.6354 178.742 49.927 178.66 50.2185C178.567 50.51 178.403 50.7782 178.194 50.9997C177.984 51.2213 177.727 51.3845 177.459 51.5011C176.923 51.7576 176.305 51.8159 175.722 51.6877C175.43 51.6294 175.162 51.5244 174.905 51.3845L174.556 51.1863C174.451 51.128 174.334 51.0697 174.217 51.0114C173.763 50.7782 173.296 50.5916 172.818 50.44C172.34 50.2884 171.839 50.1718 171.337 50.1019C170.334 49.9503 169.32 49.9503 168.317 50.1252C167.816 50.2068 167.314 50.3234 166.836 50.475C166.347 50.6266 165.869 50.8131 165.402 51.023C164.469 51.4428 163.571 51.9675 162.72 52.5622L161.857 53.1685L162.37 52.259C162.627 51.8043 162.919 51.3845 163.222 50.9647C163.525 50.5449 163.851 50.1485 164.189 49.7754C164.353 49.5771 164.539 49.4022 164.714 49.2157C164.901 49.0408 165.076 48.8542 165.274 48.691C165.647 48.3412 166.055 48.038 166.463 47.7348C166.09 48.073 165.717 48.4228 165.379 48.7959C165.029 49.169 164.703 49.5538 164.399 49.9503C164.085 50.3467 163.805 50.7548 163.525 51.1746C163.257 51.5944 162.988 52.0258 162.779 52.4689L162.429 52.1774C163.268 51.5361 164.166 50.9531 165.134 50.475C165.624 50.2418 166.113 50.0436 166.626 49.8687C167.14 49.7054 167.664 49.5655 168.201 49.4722C169.262 49.2856 170.369 49.2623 171.442 49.4256C171.979 49.5072 172.515 49.6354 173.028 49.8104C173.541 49.9736 174.042 50.1835 174.532 50.44C174.649 50.4983 174.777 50.5683 174.894 50.6382C175.01 50.6965 175.139 50.7898 175.232 50.8365C175.43 50.9531 175.652 51.0463 175.873 51.093C176.316 51.2096 176.794 51.163 177.214 50.9764C177.424 50.8831 177.622 50.7665 177.785 50.6149C177.949 50.4633 178.065 50.2768 178.147 50.0669C178.31 49.6471 178.287 49.1457 178.17 48.6676C178.065 48.1779 177.867 47.7232 177.576 47.315C177.284 46.9069 176.911 46.5688 176.468 46.3472L176.293 46.2656L176.106 46.1957C175.99 46.149 175.861 46.1024 175.745 46.0557C175.5 45.9741 175.255 45.8925 174.999 45.8225C174.497 45.6709 173.984 45.5543 173.459 45.4844Z" fill="#64D8C7"/>
<path d="M193.026 0.580444L193.259 8.15965L193.026 9.55888L190.694 11.6577C190.694 11.6577 184.98 17.6045 187.778 22.8516L187.312 26.3497C187.312 26.3497 185.703 31.8068 192.396 36.4825C192.396 36.4825 200.955 41.5081 207.018 33.1127C207.018 33.1127 209.233 31.0139 209.816 25.4169L211.449 25.5335C211.449 25.5335 209.816 21.3358 213.664 14.9226C213.664 14.9226 210.633 13.7566 206.901 15.7388L204.686 12.2408C204.686 12.2408 204.686 6.87701 207.718 3.02911C207.718 3.02911 202.47 4.07854 200.255 5.94419C200.255 5.94419 196.174 1.39667 193.026 0.580444Z" fill="#B449DB"/>
<path d="M156.996 40.6919C156.996 40.6919 153.498 36.3776 153.614 26.8161C153.614 26.8161 154.314 15.972 156.296 13.5233C156.296 13.5233 158.861 9.79205 161.543 13.5233C161.543 13.5233 164.458 17.2546 165.624 19.8199C165.624 19.8199 169.752 25.4868 171.07 25.5684C171.07 25.5684 165.274 28.5651 162.709 31.5968C162.709 31.5968 157.695 38.4764 156.996 40.6919Z" fill="#67B0E7"/>
<path d="M217.582 28.1687L220.894 25.0671L223.692 22.152L225.674 19.1203L227.657 16.2053L230.338 14.806L232.787 15.8555L234.536 20.1698L235.236 27.6324L234.653 36.0278L232.904 41.9745L231.434 44.0384L228.706 38.2432L224.881 33.206L220.194 29.6146L217.582 28.1687Z" fill="#67B0E7"/>
<path d="M139.972 40.9252L146.222 45.2162L149.883 49.787L150.466 51.6527L149.65 53.4017L148.017 54.4512L144.869 55.2674L142.187 55.384L143.12 52.0025V49.4372L142.537 46.4055L141.488 44.3067L139.622 40.9252H139.972Z" fill="#F09C98"/>
<path d="M142.887 55.7336L144.752 55.9668L146.618 57.2961L150 60.1646L150.816 62.0069L150.023 64.0708L148.6 65.5283L145.685 67.0442L146.268 64.1291L146.035 61.5638L144.636 58.6487L142.887 55.7336Z" fill="#F09C98"/>
<path d="M248.645 44.7731L242.885 48.0146L239.55 50.8364L237.685 53.7515L237.894 55.7921L238.967 57.133L241.089 58.4156L245.847 58.9986L244.797 56.2002L245.147 52.1191L246.08 49.0874L248.645 44.7731Z" fill="#F09C98"/>
<path d="M244.949 59.0336L242.267 59.8148L238.734 61.6805L237.102 64.1291L236.985 65.7616L238.128 67.7088L241.533 70.3091L242.116 70.4257L241.3 67.394L241.766 65.062L242.699 62.7299L244.949 59.0336Z" fill="#F09C98"/>
<path d="M186.729 101.326L184.63 97.7109L181.016 91.2977L183.464 92.3472L188.012 94.2128L191.277 95.029L196.174 95.2622L200.722 94.3294L205.036 91.5309L203.287 95.1456L201.421 98.1773L198.623 101.675L195.708 104.357L193.026 104.94C193.026 104.94 190.46 104.824 189.411 103.774L186.729 101.326Z" fill="#F09C98"/>
<path d="M203.311 36.6458C203.311 36.6458 209.934 33.4625 209.817 25.4169C209.817 25.4169 215.88 26.5829 220.195 29.6146C220.195 29.6146 212.079 35.6313 203.311 36.6458Z" fill="#6CE5D7"/>
<path d="M188.129 31.7135C188.129 31.7135 186.846 29.3814 187.779 22.8516C187.779 22.8516 175.186 20.5429 166.032 28.9267C166.032 28.9267 178.684 25.5335 188.129 31.7135Z" fill="#6CE5D7"/>
<path d="M233.254 52.8186L232.555 48.9707C232.555 48.9707 241.417 44.3066 248.646 44.773C248.646 44.773 235.12 49.5537 233.254 52.8186Z" fill="#6CE5D7"/>
<path d="M139.972 40.9252C139.972 40.9252 147.551 41.0418 155.363 46.0557L153.964 52.5855C153.964 52.5855 144.752 42.6742 139.972 40.9252Z" fill="#6CE5D7"/>
<path d="M180.433 29.9644C181.077 29.9644 181.599 29.4423 181.599 28.7984C181.599 28.1544 181.077 27.6323 180.433 27.6323C179.789 27.6323 179.267 28.1544 179.267 28.7984C179.267 29.4423 179.789 29.9644 180.433 29.9644Z" fill="#6CE5D7"/>
<path d="M171.688 33.6957C172.331 33.6957 172.854 33.1737 172.854 32.5297C172.854 31.8857 172.331 31.3636 171.688 31.3636C171.044 31.3636 170.521 31.8857 170.521 32.5297C170.521 33.1737 171.044 33.6957 171.688 33.6957Z" fill="#6CE5D7"/>
<path d="M185.214 38.01C185.858 38.01 186.38 37.488 186.38 36.844C186.38 36.2 185.858 35.678 185.214 35.678C184.57 35.678 184.048 36.2 184.048 36.844C184.048 37.488 184.57 38.01 185.214 38.01Z" fill="#6CE5D7"/>
<path d="M193.492 45.4727C194.136 45.4727 194.658 44.9506 194.658 44.3067C194.658 43.6627 194.136 43.1406 193.492 43.1406C192.848 43.1406 192.326 43.6627 192.326 44.3067C192.326 44.9506 192.848 45.4727 193.492 45.4727Z" fill="#6CE5D7"/>
<path d="M197.573 50.3699C198.217 50.3699 198.739 49.8479 198.739 49.2039C198.739 48.5599 198.217 48.0378 197.573 48.0378C196.929 48.0378 196.407 48.5599 196.407 49.2039C196.407 49.8479 196.929 50.3699 197.573 50.3699Z" fill="#6CE5D7"/>
<path d="M202.471 42.3244C203.115 42.3244 203.637 41.8023 203.637 41.1583C203.637 40.5144 203.115 39.9923 202.471 39.9923C201.827 39.9923 201.305 40.5144 201.305 41.1583C201.305 41.8023 201.827 42.3244 202.471 42.3244Z" fill="#6CE5D7"/>
<path d="M207.368 45.2394C208.012 45.2394 208.534 44.7174 208.534 44.0734C208.534 43.4294 208.012 42.9073 207.368 42.9073C206.724 42.9073 206.202 43.4294 206.202 44.0734C206.202 44.7174 206.724 45.2394 207.368 45.2394Z" fill="#6CE5D7"/>
<path d="M209.117 39.4092C209.761 39.4092 210.283 38.8872 210.283 38.2432C210.283 37.5992 209.761 37.0771 209.117 37.0771C208.473 37.0771 207.951 37.5992 207.951 38.2432C207.951 38.8872 208.473 39.4092 209.117 39.4092Z" fill="#6CE5D7"/>
<path d="M216.23 33.6957C216.873 33.6957 217.396 33.1737 217.396 32.5297C217.396 31.8857 216.873 31.3636 216.23 31.3636C215.586 31.3636 215.063 31.8857 215.063 32.5297C215.063 33.1737 215.586 33.6957 216.23 33.6957Z" fill="#6CE5D7"/>
<path d="M163.875 106.922L160.843 105.173L159.094 103.308L157.695 100.626L155.48 98.9934C155.48 98.9934 153.264 96.5448 148.25 97.7108L142.42 99.4598L137.989 102.142L141.021 104.124L143.819 106.806L146.781 107.342L147.784 107.389L149.067 105.64L151.037 104.707H152.914L155.678 106.608L158.593 109.29L159.444 110.292C159.444 110.304 163.292 107.739 163.875 106.922Z" fill="#6CE5D7"/>
<path d="M224.275 108.322L226.841 107.039L229.289 104.94L230.455 102.025C230.455 102.025 232.554 98.7603 238.035 99.1101C238.035 99.1101 246.896 99.1101 249.695 103.308L245.147 107.389L240.367 107.972L238.571 105.885L236.729 104.987L234.828 105.325L232.986 106.841L230.304 109.698L227.505 111.715C227.494 111.703 225.208 111.004 224.275 108.322Z" fill="#6CE5D7"/>
<path d="M186.729 101.326L188.129 99.8097H189.178L189.761 100.626L189.411 103.774L186.729 101.326Z" fill="white"/>
<path d="M194.658 104.73L195.008 101.909L195.708 101.092L196.757 101.325L197.69 102.375L194.658 104.73Z" fill="white"/>
<path d="M161.753 105.99C161.753 105.99 161.497 107.692 158.313 108.765L159.713 110.385L161.777 108.905L163.992 106.922L161.753 105.99Z" fill="#64C4B8"/>
<path d="M224.042 108.438L227.237 111.866L230.432 109.558C230.432 109.558 227.843 108.672 225.768 107.505L224.042 108.438Z" fill="#64C4B8"/>
<path d="M140.554 107.039C140.554 107.039 136.683 107.704 136.229 110.7C136.229 110.7 136.473 118.116 137.173 120.215C137.173 120.215 137.873 123.13 139.738 123.014H141.721C141.721 123.014 136.357 115.668 140.554 107.039Z" fill="#7ED6CB"/>
<path d="M141.021 115.784L142.303 122.314C142.303 122.314 143.119 124.996 145.568 124.646C145.568 124.646 142.42 121.031 141.021 115.784Z" fill="#7ED6CB"/>
<path d="M146.851 115.784L147.9 119.399L148.949 123.13C148.949 123.13 151.328 124.751 152.937 124.46C152.937 124.46 149.183 118.233 146.851 115.784Z" fill="#7ED6CB"/>
<path d="M241.067 116.367L239.901 121.848C239.901 121.848 238.501 125.299 236.053 124.798L233.837 124.413L231.972 122.781C231.972 122.781 238.735 123.13 241.067 116.367Z" fill="#7ED6CB"/>
<path d="M246.664 117.067L246.197 121.148L245.848 123.48L243.982 124.996H241.3L240.367 124.646C240.367 124.646 244.448 123.946 246.664 117.067Z" fill="#7ED6CB"/>
<path d="M245.847 123.48L248.307 123.573L249.695 122.431L250.977 120.565L251.444 118.35L251.677 115.551V112.403L251.28 110.082L249.811 108.089C249.811 108.089 251.327 120.448 245.847 123.48Z" fill="#7ED6CB"/>
<path d="M205.502 109.604L208.883 106.689C208.883 106.689 209.711 105.36 216.171 102.2C216.824 101.874 217.489 101.582 218.177 101.302C221.127 100.113 233.137 94.5625 236.402 82.3192L236.635 85.1177C236.635 85.1177 236.239 93.2449 232.356 96.708C232.356 96.708 226.257 103.658 218.212 105.873L205.502 109.604Z" fill="#6CE5D7"/>
<path d="M176.701 106.223L168.807 103.261L162.884 100.241L158.22 97.3494L153.731 92.9301C153.731 92.9301 149.673 87.0999 149.661 80.2203C149.661 80.2203 150.232 73.2241 150.816 71.4751C150.816 71.4751 150.582 94.0961 176.701 106.223Z" fill="#6CE5D7"/>
<path d="M159.502 84.3015C159.921 84.3015 160.26 83.9622 160.26 83.5436C160.26 83.125 159.921 82.7856 159.502 82.7856C159.083 82.7856 158.744 83.125 158.744 83.5436C158.744 83.9622 159.083 84.3015 159.502 84.3015Z" fill="#6CE5D7"/>
<path d="M161.834 87.4497C162.253 87.4497 162.592 87.1103 162.592 86.6918C162.592 86.2732 162.253 85.9338 161.834 85.9338C161.416 85.9338 161.076 86.2732 161.076 86.6918C161.076 87.1103 161.416 87.4497 161.834 87.4497Z" fill="#6CE5D7"/>
<path d="M168.947 87.4497C169.366 87.4497 169.705 87.1103 169.705 86.6918C169.705 86.2732 169.366 85.9338 168.947 85.9338C168.529 85.9338 168.189 86.2732 168.189 86.6918C168.189 87.1103 168.529 87.4497 168.947 87.4497Z" fill="#6CE5D7"/>
<path d="M166.499 89.5486C166.918 89.5486 167.257 89.2092 167.257 88.7906C167.257 88.372 166.918 88.0327 166.499 88.0327C166.081 88.0327 165.741 88.372 165.741 88.7906C165.741 89.2092 166.081 89.5486 166.499 89.5486Z" fill="#6CE5D7"/>
<path d="M171.396 90.9478C171.814 90.9478 172.154 90.6085 172.154 90.1899C172.154 89.7713 171.814 89.432 171.396 89.432C170.977 89.432 170.638 89.7713 170.638 90.1899C170.638 90.6085 170.977 90.9478 171.396 90.9478Z" fill="#6CE5D7"/>
<path d="M160.143 76.0227C160.143 76.0227 157.112 67.394 162.825 61.0974C162.825 61.0974 165.974 56.7831 172.62 57.0163C172.62 57.0163 178.334 56.7831 182.531 64.2457C182.531 64.2457 185.563 70.0759 182.998 75.906L160.143 76.0227Z" fill="white"/>
<path d="M227.016 85.1176C227.434 85.1176 227.774 84.7783 227.774 84.3597C227.774 83.9411 227.434 83.6018 227.016 83.6018C226.597 83.6018 226.258 83.9411 226.258 84.3597C226.258 84.7783 226.597 85.1176 227.016 85.1176Z" fill="#6CE5D7"/>
<path d="M224.684 88.266C225.102 88.266 225.442 87.9266 225.442 87.508C225.442 87.0895 225.102 86.7501 224.684 86.7501C224.265 86.7501 223.926 87.0895 223.926 87.508C223.926 87.9266 224.265 88.266 224.684 88.266Z" fill="#6CE5D7"/>
<path d="M217.57 88.266C217.989 88.266 218.328 87.9266 218.328 87.508C218.328 87.0895 217.989 86.7501 217.57 86.7501C217.152 86.7501 216.812 87.0895 216.812 87.508C216.812 87.9266 217.152 88.266 217.57 88.266Z" fill="#6CE5D7"/>
<path d="M220.02 90.3648C220.438 90.3648 220.778 90.0255 220.778 89.6069C220.778 89.1883 220.438 88.849 220.02 88.849C219.601 88.849 219.262 89.1883 219.262 89.6069C219.262 90.0255 219.601 90.3648 220.02 90.3648Z" fill="#6CE5D7"/>
<path d="M215.122 91.764C215.541 91.764 215.88 91.4247 215.88 91.0061C215.88 90.5875 215.541 90.2482 215.122 90.2482C214.704 90.2482 214.364 90.5875 214.364 91.0061C214.364 91.4247 214.704 91.764 215.122 91.764Z" fill="#6CE5D7"/>
<path d="M139.785 41.2982C139.785 41.2982 146.56 44.0501 150.023 50.4166C150.023 50.4166 150.653 52.4455 149.743 53.1568C149.743 53.1568 144.146 44.3416 139.785 41.2982Z" fill="#D08681"/>
<path d="M142.887 55.7336C142.887 55.7336 148.367 57.0979 150.757 61.7271C150.757 61.7271 150.699 63.3129 149.766 64.1291C149.766 64.1291 147.434 58.2989 142.887 55.7336Z" fill="#D08681"/>
<path d="M237.685 54.6843C237.685 54.6843 237.801 52.4688 241.299 49.2039L248.878 44.4232L246.78 47.6881C246.78 47.6881 240.133 50.7198 237.685 54.6843Z" fill="#D08681"/>
<path d="M245.264 59.1151L243.212 62.0069C243.212 62.0069 239.69 61.867 237.113 64.6888L237.801 62.6132L240.367 60.631L245.264 59.1151Z" fill="#D08681"/>
<path d="M194.238 37.4037C194.238 37.4037 201.328 39.1877 205.572 34.6286C209.816 30.081 209.816 28.4486 208.65 19.4702C208.65 19.4702 202.226 5.37285 194.238 1.04688C194.238 1.04688 213.431 21.2192 194.238 37.4037Z" fill="#8334B2"/>
<path d="M207.368 2.91248L200.372 5.71095L201.631 7.59992C201.631 7.59992 203.404 5.24454 207.368 2.91248Z" fill="#8334B2"/>
<path d="M193.026 9.55884C193.026 9.55884 184.281 17.2546 187.779 22.8516L190.228 18.3041L192.093 15.1558L193.026 9.55884Z" fill="#8334B2"/>
<path d="M213.432 14.5729C213.432 14.5729 210.12 14.1764 207.17 15.6573C207.17 15.6573 208.243 18.7822 208.686 19.9366C208.686 19.9366 210.633 15.6223 213.432 14.5729Z" fill="#8334B2"/>
<path d="M203.31 10.2819C203.31 10.2819 211.449 28.2154 199.789 37.4853C199.789 37.4853 202.821 38.5931 207.018 33.1127C207.018 33.1127 214.644 26.6413 203.31 10.2819Z" fill="#6F2493"/>
<path d="M158.045 11.8909C158.045 11.8909 161.508 11.063 163.689 16.6716C163.689 16.6716 165.449 21.2891 171.081 25.5685C171.081 25.5685 165.752 28.2153 162.954 31.9466C162.954 31.9466 160.622 27.2825 160.622 22.152C160.61 22.152 160.843 16.3218 158.045 11.8909Z" fill="#589ECE"/>
<path d="M231.272 15.0392C231.272 15.0392 232.077 30.2909 225.722 34.3836C225.722 34.3836 229.908 39.5492 231.342 43.6186C231.342 43.6186 235.12 41.8696 235.283 28.3436C235.295 28.3319 235.12 15.8554 231.272 15.0392Z" fill="#589ECE"/>
<path d="M159.211 11.9143C159.211 11.9143 160.995 12.2525 162.907 15.0509L165.542 19.6451L169.064 23.9011L171.104 25.5335L166.032 28.9267C166.032 28.9267 163.63 19.6218 159.211 11.9143Z" fill="#4A8EBA"/>
<path d="M232.555 16.0887C232.555 16.0887 233.884 33.8823 228.438 38.1033L231.435 44.0384C231.435 44.0384 234.723 40.7036 235.155 31.8884L235.038 25.1137L234.42 19.8549L232.52 15.8788" fill="#4A8EBA"/>
<path d="M176.934 106.456C176.934 106.456 174.835 108.788 172.853 112.158C172.853 112.158 180.199 112.158 183.58 112.158L184 112.158L176.934 106.456Z" fill="#9E78D0"/>
<path d="M202.354 111.936L205.035 109.604L208.883 108.555L214.014 107.389C214.014 107.389 214.772 107.739 216.987 112.344C216.987 112.344 208.009 112.111 202.82 112.344C202.82 112.344 202.354 112.228 202.354 111.936Z" fill="#9E78D0"/>
<path d="M172.62 111.995C172.526 111.342 175.107 108.108 176.409 106.573L177.109 106.864C176.829 106.864 174.621 110.362 173.553 112.111C173.28 112.072 172.713 111.995 172.62 111.995Z" fill="black"/>
<path d="M161.053 109.091C161.053 109.091 161.589 109.021 163.84 106.969C163.84 106.969 167.373 104.229 169.133 103.424L176.922 106.503C176.934 106.503 165.74 106.782 161.053 109.091Z" fill="#7F29A9"/>
<path d="M214.014 107.156L220.66 104.94L224.042 108.508L225.721 110.351C225.721 110.351 220.31 108.31 215.53 109.126L214.014 107.156Z" fill="#7F29A9"/>
<path d="M203.753 110.887C203.625 110.887 203.508 110.817 203.45 110.7C203.357 110.525 203.427 110.316 203.59 110.222C206.61 108.601 214.317 106.794 214.749 106.689C226.386 103.401 231.458 97.3959 232.729 95.6352C232.927 95.367 233.125 95.1105 233.324 94.8656C236.868 90.4464 236.729 81.8411 236.332 77.107C236.192 75.4396 235.889 73.7022 235.446 71.9415C234.571 68.4551 234.105 62.7182 233.942 60.4211C233.907 59.8614 233.848 59.3017 233.778 58.7653C232.881 51.8275 231.633 46.0206 231.575 45.7291C229.079 36.879 223.319 31.9 218.935 29.2648C214.166 26.408 209.921 25.6501 209.875 25.6384C209.688 25.6034 209.56 25.4285 209.595 25.2303C209.63 25.0437 209.805 24.9155 210.003 24.9505C210.178 24.9854 214.399 25.7434 219.273 28.6584C222.141 30.3725 224.637 32.4714 226.689 34.9084C229.254 37.9517 231.132 41.5314 232.263 45.5426C232.263 45.5542 232.263 45.5542 232.263 45.5659C232.274 45.6242 233.569 51.5593 234.478 58.6721C234.548 59.2318 234.606 59.8031 234.641 60.3745C234.77 62.1585 235.236 68.2452 236.122 71.7782C236.577 73.5739 236.88 75.3463 237.02 77.0604C237.428 81.8994 237.556 90.7029 233.86 95.3087C233.662 95.5536 233.464 95.7985 233.289 96.055C231.971 97.8623 226.771 104.031 214.924 107.377H214.912C214.83 107.4 206.878 109.254 203.916 110.84C203.87 110.875 203.811 110.887 203.753 110.887Z" fill="black"/>
<path d="M193.668 115.213C189.47 115.213 185.307 113.732 181.961 111.027C181.203 110.42 180.503 109.837 179.874 109.289C179.174 108.683 178.498 108.03 177.868 107.331C177.227 106.631 175.909 105.302 174.3 104.299C174.137 104.194 174.09 103.984 174.183 103.821C174.288 103.658 174.498 103.611 174.661 103.704C176.352 104.754 177.716 106.129 178.381 106.864C178.999 107.54 179.652 108.182 180.328 108.765C180.946 109.301 181.634 109.884 182.392 110.479C185.622 113.079 189.622 114.502 193.656 114.502C193.749 114.502 193.843 114.502 193.936 114.502C196.909 114.455 199.836 113.336 202.168 111.342C204.663 109.208 208.523 106.538 208.558 106.503C208.721 106.398 208.931 106.433 209.048 106.596C209.153 106.759 209.118 106.969 208.954 107.086C208.919 107.109 205.083 109.767 202.623 111.878C200.174 113.977 197.096 115.155 193.948 115.201C193.866 115.213 193.773 115.213 193.668 115.213Z" fill="black"/>
<path d="M178.136 107.447C178.089 107.447 178.043 107.436 177.996 107.412C177.914 107.377 170.137 103.856 167.28 103.051C167.268 103.051 167.245 103.04 167.233 103.04C166.779 102.841 156.133 98.0257 152.495 91.7058C152.367 91.4959 149.44 86.377 149.405 79.4391C149.393 77.8883 149.568 76.2908 149.918 74.6584C150.513 71.8716 151.958 64.8754 152.693 60.1297C152.763 59.3368 154.046 44.4698 158.208 37.8585C158.383 37.462 160.109 33.6258 164.307 29.8012C166.849 27.4924 169.775 25.6734 173.005 24.4141C177.028 22.84 181.541 22.117 186.403 22.2803L187.557 22.3036C187.756 22.3036 187.907 22.4668 187.896 22.6651C187.896 22.8516 187.732 23.0032 187.546 23.0032C187.546 23.0032 187.546 23.0032 187.534 23.0032L186.38 22.9799C175.606 22.6184 168.703 26.7695 164.796 30.3026C160.564 34.1388 158.861 38.115 158.838 38.1616C158.826 38.1849 158.826 38.1966 158.815 38.2083C154.71 44.7031 153.404 60.048 153.393 60.1996C153.393 60.2113 153.393 60.2113 153.393 60.2229C152.658 64.9803 151.201 72.0115 150.606 74.81C150.268 76.3841 150.104 77.9466 150.116 79.4391C150.151 86.1905 153.089 91.3093 153.113 91.356C156.553 97.3494 166.954 102.142 167.502 102.398C170.428 103.226 177.961 106.643 178.287 106.783C178.462 106.864 178.544 107.074 178.462 107.249C178.392 107.377 178.264 107.447 178.136 107.447Z" fill="black"/>
<path d="M151.574 68.0819C151.55 68.0819 151.515 68.0819 151.492 68.0702C147.831 67.1607 145.429 67.6155 145.405 67.6272C145.231 67.6621 145.056 67.5572 144.997 67.3823C144.939 67.2074 145.032 67.0325 145.196 66.9625C150.967 64.5488 150.431 61.9603 150.373 61.7037C148.017 57.2495 142.152 55.6287 142.094 55.6171C141.919 55.5704 141.814 55.4072 141.837 55.2323C141.861 55.0574 142.012 54.9291 142.187 54.9291C146.735 54.9874 148.612 53.9263 149.393 53.0285C150.093 52.2239 150.011 51.466 150 51.3727C148.752 45.7758 138.631 40.8318 138.526 40.7851C138.374 40.7152 138.293 40.5403 138.339 40.377C138.386 40.2138 138.549 40.1089 138.712 40.1205C138.806 40.1322 148.67 41.2282 155.433 45.7758C155.597 45.8807 155.632 46.1022 155.527 46.2655C155.422 46.4287 155.2 46.4637 155.037 46.3588C150.244 43.1405 143.843 41.683 140.636 41.1233C143.715 42.8723 149.696 46.7785 150.676 51.2444V51.2561C150.688 51.3027 150.851 52.3871 149.93 53.4716C148.88 54.6959 146.91 55.4072 144.064 55.5937C146.093 56.4566 149.323 58.2406 150.991 61.4239C151.002 61.4355 151.002 61.4589 151.014 61.4705C151.061 61.5988 151.912 64.2573 147.154 66.8226C148.251 66.8226 149.79 66.9509 151.644 67.4173C151.83 67.4639 151.947 67.6505 151.9 67.837C151.877 67.977 151.725 68.0819 151.574 68.0819Z" fill="black"/>
<path d="M145.335 67.6271C145.265 67.6271 145.207 67.6038 145.148 67.5688C144.985 67.4639 144.939 67.2424 145.044 67.0908C145.055 67.0791 145.848 65.8315 145.86 63.8026C145.883 61.109 144.519 58.2406 141.93 55.5121C141.825 55.4071 141.802 55.2439 141.872 55.1156C141.884 55.0923 142.781 53.2033 142.805 50.4982C142.828 46.8718 141.371 43.5836 138.444 40.7152C138.304 40.5752 138.304 40.3537 138.444 40.2254C138.584 40.0855 138.805 40.0855 138.934 40.2254C142.758 43.98 143.528 47.9212 143.493 50.5448C143.469 52.8885 142.84 54.6142 142.595 55.2089C145.906 58.777 146.583 61.8786 146.559 63.8725C146.524 66.088 145.662 67.4289 145.627 67.4872C145.557 67.5688 145.452 67.6271 145.335 67.6271Z" fill="black"/>
<path d="M156.762 41.3915C156.645 41.3915 156.529 41.3332 156.459 41.2282C156.4 41.135 155.048 38.8845 154.138 34.6868C153.31 30.8389 152.727 24.554 154.663 16.4851C154.721 16.1702 155.491 12.0542 158.546 11.5528C158.849 11.4828 161.274 11.0514 163.595 15.8204C163.618 15.8787 166.533 21.7322 171.069 25.137C171.221 25.2536 171.256 25.4752 171.139 25.6268C171.022 25.7783 170.801 25.8133 170.649 25.6967C165.974 22.187 163.082 16.3685 162.965 16.1236C160.82 11.716 158.732 12.2174 158.709 12.2291C158.698 12.2291 158.686 12.2407 158.674 12.2407C156.039 12.6605 155.351 16.5784 155.351 16.6133C155.351 16.625 155.351 16.625 155.351 16.6367C153.439 24.5657 154.01 30.734 154.815 34.5003C155.689 38.593 157.042 40.8318 157.053 40.8551C157.158 41.0184 157.1 41.2399 156.937 41.3332C156.89 41.3798 156.82 41.3915 156.762 41.3915Z" fill="black"/>
<path d="M197.865 38.2782C196.256 38.2782 194.659 37.9284 193.166 37.2521C190.636 36.0861 188.654 34.0455 187.592 31.4919C187.324 30.8389 187.219 30.4192 187.208 30.4075C185.832 24.4607 189.295 19.0387 190.006 18.0009C190.344 17.5112 190.612 17.0681 190.834 16.6483C194.274 10.1535 192.583 0.51046 192.571 0.417177C192.548 0.288914 192.595 0.160651 192.7 0.0790292C192.805 -0.00259294 192.933 -0.0259164 193.049 0.0323851C196.548 1.51324 200.209 5.06964 203.94 10.6199C206.704 14.736 208.476 18.4673 208.499 18.5023C210.528 22.9449 210.097 26.7928 209.374 29.2415C208.616 31.83 207.403 33.4042 207.298 33.5441C205.899 35.5264 203.847 36.9489 201.188 37.7651C200.104 38.115 198.985 38.2782 197.865 38.2782ZM187.884 30.2326C187.884 30.2326 187.989 30.629 188.234 31.2121C189.89 35.1649 193.714 37.5786 197.83 37.5786C198.868 37.5786 199.929 37.427 200.99 37.1005C203.497 36.3309 205.421 35.0017 206.739 33.136L206.75 33.1243C206.762 33.1127 207.986 31.5502 208.721 29.0199C209.397 26.6879 209.805 23.0265 207.87 18.7938C207.8 18.6539 201.165 4.76647 193.364 0.93023C193.691 3.25063 194.519 11.168 191.464 16.9632C191.23 17.4062 190.939 17.8727 190.589 18.3857C189.901 19.3768 186.578 24.5773 187.884 30.2326Z" fill="black"/>
<path d="M187.837 23.5863C187.732 23.5863 187.627 23.5396 187.558 23.4464C187.476 23.3414 185.669 20.9044 187.196 16.6018C187.651 15.2958 188.362 14.0715 189.283 12.9404C190.356 11.6461 191.86 9.94371 192.98 9.20911C193.143 9.10417 193.353 9.15081 193.458 9.31405C193.563 9.4773 193.516 9.68718 193.353 9.79213C192.536 10.3168 191.277 11.5878 189.82 13.3718C188.945 14.4329 188.28 15.599 187.849 16.8233C186.461 20.7412 188.047 22.9216 188.117 23.0149C188.234 23.1665 188.199 23.3881 188.047 23.5047C187.989 23.563 187.907 23.5863 187.837 23.5863Z" fill="black"/>
<path d="M211.426 25.8483C211.274 25.8483 211.146 25.755 211.087 25.6034C209.665 21.1725 212.3 16.485 213.268 14.9809C208.825 14.6077 207.135 15.9953 207.123 16.007C206.971 16.1352 206.761 16.1119 206.633 15.972C206.505 15.8321 206.517 15.6105 206.668 15.4822C206.75 15.4123 208.709 13.7565 213.933 14.3512C214.061 14.3629 214.166 14.4445 214.212 14.5611C214.259 14.6777 214.247 14.806 214.177 14.9109C214.142 14.9692 210.19 20.4845 211.764 25.4052C211.822 25.5917 211.717 25.79 211.542 25.8483C211.507 25.8483 211.461 25.8483 211.426 25.8483Z" fill="black"/>
<path d="M204.92 12.8237C204.757 12.8237 204.605 12.7071 204.582 12.5439C203.917 9.02246 206.109 5.06961 207.1 3.50713C204.115 4.13679 200.232 6.35225 200.197 6.37557C200.034 6.46885 199.813 6.41055 199.719 6.2473C199.626 6.08406 199.684 5.86251 199.848 5.76923C200.046 5.65263 204.617 3.04072 207.8 2.69091C207.94 2.67925 208.068 2.73755 208.138 2.86582C208.208 2.98242 208.196 3.134 208.115 3.2506C208.08 3.29725 204.477 8.31118 205.258 12.4273C205.293 12.6138 205.165 12.8004 204.978 12.8354C204.966 12.8237 204.943 12.8237 204.92 12.8237Z" fill="black"/>
<path d="M231.494 44.2949C231.412 44.2949 231.319 44.2599 231.26 44.2016C231.12 44.0733 231.109 43.8518 231.237 43.7119C235.621 38.9661 234.782 25.3469 234.77 25.2186C234.327 16.4617 231.424 15.389 231.4 15.389C228.135 14.3395 225.897 19.4584 225.885 19.5051C225.885 19.5167 225.873 19.5167 225.873 19.5284C223.53 24.0992 218.061 28.227 217.828 28.4019C217.676 28.5185 217.455 28.4835 217.338 28.3319C217.221 28.1803 217.256 27.9588 217.408 27.8422C217.466 27.7955 222.97 23.6445 225.244 19.2252C225.407 18.8521 227.797 13.4883 231.61 14.7243C231.738 14.7593 234.992 15.8321 235.47 25.1836C235.505 25.755 236.344 39.2343 231.75 44.2016C231.68 44.2599 231.587 44.2949 231.494 44.2949Z" fill="black"/>
<path d="M235.691 71.4402C235.551 71.4402 235.423 71.3585 235.376 71.2303C235.294 71.0554 235.376 70.8455 235.551 70.7639C236.915 70.1575 239.049 70.1109 240.577 70.1692C237.16 68.1869 236.67 65.7033 236.647 65.5867C236.647 65.575 236.647 65.575 236.647 65.5634C236.239 62.0886 240.39 60.083 243.27 59.1269C239.107 58.7537 237.801 56.48 237.731 56.3634C237.265 55.5122 237.195 54.5677 237.51 53.5649C238.676 49.9269 244.798 46.2655 247.643 44.7264C240.017 45.3327 232.916 49.3439 232.846 49.3905C232.683 49.4838 232.461 49.4255 232.368 49.2622C232.274 49.099 232.333 48.8774 232.496 48.7842C232.578 48.7375 240.833 44.0734 249.217 43.9568C249.38 43.9568 249.52 44.0734 249.555 44.225C249.59 44.3882 249.52 44.5515 249.368 44.6214C249.275 44.6681 239.574 49.4022 238.163 53.7864C237.895 54.6143 237.953 55.3489 238.326 56.0369C238.396 56.1535 240.064 58.9753 245.917 58.4156C246.104 58.4039 246.267 58.5322 246.302 58.7188C246.337 58.9053 246.209 59.0802 246.022 59.1152C245.929 59.1385 236.81 60.9692 237.323 65.4817C237.358 65.6566 238.07 68.5134 242.477 70.3441C242.64 70.4141 242.722 70.589 242.687 70.7522C242.652 70.9154 242.477 71.0321 242.302 71.0087C242.256 71.0087 237.918 70.4957 235.831 71.4052C235.784 71.4285 235.738 71.4402 235.691 71.4402Z" fill="black"/>
<path d="M171.734 84.593C178.11 84.593 183.278 79.4508 183.278 73.1076C183.278 66.7644 178.11 61.6222 171.734 61.6222C165.359 61.6222 160.19 66.7644 160.19 73.1076C160.19 79.4508 165.359 84.593 171.734 84.593Z" fill="#B449DB"/>
<path d="M171.688 85.0011C177.355 85.0011 181.949 80.3705 181.949 74.6584C181.949 68.9463 177.355 64.3157 171.688 64.3157C166.021 64.3157 161.427 68.9463 161.427 74.6584C161.427 80.3705 166.021 85.0011 171.688 85.0011Z" fill="black"/>
<path d="M242.349 71.0086C242.232 71.0086 242.116 70.9503 242.057 70.8454C242.022 70.7871 241.125 69.3645 241.148 67.1141C241.16 65.0969 241.941 62.0185 245.532 58.6954C245.241 58.1473 244.623 56.7947 244.553 54.7775C244.471 52.3988 245.171 48.6208 248.972 44.0733C249.1 43.9217 249.322 43.9101 249.462 44.0267C249.602 44.1433 249.625 44.3765 249.508 44.5164C245.859 48.8657 245.182 52.4571 245.241 54.6959C245.311 57.1212 246.255 58.5438 246.267 58.5554C246.36 58.6954 246.337 58.8936 246.208 59.0102C243.387 61.5521 241.883 64.3389 241.848 67.0675C241.824 69.1197 242.64 70.4489 242.652 70.4606C242.757 70.6238 242.71 70.8454 242.547 70.9387C242.477 70.9853 242.407 71.0086 242.349 71.0086Z" fill="black"/>
<path d="M171.629 85.3509C164.656 85.3509 158.978 78.8911 158.978 70.9504C158.978 63.0097 164.656 56.5499 171.629 56.5499C178.602 56.5499 184.28 63.0097 184.28 70.9504C184.28 78.8911 178.602 85.3509 171.629 85.3509ZM171.629 57.2495C165.041 57.2495 159.677 63.3945 159.677 70.9504C159.677 78.5063 165.041 84.6513 171.629 84.6513C178.217 84.6513 183.581 78.5063 183.581 70.9504C183.581 63.3945 178.217 57.2495 171.629 57.2495Z" fill="black"/>
<path d="M193.259 105.372C193.119 105.372 192.98 105.36 192.84 105.348C192.513 105.36 190.251 105.337 187.744 103.028C186.625 101.99 185.727 100.731 185.062 99.2616C184.106 97.1277 181.821 92.3937 179.582 90.3997C178.952 89.98 178.602 89.7118 178.591 89.7001C178.451 89.5952 178.416 89.3853 178.509 89.2337C178.602 89.0821 178.801 89.0238 178.964 89.1054C179.302 89.2803 179.652 89.5252 180.002 89.8284C181.541 90.8545 184.771 92.8134 188.619 93.9911C195.801 96.1832 201.666 94.8073 206.062 89.8867C206.179 89.7468 206.389 89.7351 206.529 89.84C206.669 89.945 206.715 90.1549 206.61 90.3065C206.401 90.6329 201.515 98.4337 200.361 100.066C200.209 100.288 196.676 105.372 193.259 105.372ZM192.851 104.649C192.863 104.649 192.886 104.649 192.898 104.649C196.035 105.08 199.754 99.7163 199.789 99.6697C200.535 98.6203 202.926 94.854 204.523 92.3237C202.448 94.0028 200.092 95.0639 197.492 95.4836C194.705 95.9384 191.639 95.6585 188.385 94.6674C185.727 93.8512 183.371 92.6852 181.634 91.6824C183.29 93.8978 184.782 96.9412 185.704 98.9817C186.321 100.358 187.173 101.547 188.222 102.515C190.636 104.742 192.816 104.649 192.84 104.649C192.84 104.649 192.84 104.649 192.851 104.649Z" fill="black"/>
<path d="M189.411 104.007C189.376 104.007 189.341 104.007 189.318 103.996C189.131 103.937 189.026 103.751 189.085 103.564C189.714 101.407 189.329 100.498 189.038 100.159C188.921 100.008 188.7 99.9729 188.525 100.055C187.72 100.439 187.161 101.384 187.149 101.395C187.056 101.559 186.834 101.617 186.671 101.524C186.508 101.43 186.449 101.209 186.543 101.046C186.566 100.999 187.219 99.9029 188.222 99.4248C188.688 99.2033 189.248 99.3199 189.574 99.7164C190.029 100.264 190.425 101.419 189.749 103.763C189.703 103.914 189.563 104.007 189.411 104.007Z" fill="black"/>
<path d="M194.81 105.022C194.635 105.022 194.472 104.882 194.46 104.707C194.437 104.45 194.262 102.13 194.985 101.081C195.23 100.731 195.649 100.568 196.069 100.661C196.466 100.754 197.468 101.104 198.016 102.48C198.086 102.655 198.005 102.865 197.818 102.935C197.643 103.005 197.433 102.923 197.363 102.736C196.932 101.675 196.209 101.407 195.918 101.337C195.778 101.302 195.638 101.36 195.556 101.477C195.066 102.188 195.101 104.007 195.148 104.637C195.16 104.835 195.02 104.998 194.833 105.01C194.821 105.022 194.821 105.022 194.81 105.022Z" fill="black"/>
<path d="M188.536 85.7707C188.536 85.7707 188.525 85.7707 188.536 85.7707C188.058 85.759 186.531 85.6541 186.263 84.8962C186.251 84.8728 186.251 84.8379 186.251 84.8145C186.274 84.6513 186.391 84.3481 186.682 84.2548C187.137 84.1149 187.79 84.5114 188.665 85.4792C188.688 85.5141 188.711 85.5491 188.711 85.5958C188.711 85.6657 188.665 85.7357 188.595 85.759C188.571 85.7707 188.56 85.7707 188.536 85.7707ZM186.601 84.8145C186.776 85.1643 187.499 85.3276 188.093 85.3859C187.277 84.558 186.904 84.5347 186.787 84.5813C186.671 84.6163 186.624 84.7446 186.601 84.8145Z" fill="black"/>
<path d="M185.33 86.0504C185.167 86.0504 185.016 85.9338 184.992 85.7706C184.981 85.7006 184.677 84.0215 185.995 83.1703C186.298 82.9721 186.66 82.8555 187.056 82.8322C187.604 82.7972 188.63 82.8788 189.353 83.87C189.47 84.0215 189.435 84.2431 189.272 84.3597C189.12 84.4763 188.898 84.4413 188.782 84.2781C188.28 83.5901 187.592 83.4968 187.103 83.5318C186.835 83.5551 186.578 83.6367 186.368 83.765C185.447 84.348 185.669 85.5957 185.669 85.6423C185.703 85.8289 185.575 86.0154 185.389 86.0504C185.377 86.0504 185.354 86.0504 185.33 86.0504Z" fill="black"/>
<path d="M198.273 85.8056C198.203 85.8056 198.144 85.7706 198.109 85.7007C198.086 85.6424 198.098 85.5608 198.144 85.5141C199.019 84.5463 199.672 84.1382 200.127 84.2898C200.43 84.3831 200.546 84.6863 200.558 84.8495C200.558 84.8728 200.558 84.9078 200.546 84.9311C200.232 85.794 198.284 85.8056 198.273 85.8056ZM199.928 84.6046C199.753 84.6046 199.392 84.7329 198.704 85.4208C199.252 85.3625 200.022 85.1993 200.197 84.8378C200.173 84.7679 200.127 84.6396 200.01 84.6046C199.987 84.6163 199.963 84.6046 199.928 84.6046Z" fill="black"/>
<path d="M201.468 86.0854C201.444 86.0854 201.421 86.0854 201.398 86.0737C201.211 86.0388 201.083 85.8522 201.118 85.6656C201.13 85.6073 201.34 84.3713 200.418 83.7883C200.208 83.6601 199.964 83.5784 199.684 83.5551C199.194 83.5201 198.506 83.6251 198.005 84.3014C197.888 84.453 197.678 84.4879 197.515 84.383C197.363 84.2664 197.328 84.0449 197.433 83.8933C198.156 82.9021 199.182 82.8205 199.73 82.8555C200.115 82.8788 200.488 83.0071 200.792 83.1937C202.109 84.0332 201.806 85.7239 201.794 85.7939C201.783 85.9688 201.643 86.0854 201.468 86.0854Z" fill="black"/>
<path d="M198.04 79.171C197.993 79.171 197.935 79.1593 197.888 79.136C193.423 77.0138 187.837 79.1243 187.791 79.1477C187.616 79.2176 187.406 79.1243 187.336 78.9494C187.266 78.7745 187.359 78.5646 187.534 78.4947C187.767 78.4014 193.446 76.2559 198.192 78.5063C198.367 78.588 198.436 78.7978 198.355 78.9727C198.297 79.101 198.168 79.171 198.04 79.171Z" fill="black"/>
<path d="M178.218 90.7146C178.206 90.7146 178.194 90.7146 178.183 90.7146C178.054 90.6913 177.973 90.5747 177.985 90.4464C178.229 88.8256 179.582 88.196 179.629 88.1727C179.745 88.1144 179.885 88.1727 179.932 88.2893C179.99 88.4059 179.932 88.5458 179.815 88.5924C179.769 88.6158 178.637 89.1521 178.428 90.5164C178.428 90.633 178.334 90.7146 178.218 90.7146Z" fill="black"/>
<path d="M207.251 90.8312C207.17 90.8312 207.088 90.7845 207.041 90.7029C206.54 89.6885 205.421 89.7818 205.409 89.7818C205.281 89.7934 205.164 89.7001 205.152 89.5719C205.141 89.4436 205.234 89.327 205.362 89.3153C205.421 89.3153 206.808 89.1987 207.461 90.493C207.519 90.6096 207.473 90.7496 207.356 90.8079C207.321 90.8195 207.286 90.8312 207.251 90.8312Z" fill="black"/>
<path d="M163.758 107.272C163.712 107.272 163.677 107.261 163.63 107.249C160.89 106.165 159.083 104.066 158.313 102.468C157.287 100.358 155.433 98.7952 153.217 98.2122C152.156 97.9324 151.329 97.8508 151.259 97.8391C145.848 97.5476 140.275 101.081 138.735 102.142C139.995 102.958 143.539 105.36 144.251 106.783C144.332 106.957 144.262 107.167 144.099 107.249C143.924 107.331 143.714 107.261 143.633 107.097C143.003 105.826 139.307 103.319 137.931 102.457C137.838 102.398 137.768 102.293 137.768 102.177C137.768 102.06 137.814 101.955 137.908 101.885C138.187 101.675 144.729 96.8013 151.317 97.1511H151.329C151.364 97.1511 152.25 97.2328 153.416 97.5476C155.829 98.1889 157.847 99.8797 158.966 102.177C159.689 103.658 161.356 105.605 163.91 106.619C164.085 106.689 164.178 106.899 164.108 107.074C164.027 107.191 163.898 107.272 163.758 107.272Z" fill="black"/>
<path d="M142.537 123.597C142.49 123.597 142.455 123.585 142.408 123.573C142.035 123.422 140.858 123.363 140.205 123.363C137.849 123.363 136.975 121.125 136.823 119.924C135.914 116.239 135.995 111.668 136.007 111.353C135.89 108.03 139.144 107.144 139.517 107.051C141.93 106.106 147.376 107.004 147.609 107.039C147.796 107.074 147.924 107.249 147.9 107.447C147.865 107.634 147.691 107.762 147.492 107.739C147.434 107.727 141.965 106.829 139.75 107.715C139.727 107.727 139.715 107.727 139.692 107.739C139.563 107.762 136.602 108.427 136.707 111.353C136.707 111.365 136.707 111.365 136.707 111.377C136.707 111.423 136.602 116.157 137.511 119.795C137.511 119.807 137.523 119.83 137.523 119.842C137.534 119.959 137.873 122.676 140.205 122.676C140.391 122.676 142.035 122.687 142.665 122.932C142.84 123.002 142.933 123.212 142.863 123.387C142.805 123.515 142.677 123.597 142.537 123.597Z" fill="black"/>
<path d="M145.661 124.984C144.717 124.984 144.006 124.763 143.947 124.739C141.685 123.982 141.277 119.504 141.254 119.201C141.021 117.487 140.682 115.633 140.671 115.609C140.636 115.423 140.764 115.236 140.951 115.201C141.137 115.166 141.324 115.294 141.359 115.481C141.359 115.504 141.709 117.37 141.942 119.119C141.942 119.131 141.942 119.131 141.942 119.142C142.035 120.343 142.618 123.573 144.157 124.086C144.181 124.098 146.886 124.926 148.576 123.13C148.705 122.99 148.926 122.979 149.066 123.119C149.206 123.247 149.218 123.468 149.078 123.608C148.04 124.716 146.711 124.984 145.661 124.984Z" fill="black"/>
<path d="M152.565 124.856C151.27 124.856 150.186 124.366 149.988 124.273C147.854 123.608 147.458 119.819 147.434 119.551C147.038 116.671 146.653 116.087 146.606 116.029C146.478 115.913 146.466 115.714 146.571 115.563C146.688 115.411 146.91 115.376 147.061 115.493C147.236 115.621 147.691 116.274 148.134 119.457V119.469C148.227 120.472 148.775 123.177 150.221 123.597C150.244 123.597 150.256 123.608 150.279 123.62C150.303 123.632 152.821 124.856 154.699 123.48C155.002 123.259 155.247 122.967 155.445 122.617C155.806 121.964 156.319 120.553 156.611 119.399C156.692 119.061 156.762 118.711 156.821 118.35C157.007 117.055 157.8 112.963 160.505 111.96L159.736 110.969C159.164 110.234 158.488 109.558 157.719 108.94C156.366 107.855 154.978 106.526 154.279 105.826C153.661 105.208 152.868 104.859 152.04 104.824C151.422 104.8 150.816 104.952 150.244 105.267C149.615 105.605 149.09 106.13 148.705 106.771C147.691 108.485 145.977 109.698 145.907 109.744C145.743 109.861 145.534 109.814 145.417 109.663C145.3 109.499 145.347 109.29 145.499 109.173C145.51 109.161 147.154 107.984 148.099 106.409C148.542 105.652 149.172 105.045 149.906 104.649C150.594 104.276 151.317 104.101 152.063 104.124C153.066 104.159 154.022 104.59 154.769 105.325C155.457 106.013 156.821 107.331 158.15 108.392C158.955 109.033 159.678 109.756 160.284 110.537L161.38 111.936C161.45 112.03 161.473 112.158 161.438 112.275C161.392 112.391 161.298 112.473 161.182 112.496C158.43 113.067 157.66 117.557 157.532 118.455C157.474 118.839 157.404 119.212 157.31 119.574C156.996 120.787 156.471 122.244 156.074 122.944C155.83 123.387 155.515 123.76 155.13 124.04C154.279 124.658 153.381 124.856 152.565 124.856Z" fill="black"/>
<path d="M146.618 107.505C146.56 107.505 146.501 107.494 146.455 107.459C146.28 107.365 146.221 107.156 146.315 106.981C148.099 103.646 150.466 102.561 150.559 102.515C150.734 102.433 150.944 102.515 151.025 102.69C151.107 102.865 151.025 103.075 150.851 103.156C150.827 103.168 148.6 104.206 146.933 107.319C146.863 107.435 146.746 107.505 146.618 107.505Z" fill="black"/>
<path d="M156.051 107.307C156.004 107.307 155.958 107.295 155.923 107.272C155.818 107.202 155.783 107.051 155.864 106.946C156.576 105.885 157.567 105.442 157.613 105.43C157.73 105.383 157.87 105.43 157.917 105.546C157.963 105.663 157.917 105.803 157.8 105.85C157.788 105.85 156.891 106.269 156.249 107.202C156.191 107.272 156.121 107.307 156.051 107.307Z" fill="black"/>
<path d="M159.677 110.525C159.595 110.525 159.525 110.49 159.479 110.42C159.409 110.316 159.444 110.164 159.549 110.094C159.584 110.071 163.152 107.774 164.516 106.188C164.528 106.176 164.528 106.176 164.539 106.164C164.633 106.083 166.941 104.019 169.647 103.203C169.775 103.168 169.903 103.238 169.938 103.354C169.973 103.483 169.903 103.611 169.786 103.646C167.28 104.415 165.041 106.351 164.866 106.503C163.455 108.147 159.957 110.397 159.805 110.49C159.759 110.514 159.712 110.525 159.677 110.525Z" fill="black"/>
<path d="M224.194 108.881C224.054 108.881 223.926 108.8 223.868 108.671C223.786 108.497 223.879 108.287 224.054 108.217C224.101 108.193 228.45 106.316 229.441 103.529C229.628 103.016 229.826 102.585 230.071 102.212C230.736 101.162 232.287 99.3315 235.132 98.7835C235.645 98.6902 236.181 98.6436 236.776 98.6436C239.096 98.6552 246.932 99.04 250.103 103.343C250.162 103.424 250.185 103.518 250.162 103.611C250.138 103.704 250.092 103.786 250.01 103.844C249.987 103.856 247.457 105.476 245.521 107.412C245.381 107.552 245.16 107.552 245.031 107.412C244.891 107.272 244.891 107.051 245.031 106.922C246.629 105.325 248.564 103.972 249.322 103.471C246.209 99.7163 238.968 99.3665 236.787 99.3548C236.239 99.3548 235.75 99.3898 235.283 99.4831C232.695 99.9728 231.284 101.652 230.677 102.596C230.468 102.923 230.293 103.308 230.118 103.774C229.022 106.841 224.532 108.788 224.346 108.87C224.288 108.87 224.241 108.881 224.194 108.881Z" fill="black"/>
<path d="M227.237 112.181C227.12 112.181 227.015 112.123 226.945 112.03C226.84 111.866 226.875 111.657 227.039 111.54C227.074 111.517 230.922 108.858 232.426 106.853C232.682 106.514 232.985 106.188 233.335 105.908C233.778 105.547 234.221 105.243 234.676 105.022C236.309 104.206 238.268 104.707 239.34 106.2C240.052 107.202 241.159 108.637 242.349 109.826C242.489 109.966 242.489 110.187 242.349 110.316C242.209 110.456 241.987 110.456 241.859 110.316C240.646 109.103 239.515 107.622 238.781 106.608C237.906 105.395 236.32 104.999 234.991 105.651C234.583 105.85 234.175 106.118 233.778 106.444C233.475 106.701 233.207 106.981 232.974 107.272C231.4 109.371 227.575 112.006 227.423 112.111C227.377 112.158 227.307 112.181 227.237 112.181Z" fill="black"/>
<path d="M247.223 124.04C246.897 124.04 246.535 124.016 246.15 123.947C245.964 123.912 245.836 123.737 245.859 123.538C245.894 123.352 246.069 123.224 246.267 123.247C248.751 123.667 249.485 122.431 249.52 122.372C249.52 122.361 249.532 122.361 249.532 122.349C252.016 118.524 251.269 112.123 250.978 110.246C250.896 109.698 250.628 109.208 250.22 108.87C248.716 107.622 245.929 107.715 245.766 107.727C244.6 107.844 240.262 108.252 240.215 108.252C240.029 108.263 239.854 108.123 239.83 107.937C239.807 107.75 239.959 107.575 240.145 107.552C240.192 107.552 244.553 107.144 245.707 107.027H245.719C245.847 107.016 248.902 106.876 250.663 108.333C251.199 108.776 251.561 109.418 251.666 110.141C251.957 112.076 252.727 118.699 250.115 122.722C250.022 122.885 249.275 124.04 247.223 124.04Z" fill="black"/>
<path d="M242.57 125.451C242.384 125.451 242.209 125.439 242.022 125.416C240.46 125.229 239.375 124.588 238.991 123.608C238.921 123.433 239.002 123.224 239.189 123.154C239.364 123.084 239.574 123.165 239.644 123.352C240.04 124.343 241.358 124.634 242.116 124.728C242.687 124.798 243.247 124.739 243.795 124.564C244.564 124.32 245.112 123.923 245.439 123.387C245.707 122.944 245.835 122.407 245.812 121.836C245.73 119.9 246.302 117.114 246.325 116.997C246.36 116.81 246.547 116.682 246.733 116.729C246.92 116.764 247.048 116.95 247.001 117.137C247.001 117.16 246.418 119.959 246.5 121.801C246.535 122.512 246.36 123.189 246.022 123.748C245.602 124.425 244.926 124.926 243.993 125.217C243.538 125.369 243.06 125.451 242.57 125.451Z" fill="black"/>
<path d="M235.761 125.276C234.933 125.276 234.105 125.054 233.371 124.623C232.065 123.83 231.237 122.489 230.934 120.635C230.922 120.588 229.756 114.781 227.307 112.438C226.748 111.913 226.235 111.435 225.908 111.132C225.15 110.444 224.451 109.686 223.833 108.87C222.247 106.794 220.393 105.302 220.381 105.29C220.229 105.173 220.206 104.952 220.323 104.8C220.439 104.649 220.661 104.625 220.813 104.742C220.894 104.8 222.736 106.304 224.381 108.438C224.987 109.22 225.652 109.954 226.374 110.607C226.713 110.91 227.226 111.388 227.797 111.925C230.359 114.437 231.533 120.279 231.633 120.507C231.913 122.162 232.624 123.34 233.744 124.028C235.19 124.903 237.079 124.739 238.361 123.632C238.536 123.48 238.688 123.317 238.851 123.13C239.422 122.431 239.772 121.544 239.877 120.588C240.157 117.988 240.728 116.344 240.752 116.274C240.822 116.087 241.02 115.994 241.195 116.064C241.381 116.134 241.475 116.332 241.405 116.507C241.405 116.519 240.833 118.151 240.565 120.67C240.448 121.766 240.04 122.769 239.387 123.573C239.201 123.795 239.014 123.993 238.816 124.168C237.953 124.891 236.857 125.276 235.761 125.276Z" fill="black"/>
<path d="M231.831 108.333C231.738 108.333 231.633 108.287 231.563 108.217C231.12 107.704 230.292 107.237 230.28 107.226C230.117 107.132 230.047 106.923 230.14 106.748C230.234 106.584 230.444 106.514 230.618 106.608C230.653 106.631 231.563 107.144 232.088 107.75C232.216 107.902 232.193 108.112 232.053 108.24C231.994 108.31 231.913 108.333 231.831 108.333Z" fill="black"/>
<path d="M241.183 107.972C241.032 107.972 240.892 107.867 240.845 107.715C240.414 106.095 237.837 103.832 237.802 103.809C237.662 103.681 237.639 103.459 237.767 103.319C237.895 103.18 238.117 103.156 238.257 103.284C238.373 103.378 241.02 105.71 241.51 107.54C241.556 107.727 241.452 107.914 241.265 107.972C241.242 107.972 241.218 107.972 241.183 107.972Z" fill="black"/>
<path d="M227.541 112.519H201.725C201.527 112.519 201.375 112.368 201.375 112.17C201.375 111.971 201.527 111.82 201.725 111.82H227.541C227.739 111.82 227.891 111.971 227.891 112.17C227.891 112.368 227.739 112.519 227.541 112.519Z" fill="black"/>
<path d="M184.306 112.519H161.076C160.878 112.519 160.727 112.356 160.727 112.17C160.727 111.971 160.878 111.82 161.076 111.82L183.977 111.878C184.094 111.878 184.21 111.936 184.269 112.041C184.327 112.146 184.306 112.519 184.306 112.519C184.271 112.589 184.341 112.449 184.306 112.519Z" fill="black"/>
<path d="M156.704 18.3157C155.619 18.3157 154.838 18.1641 154.756 18.1525C154.57 18.1175 154.441 17.9309 154.488 17.7444C154.523 17.5578 154.71 17.4295 154.896 17.4762C154.955 17.4878 160.248 18.5023 162.534 14.9459C162.639 14.7826 162.86 14.736 163.012 14.8409C163.175 14.9459 163.222 15.1674 163.117 15.319C161.484 17.8376 158.616 18.3157 156.704 18.3157Z" fill="black"/>
<path d="M154.524 25.3935C154.081 25.3935 153.812 25.3702 153.777 25.3702C153.579 25.3585 153.439 25.1836 153.451 24.9971C153.463 24.8105 153.637 24.6589 153.824 24.6706C153.906 24.6706 161.73 25.1836 165.659 19.9365C165.776 19.7849 165.997 19.7499 166.149 19.8665C166.301 19.9831 166.336 20.2047 166.219 20.3563C164.493 22.665 161.788 24.2625 158.407 24.9737C156.774 25.3352 155.352 25.3935 154.524 25.3935Z" fill="black"/>
<path d="M154.092 32.1449C153.905 32.1449 153.754 31.9933 153.742 31.8068C153.73 31.6086 153.882 31.457 154.08 31.4453C154.103 31.4453 156.669 31.3404 159.654 30.2326C162.382 29.2182 166.032 27.1077 167.932 22.8633C168.014 22.6884 168.224 22.6068 168.399 22.6884C168.574 22.77 168.655 22.9799 168.574 23.1548C166.568 27.6207 162.732 29.8362 159.875 30.8973C156.785 32.0516 154.208 32.1449 154.103 32.1449C154.092 32.1449 154.092 32.1449 154.092 32.1449Z" fill="black"/>
<path d="M231.236 21.1375C228.042 21.1375 225.698 19.3535 225.57 19.2602C225.418 19.1436 225.395 18.9221 225.511 18.7705C225.628 18.6189 225.849 18.5956 226.001 18.7122C226.048 18.7472 229.954 21.7089 234.373 19.7849C234.548 19.7033 234.758 19.7849 234.828 19.9715C234.909 20.1464 234.828 20.3563 234.641 20.4262C233.452 20.9393 232.298 21.1375 231.236 21.1375Z" fill="black"/>
<path d="M232.333 26.6063C229.884 26.6063 227.89 25.86 226.514 25.1254C224.474 24.0293 223.331 22.735 223.284 22.6884C223.156 22.5485 223.168 22.3269 223.319 22.1987C223.459 22.0704 223.681 22.0821 223.809 22.2336C223.821 22.2453 224.929 23.493 226.864 24.5307C229.441 25.9066 232.205 26.2681 235.05 25.5918C235.236 25.5452 235.423 25.6618 235.47 25.8483C235.516 26.0349 235.4 26.2215 235.213 26.2681C234.199 26.5013 233.231 26.6063 232.333 26.6063Z" fill="black"/>
<path d="M231.447 33.276C227.937 33.276 225.36 31.7951 223.681 30.3493C221.291 28.2737 220.195 25.895 220.148 25.7901C220.066 25.6152 220.148 25.4053 220.323 25.3237C220.498 25.242 220.708 25.3237 220.789 25.4986C220.801 25.5219 221.874 27.8656 224.159 29.8245C227.203 32.4365 230.841 33.1944 234.992 32.075C235.178 32.0283 235.365 32.1333 235.423 32.3199C235.47 32.5064 235.365 32.693 235.178 32.7513C233.826 33.1128 232.59 33.276 231.447 33.276Z" fill="black"/>
<path d="M204.57 25.5335C204.383 25.5335 204.22 25.3819 204.22 25.1836C204.162 18.0359 201.13 11.8443 198.6 7.90307C195.848 3.62373 193.084 1.01183 193.061 0.988505C192.921 0.860242 192.91 0.638694 193.049 0.498771C193.178 0.358847 193.399 0.34719 193.539 0.487113C193.563 0.510434 196.396 3.18064 199.183 7.52994C201.771 11.5527 204.861 17.8726 204.92 25.1836C204.92 25.3702 204.768 25.5335 204.57 25.5335Z" fill="black"/>
<path d="M198.168 38.1965C198.028 38.1965 197.9 38.1149 197.842 37.975C197.772 37.8001 197.865 37.5902 198.04 37.5202C203.94 35.2465 204.337 27.7022 204.337 27.6206C204.348 27.4224 204.511 27.2825 204.698 27.2825C204.896 27.2941 205.036 27.4574 205.036 27.6439C205.036 27.7256 204.943 29.6845 204.08 31.9699C202.926 35.0133 200.92 37.1588 198.296 38.1732C198.25 38.1849 198.203 38.1965 198.168 38.1965Z" fill="black"/>
<path d="M190.228 34.8617C190.193 34.8617 190.158 34.8617 190.123 34.8501C189.936 34.7918 189.843 34.5935 189.901 34.407C190.834 31.4802 192.886 28.3903 192.979 28.262C197.574 21.4291 196.221 17.7794 196.209 17.7444C196.139 17.5695 196.221 17.3596 196.408 17.2896C196.582 17.2197 196.792 17.3013 196.862 17.4762C196.932 17.6394 198.39 21.464 193.562 28.6468C193.539 28.6818 191.475 31.7834 190.577 34.6169C190.507 34.7685 190.379 34.8617 190.228 34.8617Z" fill="black"/>
<path d="M192.536 36.6807C192.501 36.6807 192.477 36.6807 192.442 36.669C192.256 36.6224 192.151 36.4242 192.198 36.2376C193.504 31.4919 197.806 26.0115 197.993 25.7783C200.057 23.1081 200.756 19.9715 200.08 16.4617C199.579 13.8265 198.447 11.9725 198.436 11.9608C198.331 11.7976 198.389 11.5761 198.552 11.4828C198.716 11.3778 198.937 11.4361 199.03 11.5994C199.077 11.681 200.232 13.5816 200.768 16.3335C201.258 18.8871 201.269 22.6767 198.541 26.2214C198.494 26.2797 194.133 31.8184 192.874 36.4358C192.839 36.5758 192.699 36.6807 192.536 36.6807Z" fill="black"/>
<path d="M209.001 20.4729C208.966 20.4729 208.942 20.4729 208.907 20.4612C208.721 20.4146 208.616 20.2163 208.662 20.0298C210.108 14.6777 213.361 14.3279 213.501 14.3162C213.688 14.3046 213.863 14.4445 213.886 14.6311C213.898 14.8176 213.758 14.9925 213.571 15.0158C213.455 15.0275 210.645 15.3773 209.339 20.2163C209.292 20.3796 209.152 20.4729 209.001 20.4729Z" fill="black"/>
<path d="M201.771 8.15963C201.677 8.15963 201.584 8.12465 201.514 8.04302C201.386 7.9031 201.398 7.68155 201.537 7.55329C202.75 6.45722 204.068 6.09575 204.126 6.07243C204.313 6.02579 204.499 6.13074 204.557 6.3173C204.604 6.50387 204.499 6.69043 204.313 6.74873C204.301 6.74873 203.088 7.09854 202.004 8.06635C201.934 8.12465 201.852 8.15963 201.771 8.15963Z" fill="black"/>
<path d="M217.476 112.17L216.7 112.178C215.222 109.169 213.786 107.545 213.758 107.517C213.63 107.377 213.642 107.156 213.782 107.027C213.922 106.899 214.143 106.911 214.271 107.051C214.378 107.171 215.932 108.929 217.476 112.17Z" fill="black"/>
<path d="M167.317 78.2757C168.542 77.7648 169.279 76.7387 168.964 75.9839C168.649 75.2291 167.401 75.0314 166.177 75.5423C164.952 76.0531 164.215 77.0792 164.53 77.834C164.845 78.5888 166.093 78.7865 167.317 78.2757Z" fill="white"/>
<path d="M227.832 76.2208C227.832 76.2208 230.864 67.5922 225.15 61.2957C225.15 61.2957 222.002 56.9814 215.356 57.2146C215.356 57.2146 209.642 56.9814 205.444 64.444C205.444 64.444 202.413 70.2741 204.978 76.1042L227.832 76.2208Z" fill="white"/>
<path d="M216.242 84.7911C222.617 84.7911 227.786 79.6489 227.786 73.3057C227.786 66.9625 222.617 61.8203 216.242 61.8203C209.867 61.8203 204.698 66.9625 204.698 73.3057C204.698 79.6489 209.867 84.7911 216.242 84.7911Z" fill="#B449DB"/>
<path d="M216.463 85.2342C222.324 85.2342 227.074 80.5932 227.074 74.8682C227.074 69.1432 222.324 64.5022 216.463 64.5022C210.603 64.5022 205.853 69.1432 205.853 74.8682C205.853 80.5932 210.603 85.2342 216.463 85.2342Z" fill="black"/>
<path d="M216.347 85.5492C209.374 85.5492 203.695 79.0893 203.695 71.1487C203.695 63.208 209.374 56.7482 216.347 56.7482C223.32 56.7482 228.998 63.208 228.998 71.1487C228.998 79.0893 223.32 85.5492 216.347 85.5492ZM216.347 57.4478C209.759 57.4478 204.395 63.5928 204.395 71.1487C204.395 78.7046 209.759 84.8495 216.347 84.8495C222.935 84.8495 228.299 78.7046 228.299 71.1487C228.299 63.5928 222.935 57.4478 216.347 57.4478Z" fill="black"/>
<path d="M212.261 78.3701C213.485 77.8592 214.222 76.8332 213.907 76.0784C213.592 75.3236 212.344 75.1259 211.12 75.6368C209.896 76.1476 209.159 77.1737 209.474 77.9285C209.789 78.6833 211.036 78.881 212.261 78.3701Z" fill="white"/>
<path d="M185.376 99.1216L183.942 96.2532L181.645 92.3353L181.144 90.8778C181.144 90.8778 188.011 95.0988 194.017 95.4137C194.017 95.4137 200.954 95.2621 205.152 91.6474L201.747 97.3726L199.672 100.393C199.672 100.393 198.273 98.7718 193.9 98.2355C193.538 98.1888 193.177 98.1772 192.816 98.1772C191.591 98.2005 188.571 98.3287 185.376 99.1216Z" fill="black"/>
</svg>
