<svg width="45" height="40" viewBox="0 0 45 40" fill="none" xmlns="http://www.w3.org/2000/svg">
<circle cx="23.5" cy="23.5" r="12.5" fill="url(#paint0_radial_123_991)"/>
<mask id="mask0_123_991" style="mask-type:alpha" maskUnits="userSpaceOnUse" x="11" y="11" width="25" height="25">
<circle cx="23.5" cy="23.5" r="12.5" fill="#C4C4C4"/>
</mask>
<g mask="url(#mask0_123_991)">
<path fillRule="evenodd" clipRule="evenodd" d="M14.8095 29.8691L13.6892 29.9823C12.6621 30.0859 10.6769 29.7079 10.2966 29.3361C9.90926 28.9576 8.99656 25.9231 9.21143 25.7287C9.24121 25.7018 9.51642 25.84 9.82307 26.0358C11.0727 26.8339 12.7972 27.232 14.896 27.2071C17.8992 27.1714 19.949 26.7771 21.9691 25.1541C22.2844 24.9009 22.8769 24.4694 22.8952 24.5318C22.9674 24.7781 22.3594 26.0376 21.6055 26.8291C20.257 28.2443 17.1542 29.6324 14.8095 29.8691ZM22.5807 24.1696C21.8967 24.8155 20.1967 25.4301 18.6151 25.603C17.408 25.7351 16.7094 25.7051 15.326 25.4617C13.3126 25.1078 11.3395 24.2791 10.0914 23.2633C9.03101 22.4003 8.94407 22.2143 9.07308 21.0856C9.17708 20.1765 9.58606 18.6304 9.76136 18.4834C9.80793 18.4444 9.86512 18.4725 9.88842 18.5458C9.99161 18.8705 10.5694 19.6783 11.1462 20.3042C12.6827 21.9713 15.2579 23.3303 17.9019 23.8692C18.9975 24.0925 21.2141 24.1571 21.9691 23.9877C22.8707 23.7855 22.9595 23.8119 22.5807 24.1696ZM22.6644 23.3599C22.6634 23.3841 22.4978 23.4431 22.2964 23.4911C21.6385 23.648 20.0752 23.5334 19.1442 23.2601C18.1135 22.9575 16.6373 22.1845 15.4661 21.3338C13.9042 20.1996 12.1817 17.9947 11.6785 16.4853C11.3401 15.4704 11.34 15.3114 11.6781 14.7966C12.022 14.2729 13.8212 12.379 13.9689 12.3853C14.0216 12.3876 14.0521 12.7225 14.0367 13.1294C13.9989 14.1283 14.1894 15.0297 14.6769 16.1578C16.0092 19.2401 19.0723 22.134 22.0333 23.1079C22.3814 23.2223 22.6654 23.3358 22.6644 23.3599ZM22.6352 22.427C22.7867 22.581 22.9099 22.7441 22.9092 22.7893C22.9038 23.0912 21.5091 22.4898 20.5261 21.7616C18.9469 20.5917 17.5244 18.2419 16.8865 15.75C16.6722 14.9124 16.634 14.4754 16.6504 13.0495C16.6782 10.6332 16.6829 10.624 18.1967 9.96452C19.3096 9.47963 21.085 8.9785 21.2113 9.11361C21.2419 9.14643 21.153 9.33896 21.0138 9.5414C20.8746 9.74395 20.583 10.3146 20.3658 10.8096C19.9963 11.6518 19.964 11.8154 19.8633 13.3522C19.7401 15.2341 19.8132 15.9976 20.2913 17.8178C20.7791 19.6755 21.6897 21.4663 22.6352 22.427ZM23.7156 21.8537L23.7147 21.8561C23.698 21.9025 23.6808 21.9564 23.6631 22.0116C23.5765 22.2819 23.48 22.5831 23.3956 22.1856C23.2505 21.5016 23.2997 20.1053 23.4965 19.3281C23.6938 18.5487 24.3296 17.1577 24.8512 16.364C26.6782 13.5839 29.4152 11.6654 32.0013 11.352C32.2215 11.3253 32.4133 11.5026 32.404 11.7243L32.3561 12.868L32.3198 13.7349C32.3024 14.151 32.0157 14.5065 31.6129 14.6115C30.2835 14.9579 28.29 16.2046 26.8224 17.6075C26.788 17.6404 26.7536 17.6733 26.7192 17.7061C25.4228 18.9447 24.2135 20.1 23.8786 21.3544C23.8312 21.5317 23.7433 21.7765 23.7156 21.8537ZM22.8625 18.3287C22.703 19.0766 22.6732 20.7836 22.8076 21.4672C22.9819 22.3536 22.1894 21.1764 21.86 20.0594C21.4991 18.836 21.4156 17.7569 21.547 16.0129C21.6931 14.0714 22.0567 12.6697 22.6945 11.5895C22.8977 11.2455 23.0658 10.9192 23.0681 10.8644C23.0741 10.7293 23.9752 9.6477 24.379 9.29104C24.6596 9.04316 24.7945 9.00734 25.3463 9.03412C25.9803 9.06475 27.8076 9.37238 28.3941 9.54724C28.7991 9.66796 28.7723 9.75828 28.2691 9.96881C27.8809 10.1312 27.3314 10.4841 26.6506 11.0083C26.2188 11.3406 25.1885 12.6303 24.6458 13.5178C23.8034 14.8951 23.3118 16.2215 22.8625 18.3287ZM31.8584 16.705L32.9731 16.5439C33.995 16.3963 35.994 16.6888 36.3893 17.0439C36.7919 17.4055 37.8289 20.3981 37.6222 20.6016C37.5936 20.6297 37.3129 20.5035 36.9984 20.321C35.717 19.5773 33.9776 19.2535 31.8817 19.3684C28.8826 19.5329 26.1781 20.556 24.2267 22.2642C23.9222 22.5307 23.656 22.6986 23.6352 22.637C23.5528 22.394 24.4732 20.8571 25.1938 20.034C26.4827 18.5621 29.5256 17.0422 31.8584 16.705ZM24.329 22.7329C24.9858 22.0583 26.659 21.3713 28.232 21.1307C29.4326 20.9469 30.1318 20.9469 31.524 21.1307C33.5503 21.3979 35.5557 22.1412 36.8446 23.1026C37.9397 23.9193 38.0342 24.1014 37.9518 25.2346C37.8854 26.1474 37.5405 27.7097 37.3714 27.8641C37.3265 27.905 37.2682 27.8795 37.2419 27.8072C37.1254 27.4872 36.5148 26.7049 35.9128 26.1043C34.3089 24.5046 31.68 23.2573 29.0161 22.8323C27.9122 22.6562 25.6949 22.6868 24.9476 22.8885C24.0552 23.1292 23.9653 23.1066 24.329 22.7329ZM24.2788 23.5455C24.2788 23.5213 24.4418 23.4552 24.641 23.3986C25.2919 23.2137 26.8585 23.2611 27.8 23.4942C28.8423 23.7523 30.349 24.4613 31.5542 25.261C33.1615 26.3272 34.9733 28.4562 35.5384 29.9427C35.9182 30.9422 35.9249 31.101 35.6084 31.6298C35.2863 32.1679 33.5667 34.1373 33.4189 34.1373C33.3662 34.1373 33.322 33.804 33.3205 33.3967C33.3172 32.3972 33.0897 31.5048 32.5561 30.3985C31.0979 27.3761 27.9182 24.6162 24.9197 23.7702C24.5672 23.6708 24.2788 23.5697 24.2788 23.5455ZM24.3464 24.4763C24.1887 24.329 24.0588 24.1713 24.0577 24.1261C24.0507 23.8242 25.4689 24.3653 26.4811 25.0507C28.1071 26.1517 29.6252 28.4384 30.3652 30.9008C30.6139 31.7285 30.6701 32.1634 30.7124 33.5887C30.7842 36.0041 30.78 36.0135 29.2947 36.7373C28.2028 37.2696 26.4496 37.8464 26.3178 37.7169C26.2859 37.6854 26.3667 37.4892 26.4975 37.281C26.6282 37.0726 26.8961 36.49 27.0927 35.986C27.4271 35.1288 27.4526 34.964 27.4899 33.4242C27.5355 31.5387 27.4309 30.7789 26.8783 28.9809C26.3142 27.1457 25.3307 25.3956 24.3464 24.4763ZM23.2271 24.9826C23.2676 24.8016 23.3199 24.5919 23.3435 24.5164C23.4304 24.2387 23.5932 24.3923 23.7144 24.8661C23.8877 25.5433 23.7782 26.8245 23.6136 27.6095C23.4486 28.3966 22.8707 29.8137 22.3823 30.6291C20.6715 33.4851 17.0325 35.5193 14.4616 35.9434C14.2428 35.9795 14.0438 35.8106 14.0439 35.5887L14.0446 34.4439L14.0451 33.5762C14.0454 33.1598 14.3172 32.7923 14.7153 32.6701C16.0293 32.2669 18.953 30.9358 20.3615 29.4713C21.6427 28.139 22.9367 26.2839 23.2271 24.9826ZM24.2882 28.5807C24.4168 27.8267 24.3762 26.1199 24.2137 25.4427C24.003 24.5645 24.8433 25.7067 25.2185 26.8086C25.6295 28.0154 25.7575 29.09 25.6981 30.8381C25.6321 32.7841 25.3265 34.2002 24.7339 35.3068C24.5451 35.6592 24.3906 35.9924 24.3905 36.0473C24.3901 36.1825 23.5344 37.3018 23.1456 37.6755C22.8755 37.9352 22.7422 37.9768 22.1898 37.9737C21.5551 37.9703 19.7167 37.7413 19.1235 37.5918C18.7138 37.4885 18.7369 37.3972 19.231 37.1652C19.6121 36.9863 20.1466 36.6102 20.8053 36.0572C21.2229 35.7067 22.1991 34.3739 22.7049 33.4639C23.4897 32.0517 23.9262 30.7054 24.2882 28.5807Z" fill="url(#paint1_radial_123_991)"/>
</g>
<path d="M36 23.5C36 30.4036 30.4036 36 23.5 36C16.5964 36 11 30.4036 11 23.5C11 16.5964 16.5964 11 23.5 11C30.4036 11 36 16.5964 36 23.5ZM12.2667 23.5C12.2667 29.704 17.296 34.7333 23.5 34.7333C29.704 34.7333 34.7333 29.704 34.7333 23.5C34.7333 17.296 29.704 12.2667 23.5 12.2667C17.296 12.2667 12.2667 17.296 12.2667 23.5Z" fill="url(#paint2_linear_123_991)"/>
<g filter="url(#filter0_f_123_991)">
<path d="M13.8688 27.735C8.81412 24.3196 16.9425 3.69124 32.7895 17.2158C21.2458 10.112 11.7513 21.5875 13.8688 27.735Z" fill="white" fill-opacity="0.8"/>
</g>
<defs>
<filter id="filter0_f_123_991" x="0.374268" y="0.669434" width="44.4153" height="39.0657" filterUnits="userSpaceOnUse" color-interpolation-filters="sRGB">
<feFlood flood-opacity="0" result="BackgroundImageFix"/>
<feBlend mode="normal" in="SourceGraphic" in2="BackgroundImageFix" result="shape"/>
<feGaussianBlur stdDeviation="6" result="effect1_foregroundBlur_123_991"/>
</filter>
<radialGradient id="paint0_radial_123_991" cx="0" cy="0" r="1" gradientUnits="userSpaceOnUse" gradientTransform="translate(23.5 23.5) rotate(90) scale(12.5)">
<stop stop-color="#CFCFCF"/>
<stop offset="0.229494" stop-color="white"/>
<stop offset="0.815625" stop-color="white"/>
<stop offset="0.97296" stop-color="#ECECEC"/>
</radialGradient>
<radialGradient id="paint1_radial_123_991" cx="0" cy="0" r="1" gradientUnits="userSpaceOnUse" gradientTransform="translate(23.5009 23.5002) rotate(90) scale(14.4736)">
<stop stop-color="#D92A00"/>
<stop offset="0.0552082" stop-color="#D90027"/>
<stop offset="0.33044" stop-color="#E10000"/>
<stop offset="0.628125" stop-color="#EF0303"/>
<stop offset="0.919792" stop-color="#B60606"/>
</radialGradient>
<linearGradient id="paint2_linear_123_991" x1="33.4044" y1="31.3552" x2="8.40437" y2="10.1803" gradientUnits="userSpaceOnUse">
<stop stop-opacity="0.07"/>
<stop offset="1" stop-color="white" stop-opacity="0"/>
</linearGradient>
</defs>
</svg>
