<svg width="238" height="70" viewBox="0 0 238 70" fill="none" xmlns="http://www.w3.org/2000/svg">
<path d="M70.9348 39.32C68.1348 39.32 65.6015 38.7067 63.3348 37.48C61.0948 36.2267 59.3348 34.52 58.0548 32.36C56.7748 30.1733 56.1348 27.72 56.1348 25C56.1348 22.28 56.7748 19.84 58.0548 17.68C59.3348 15.4933 61.1082 13.7867 63.3748 12.56C65.6415 11.3067 68.1748 10.68 70.9748 10.68C73.1615 10.68 75.1615 11.0533 76.9748 11.8C78.7882 12.52 80.3348 13.6 81.6148 15.04L79.0148 17.56C76.9082 15.3467 74.2815 14.24 71.1348 14.24C69.0548 14.24 67.1748 14.7067 65.4948 15.64C63.8148 16.5733 62.4948 17.8667 61.5348 19.52C60.6015 21.1467 60.1348 22.9733 60.1348 25C60.1348 27.0267 60.6015 28.8667 61.5348 30.52C62.4948 32.1467 63.8148 33.4267 65.4948 34.36C67.1748 35.2933 69.0548 35.76 71.1348 35.76C74.2548 35.76 76.8815 34.64 79.0148 32.4L81.6148 34.92C80.3348 36.36 78.7748 37.4533 76.9348 38.2C75.1215 38.9467 73.1215 39.32 70.9348 39.32ZM98.0811 17.6C100.774 17.6 102.908 18.3867 104.481 19.96C106.081 21.5067 106.881 23.7867 106.881 26.8V39H103.041V27.24C103.041 25.1867 102.548 23.64 101.561 22.6C100.574 21.56 99.1611 21.04 97.3211 21.04C95.2411 21.04 93.6011 21.6533 92.4011 22.88C91.2011 24.08 90.6011 25.8133 90.6011 28.08V39H86.7611V9.32H90.6011V20.8C91.4011 19.7867 92.4411 19 93.7211 18.44C95.0278 17.88 96.4811 17.6 98.0811 17.6ZM123.185 39.24C121.078 39.24 119.185 38.7733 117.505 37.84C115.825 36.9067 114.505 35.6267 113.545 34C112.612 32.3467 112.145 30.48 112.145 28.4C112.145 26.32 112.612 24.4667 113.545 22.84C114.505 21.1867 115.825 19.9067 117.505 19C119.185 18.0667 121.078 17.6 123.185 17.6C125.292 17.6 127.172 18.0667 128.825 19C130.505 19.9067 131.812 21.1867 132.745 22.84C133.705 24.4667 134.185 26.32 134.185 28.4C134.185 30.48 133.705 32.3467 132.745 34C131.812 35.6267 130.505 36.9067 128.825 37.84C127.172 38.7733 125.292 39.24 123.185 39.24ZM123.185 35.88C124.545 35.88 125.758 35.5733 126.825 34.96C127.918 34.32 128.772 33.44 129.385 32.32C129.998 31.1733 130.305 29.8667 130.305 28.4C130.305 26.9333 129.998 25.64 129.385 24.52C128.772 23.3733 127.918 22.4933 126.825 21.88C125.758 21.2667 124.545 20.96 123.185 20.96C121.825 20.96 120.598 21.2667 119.505 21.88C118.438 22.4933 117.585 23.3733 116.945 24.52C116.332 25.64 116.025 26.9333 116.025 28.4C116.025 29.8667 116.332 31.1733 116.945 32.32C117.585 33.44 118.438 34.32 119.505 34.96C120.598 35.5733 121.825 35.88 123.185 35.88ZM148.735 39.24C146.575 39.24 144.642 38.7733 142.935 37.84C141.255 36.9067 139.935 35.6267 138.975 34C138.015 32.3467 137.535 30.48 137.535 28.4C137.535 26.32 138.015 24.4667 138.975 22.84C139.935 21.1867 141.255 19.9067 142.935 19C144.642 18.0667 146.575 17.6 148.735 17.6C150.655 17.6 152.362 17.9867 153.855 18.76C155.375 19.5333 156.549 20.6533 157.375 22.12L154.455 24C153.789 22.9867 152.962 22.2267 151.975 21.72C150.989 21.2133 149.895 20.96 148.695 20.96C147.309 20.96 146.055 21.2667 144.935 21.88C143.842 22.4933 142.975 23.3733 142.335 24.52C141.722 25.64 141.415 26.9333 141.415 28.4C141.415 29.8933 141.722 31.2133 142.335 32.36C142.975 33.48 143.842 34.3467 144.935 34.96C146.055 35.5733 147.309 35.88 148.695 35.88C149.895 35.88 150.989 35.6267 151.975 35.12C152.962 34.6133 153.789 33.8533 154.455 32.84L157.375 34.68C156.549 36.1467 155.375 37.28 153.855 38.08C152.362 38.8533 150.655 39.24 148.735 39.24ZM171.115 39.24C169.008 39.24 167.115 38.7733 165.435 37.84C163.755 36.9067 162.435 35.6267 161.475 34C160.541 32.3467 160.075 30.48 160.075 28.4C160.075 26.32 160.541 24.4667 161.475 22.84C162.435 21.1867 163.755 19.9067 165.435 19C167.115 18.0667 169.008 17.6 171.115 17.6C173.221 17.6 175.101 18.0667 176.755 19C178.435 19.9067 179.741 21.1867 180.675 22.84C181.635 24.4667 182.115 26.32 182.115 28.4C182.115 30.48 181.635 32.3467 180.675 34C179.741 35.6267 178.435 36.9067 176.755 37.84C175.101 38.7733 173.221 39.24 171.115 39.24ZM171.115 35.88C172.475 35.88 173.688 35.5733 174.755 34.96C175.848 34.32 176.701 33.44 177.315 32.32C177.928 31.1733 178.235 29.8667 178.235 28.4C178.235 26.9333 177.928 25.64 177.315 24.52C176.701 23.3733 175.848 22.4933 174.755 21.88C173.688 21.2667 172.475 20.96 171.115 20.96C169.755 20.96 168.528 21.2667 167.435 21.88C166.368 22.4933 165.515 23.3733 164.875 24.52C164.261 25.64 163.955 26.9333 163.955 28.4C163.955 29.8667 164.261 31.1733 164.875 32.32C165.515 33.44 166.368 34.32 167.435 34.96C168.528 35.5733 169.755 35.88 171.115 35.88Z" fill="#03A66D"/>
<path d="M103.234 63V52.824H99.2984V51.8H108.354V52.824H104.418V63H103.234ZM110.006 63V54.6H111.142V63H110.006ZM110.582 52.744C110.347 52.744 110.15 52.664 109.99 52.504C109.83 52.344 109.75 52.152 109.75 51.928C109.75 51.704 109.83 51.5173 109.99 51.368C110.15 51.208 110.347 51.128 110.582 51.128C110.817 51.128 111.014 51.2027 111.174 51.352C111.334 51.5013 111.414 51.688 111.414 51.912C111.414 52.1467 111.334 52.344 111.174 52.504C111.025 52.664 110.827 52.744 110.582 52.744ZM117.871 63.08C116.996 63.08 116.228 62.8987 115.567 62.536C114.905 62.1627 114.388 61.656 114.015 61.016C113.641 60.3653 113.455 59.624 113.455 58.792C113.455 57.96 113.631 57.224 113.983 56.584C114.345 55.944 114.836 55.4427 115.455 55.08C116.084 54.7067 116.788 54.52 117.567 54.52C118.356 54.52 119.055 54.7013 119.663 55.064C120.281 55.416 120.767 55.9173 121.119 56.568C121.471 57.208 121.647 57.9493 121.647 58.792C121.647 58.8453 121.641 58.904 121.631 58.968C121.631 59.0213 121.631 59.08 121.631 59.144H114.319V58.296H121.023L120.575 58.632C120.575 58.024 120.441 57.4853 120.175 57.016C119.919 56.536 119.567 56.1627 119.119 55.896C118.671 55.6293 118.153 55.496 117.567 55.496C116.991 55.496 116.473 55.6293 116.015 55.896C115.556 56.1627 115.199 56.536 114.943 57.016C114.687 57.496 114.559 58.0453 114.559 58.664V58.84C114.559 59.48 114.697 60.0453 114.975 60.536C115.263 61.016 115.657 61.3947 116.159 61.672C116.671 61.9387 117.252 62.072 117.903 62.072C118.415 62.072 118.889 61.9813 119.327 61.8C119.775 61.6187 120.159 61.3413 120.479 60.968L121.119 61.704C120.745 62.152 120.276 62.4933 119.711 62.728C119.156 62.9627 118.543 63.08 117.871 63.08ZM123.959 63V54.6H125.047V56.888L124.935 56.488C125.17 55.848 125.564 55.3627 126.119 55.032C126.674 54.6907 127.362 54.52 128.183 54.52V55.624C128.14 55.624 128.098 55.624 128.055 55.624C128.012 55.6133 127.97 55.608 127.927 55.608C127.042 55.608 126.348 55.88 125.847 56.424C125.346 56.9573 125.095 57.72 125.095 58.712V63H123.959ZM135.768 63V52.28L136.28 52.824H133.128V51.8H136.92V63H135.768Z" fill="#505050"/>
</svg>
