<svg width="238" height="49" viewBox="0 0 238 49" fill="none" xmlns="http://www.w3.org/2000/svg">
<path d="M53.5822 36.422C55.3822 36.422 56.7022 36.764 57.5422 37.448C58.3942 38.12 58.8202 39.044 58.8202 40.22C58.8202 40.964 58.6402 41.636 58.2802 42.236C57.9322 42.824 57.3982 43.292 56.6782 43.64C55.9702 43.976 55.0942 44.144 54.0502 44.144C53.1622 44.144 52.3042 44.012 51.4762 43.748C50.6482 43.472 49.9642 43.094 49.4242 42.614L50.2522 41.192C50.6842 41.6 51.2362 41.93 51.9082 42.182C52.5802 42.422 53.2882 42.542 54.0322 42.542C54.9802 42.542 55.7122 42.344 56.2282 41.948C56.7562 41.54 57.0202 40.988 57.0202 40.292C57.0202 39.536 56.7322 38.966 56.1562 38.582C55.5802 38.186 54.5962 37.988 53.2042 37.988H50.3422L51.0082 31.4H58.1182V32.966H52.5202L52.1782 36.422H53.5822ZM66.1781 31.4H67.9781V42.434H74.8001V44H66.1781V31.4ZM80.5765 44.108C79.6285 44.108 78.7765 43.898 78.0205 43.478C77.2645 43.058 76.6705 42.482 76.2385 41.75C75.8185 41.006 75.6085 40.166 75.6085 39.23C75.6085 38.294 75.8185 37.46 76.2385 36.728C76.6705 35.984 77.2645 35.408 78.0205 35C78.7765 34.58 79.6285 34.37 80.5765 34.37C81.5245 34.37 82.3705 34.58 83.1145 35C83.8705 35.408 84.4585 35.984 84.8785 36.728C85.3105 37.46 85.5265 38.294 85.5265 39.23C85.5265 40.166 85.3105 41.006 84.8785 41.75C84.4585 42.482 83.8705 43.058 83.1145 43.478C82.3705 43.898 81.5245 44.108 80.5765 44.108ZM80.5765 42.596C81.1885 42.596 81.7345 42.458 82.2145 42.182C82.7065 41.894 83.0905 41.498 83.3665 40.994C83.6425 40.478 83.7805 39.89 83.7805 39.23C83.7805 38.57 83.6425 37.988 83.3665 37.484C83.0905 36.968 82.7065 36.572 82.2145 36.296C81.7345 36.02 81.1885 35.882 80.5765 35.882C79.9645 35.882 79.4125 36.02 78.9205 36.296C78.4405 36.572 78.0565 36.968 77.7685 37.484C77.4925 37.988 77.3545 38.57 77.3545 39.23C77.3545 39.89 77.4925 40.478 77.7685 40.994C78.0565 41.498 78.4405 41.894 78.9205 42.182C79.4125 42.458 79.9645 42.596 80.5765 42.596ZM93.2803 43.442C93.0283 43.658 92.7163 43.826 92.3443 43.946C91.9723 44.054 91.5883 44.108 91.1923 44.108C90.2323 44.108 89.4883 43.85 88.9603 43.334C88.4323 42.818 88.1683 42.08 88.1683 41.12V35.882H86.5483V34.46H88.1683V32.372H89.8963V34.46H92.6323V35.882H89.8963V41.048C89.8963 41.564 90.0223 41.96 90.2743 42.236C90.5383 42.512 90.9103 42.65 91.3903 42.65C91.9183 42.65 92.3683 42.5 92.7403 42.2L93.2803 43.442ZM100.505 43.442C100.253 43.658 99.9409 43.826 99.5689 43.946C99.1969 44.054 98.8129 44.108 98.4169 44.108C97.4569 44.108 96.7129 43.85 96.1849 43.334C95.6569 42.818 95.3929 42.08 95.3929 41.12V35.882H93.7729V34.46H95.3929V32.372H97.1209V34.46H99.8569V35.882H97.1209V41.048C97.1209 41.564 97.2469 41.96 97.4989 42.236C97.7629 42.512 98.1349 42.65 98.6149 42.65C99.1429 42.65 99.5929 42.5 99.9649 42.2L100.505 43.442ZM110.9 39.284C110.9 39.416 110.888 39.59 110.864 39.806H103.124C103.232 40.646 103.598 41.324 104.222 41.84C104.858 42.344 105.644 42.596 106.58 42.596C107.72 42.596 108.638 42.212 109.334 41.444L110.288 42.56C109.856 43.064 109.316 43.448 108.668 43.712C108.032 43.976 107.318 44.108 106.526 44.108C105.518 44.108 104.624 43.904 103.844 43.496C103.064 43.076 102.458 42.494 102.026 41.75C101.606 41.006 101.396 40.166 101.396 39.23C101.396 38.306 101.6 37.472 102.008 36.728C102.428 35.984 102.998 35.408 103.718 35C104.45 34.58 105.272 34.37 106.184 34.37C107.096 34.37 107.906 34.58 108.614 35C109.334 35.408 109.892 35.984 110.288 36.728C110.696 37.472 110.9 38.324 110.9 39.284ZM106.184 35.828C105.356 35.828 104.66 36.08 104.096 36.584C103.544 37.088 103.22 37.748 103.124 38.564H109.244C109.148 37.76 108.818 37.106 108.254 36.602C107.702 36.086 107.012 35.828 106.184 35.828ZM114.955 36.062C115.255 35.51 115.699 35.09 116.287 34.802C116.875 34.514 117.589 34.37 118.429 34.37V36.044C118.333 36.032 118.201 36.026 118.033 36.026C117.097 36.026 116.359 36.308 115.819 36.872C115.291 37.424 115.027 38.216 115.027 39.248V44H113.299V34.46H114.955V36.062ZM129.388 34.46L124.762 44.954C124.354 45.926 123.874 46.61 123.322 47.006C122.782 47.402 122.128 47.6 121.36 47.6C120.892 47.6 120.436 47.522 119.992 47.366C119.56 47.222 119.2 47.006 118.912 46.718L119.65 45.422C120.142 45.89 120.712 46.124 121.36 46.124C121.78 46.124 122.128 46.01 122.404 45.782C122.692 45.566 122.95 45.188 123.178 44.648L123.484 43.982L119.272 34.46H121.072L124.402 42.092L127.696 34.46H129.388ZM138.588 32.966H134.268V31.4H144.69V32.966H140.37V44H138.588V32.966ZM146.17 34.46H147.898V44H146.17V34.46ZM147.034 32.624C146.698 32.624 146.416 32.516 146.188 32.3C145.972 32.084 145.864 31.82 145.864 31.508C145.864 31.196 145.972 30.932 146.188 30.716C146.416 30.488 146.698 30.374 147.034 30.374C147.37 30.374 147.646 30.482 147.862 30.698C148.09 30.902 148.204 31.16 148.204 31.472C148.204 31.796 148.09 32.072 147.862 32.3C147.646 32.516 147.37 32.624 147.034 32.624ZM155.356 44.108C154.384 44.108 153.514 43.898 152.746 43.478C151.99 43.058 151.396 42.482 150.964 41.75C150.532 41.006 150.316 40.166 150.316 39.23C150.316 38.294 150.532 37.46 150.964 36.728C151.396 35.984 151.99 35.408 152.746 35C153.514 34.58 154.384 34.37 155.356 34.37C156.22 34.37 156.988 34.544 157.66 34.892C158.344 35.24 158.872 35.744 159.244 36.404L157.93 37.25C157.63 36.794 157.258 36.452 156.814 36.224C156.37 35.996 155.878 35.882 155.338 35.882C154.714 35.882 154.15 36.02 153.646 36.296C153.154 36.572 152.764 36.968 152.476 37.484C152.2 37.988 152.062 38.57 152.062 39.23C152.062 39.902 152.2 40.496 152.476 41.012C152.764 41.516 153.154 41.906 153.646 42.182C154.15 42.458 154.714 42.596 155.338 42.596C155.878 42.596 156.37 42.482 156.814 42.254C157.258 42.026 157.63 41.684 157.93 41.228L159.244 42.056C158.872 42.716 158.344 43.226 157.66 43.586C156.988 43.934 156.22 44.108 155.356 44.108ZM165.066 39.554L163.086 41.39V44H161.358V30.644H163.086V39.212L168.288 34.46H170.376L166.362 38.402L170.772 44H168.648L165.066 39.554ZM180.667 39.284C180.667 39.416 180.655 39.59 180.631 39.806H172.891C172.999 40.646 173.365 41.324 173.989 41.84C174.625 42.344 175.411 42.596 176.347 42.596C177.487 42.596 178.405 42.212 179.101 41.444L180.055 42.56C179.623 43.064 179.083 43.448 178.435 43.712C177.799 43.976 177.085 44.108 176.293 44.108C175.285 44.108 174.391 43.904 173.611 43.496C172.831 43.076 172.225 42.494 171.793 41.75C171.373 41.006 171.163 40.166 171.163 39.23C171.163 38.306 171.367 37.472 171.775 36.728C172.195 35.984 172.765 35.408 173.485 35C174.217 34.58 175.039 34.37 175.951 34.37C176.863 34.37 177.673 34.58 178.381 35C179.101 35.408 179.659 35.984 180.055 36.728C180.463 37.472 180.667 38.324 180.667 39.284ZM175.951 35.828C175.123 35.828 174.427 36.08 173.863 36.584C173.311 37.088 172.987 37.748 172.891 38.564H179.011C178.915 37.76 178.585 37.106 178.021 36.602C177.469 36.086 176.779 35.828 175.951 35.828ZM188.431 43.442C188.179 43.658 187.867 43.826 187.495 43.946C187.123 44.054 186.739 44.108 186.343 44.108C185.383 44.108 184.639 43.85 184.111 43.334C183.583 42.818 183.319 42.08 183.319 41.12V35.882H181.699V34.46H183.319V32.372H185.047V34.46H187.783V35.882H185.047V41.048C185.047 41.564 185.173 41.96 185.425 42.236C185.689 42.512 186.061 42.65 186.541 42.65C187.069 42.65 187.519 42.5 187.891 42.2L188.431 43.442Z" fill="#205072"/>
</svg>
