<svg width="238" height="70" viewBox="0 0 238 70" fill="none" xmlns="http://www.w3.org/2000/svg">
<path d="M68.2078 14.48V24.24H82.2478V27.68H68.2078V39H64.2078V11H83.9678V14.48H68.2078ZM92.3278 21.36C92.9945 20.1333 93.9811 19.2 95.2878 18.56C96.5945 17.92 98.1811 17.6 100.048 17.6V21.32C99.8345 21.2933 99.5411 21.28 99.1678 21.28C97.0878 21.28 95.4478 21.9067 94.2478 23.16C93.0745 24.3867 92.4878 26.1467 92.4878 28.44V39H88.6478V17.8H92.3278V21.36ZM113.665 39.24C111.559 39.24 109.665 38.7733 107.985 37.84C106.305 36.9067 104.985 35.6267 104.025 34C103.092 32.3467 102.625 30.48 102.625 28.4C102.625 26.32 103.092 24.4667 104.025 22.84C104.985 21.1867 106.305 19.9067 107.985 19C109.665 18.0667 111.559 17.6 113.665 17.6C115.772 17.6 117.652 18.0667 119.305 19C120.985 19.9067 122.292 21.1867 123.225 22.84C124.185 24.4667 124.665 26.32 124.665 28.4C124.665 30.48 124.185 32.3467 123.225 34C122.292 35.6267 120.985 36.9067 119.305 37.84C117.652 38.7733 115.772 39.24 113.665 39.24ZM113.665 35.88C115.025 35.88 116.239 35.5733 117.305 34.96C118.399 34.32 119.252 33.44 119.865 32.32C120.479 31.1733 120.785 29.8667 120.785 28.4C120.785 26.9333 120.479 25.64 119.865 24.52C119.252 23.3733 118.399 22.4933 117.305 21.88C116.239 21.2667 115.025 20.96 113.665 20.96C112.305 20.96 111.079 21.2667 109.985 21.88C108.919 22.4933 108.065 23.3733 107.425 24.52C106.812 25.64 106.505 26.9333 106.505 28.4C106.505 29.8667 106.812 31.1733 107.425 32.32C108.065 33.44 108.919 34.32 109.985 34.96C111.079 35.5733 112.305 35.88 113.665 35.88ZM149.976 9.32V39H146.296V35.64C145.443 36.8133 144.363 37.7067 143.056 38.32C141.749 38.9333 140.309 39.24 138.736 39.24C136.683 39.24 134.843 38.7867 133.216 37.88C131.589 36.9733 130.309 35.7067 129.376 34.08C128.469 32.4267 128.016 30.5333 128.016 28.4C128.016 26.2667 128.469 24.3867 129.376 22.76C130.309 21.1333 131.589 19.8667 133.216 18.96C134.843 18.0533 136.683 17.6 138.736 17.6C140.256 17.6 141.656 17.8933 142.936 18.48C144.216 19.04 145.283 19.88 146.136 21V9.32H149.976ZM139.056 35.88C140.389 35.88 141.603 35.5733 142.696 34.96C143.789 34.32 144.643 33.44 145.256 32.32C145.869 31.1733 146.176 29.8667 146.176 28.4C146.176 26.9333 145.869 25.64 145.256 24.52C144.643 23.3733 143.789 22.4933 142.696 21.88C141.603 21.2667 140.389 20.96 139.056 20.96C137.696 20.96 136.469 21.2667 135.376 21.88C134.309 22.4933 133.456 23.3733 132.816 24.52C132.203 25.64 131.896 26.9333 131.896 28.4C131.896 29.8667 132.203 31.1733 132.816 32.32C133.456 33.44 134.309 34.32 135.376 34.96C136.469 35.5733 137.696 35.88 139.056 35.88ZM166.322 39.24C164.215 39.24 162.322 38.7733 160.642 37.84C158.962 36.9067 157.642 35.6267 156.682 34C155.748 32.3467 155.282 30.48 155.282 28.4C155.282 26.32 155.748 24.4667 156.682 22.84C157.642 21.1867 158.962 19.9067 160.642 19C162.322 18.0667 164.215 17.6 166.322 17.6C168.428 17.6 170.308 18.0667 171.962 19C173.642 19.9067 174.948 21.1867 175.882 22.84C176.842 24.4667 177.322 26.32 177.322 28.4C177.322 30.48 176.842 32.3467 175.882 34C174.948 35.6267 173.642 36.9067 171.962 37.84C170.308 38.7733 168.428 39.24 166.322 39.24ZM166.322 35.88C167.682 35.88 168.895 35.5733 169.962 34.96C171.055 34.32 171.908 33.44 172.522 32.32C173.135 31.1733 173.442 29.8667 173.442 28.4C173.442 26.9333 173.135 25.64 172.522 24.52C171.908 23.3733 171.055 22.4933 169.962 21.88C168.895 21.2667 167.682 20.96 166.322 20.96C164.962 20.96 163.735 21.2667 162.642 21.88C161.575 22.4933 160.722 23.3733 160.082 24.52C159.468 25.64 159.162 26.9333 159.162 28.4C159.162 29.8667 159.468 31.1733 160.082 32.32C160.722 33.44 161.575 34.32 162.642 34.96C163.735 35.5733 164.962 35.88 166.322 35.88Z" fill="#03A66D"/>
<path d="M102.078 63V52.824H98.1421V51.8H107.198V52.824H103.262V63H102.078ZM108.85 63V54.6H109.986V63H108.85ZM109.426 52.744C109.191 52.744 108.994 52.664 108.834 52.504C108.674 52.344 108.594 52.152 108.594 51.928C108.594 51.704 108.674 51.5173 108.834 51.368C108.994 51.208 109.191 51.128 109.426 51.128C109.66 51.128 109.858 51.2027 110.018 51.352C110.178 51.5013 110.258 51.688 110.258 51.912C110.258 52.1467 110.178 52.344 110.018 52.504C109.868 52.664 109.671 52.744 109.426 52.744ZM116.715 63.08C115.84 63.08 115.072 62.8987 114.411 62.536C113.749 62.1627 113.232 61.656 112.859 61.016C112.485 60.3653 112.299 59.624 112.299 58.792C112.299 57.96 112.475 57.224 112.827 56.584C113.189 55.944 113.68 55.4427 114.299 55.08C114.928 54.7067 115.632 54.52 116.411 54.52C117.2 54.52 117.899 54.7013 118.507 55.064C119.125 55.416 119.611 55.9173 119.963 56.568C120.315 57.208 120.491 57.9493 120.491 58.792C120.491 58.8453 120.485 58.904 120.475 58.968C120.475 59.0213 120.475 59.08 120.475 59.144H113.163V58.296H119.867L119.419 58.632C119.419 58.024 119.285 57.4853 119.019 57.016C118.763 56.536 118.411 56.1627 117.963 55.896C117.515 55.6293 116.997 55.496 116.411 55.496C115.835 55.496 115.317 55.6293 114.859 55.896C114.4 56.1627 114.043 56.536 113.787 57.016C113.531 57.496 113.403 58.0453 113.403 58.664V58.84C113.403 59.48 113.541 60.0453 113.819 60.536C114.107 61.016 114.501 61.3947 115.003 61.672C115.515 61.9387 116.096 62.072 116.747 62.072C117.259 62.072 117.733 61.9813 118.171 61.8C118.619 61.6187 119.003 61.3413 119.323 60.968L119.963 61.704C119.589 62.152 119.12 62.4933 118.555 62.728C118 62.9627 117.387 63.08 116.715 63.08ZM122.803 63V54.6H123.891V56.888L123.779 56.488C124.013 55.848 124.408 55.3627 124.963 55.032C125.517 54.6907 126.205 54.52 127.027 54.52V55.624C126.984 55.624 126.941 55.624 126.899 55.624C126.856 55.6133 126.813 55.608 126.771 55.608C125.885 55.608 125.192 55.88 124.691 56.424C124.189 56.9573 123.939 57.72 123.939 58.712V63H122.803ZM132.452 63V62.184L137.108 57.624C137.535 57.208 137.855 56.8453 138.068 56.536C138.281 56.216 138.425 55.9173 138.5 55.64C138.575 55.3627 138.612 55.1013 138.612 54.856C138.612 54.2053 138.388 53.6933 137.94 53.32C137.503 52.9467 136.852 52.76 135.988 52.76C135.327 52.76 134.74 52.8613 134.228 53.064C133.727 53.2667 133.295 53.5813 132.932 54.008L132.116 53.304C132.553 52.792 133.113 52.3973 133.796 52.12C134.479 51.8427 135.241 51.704 136.084 51.704C136.841 51.704 137.497 51.8267 138.052 52.072C138.607 52.3067 139.033 52.6533 139.332 53.112C139.641 53.5707 139.796 54.1093 139.796 54.728C139.796 55.0907 139.743 55.448 139.636 55.8C139.54 56.152 139.359 56.5253 139.092 56.92C138.836 57.304 138.457 57.7413 137.956 58.232L133.684 62.424L133.364 61.976H140.308V63H132.452Z" fill="#505050"/>
</svg>
