<svg width="238" height="49" viewBox="0 0 238 49" fill="none" xmlns="http://www.w3.org/2000/svg">
<path d="M51.0571 31.4V44H49.2751V32.966H46.4311V31.4H51.0571ZM62.6692 42.434V44H53.6152V42.776L58.7452 37.826C59.3692 37.226 59.7892 36.71 60.0052 36.278C60.2212 35.834 60.3292 35.39 60.3292 34.946C60.3292 34.286 60.0952 33.776 59.6272 33.416C59.1712 33.044 58.5112 32.858 57.6472 32.858C56.2552 32.858 55.1812 33.314 54.4252 34.226L53.2012 33.164C53.6932 32.564 54.3352 32.096 55.1272 31.76C55.9312 31.424 56.8252 31.256 57.8092 31.256C59.1292 31.256 60.1792 31.574 60.9592 32.21C61.7392 32.834 62.1292 33.686 62.1292 34.766C62.1292 35.438 61.9852 36.074 61.6972 36.674C61.4092 37.274 60.8632 37.958 60.0592 38.726L56.2072 42.434H62.6692ZM70.0091 31.4H71.8091V42.434H78.6311V44H70.0091V31.4ZM84.4076 44.108C83.4596 44.108 82.6076 43.898 81.8516 43.478C81.0956 43.058 80.5016 42.482 80.0696 41.75C79.6496 41.006 79.4396 40.166 79.4396 39.23C79.4396 38.294 79.6496 37.46 80.0696 36.728C80.5016 35.984 81.0956 35.408 81.8516 35C82.6076 34.58 83.4596 34.37 84.4076 34.37C85.3556 34.37 86.2016 34.58 86.9456 35C87.7016 35.408 88.2896 35.984 88.7096 36.728C89.1416 37.46 89.3576 38.294 89.3576 39.23C89.3576 40.166 89.1416 41.006 88.7096 41.75C88.2896 42.482 87.7016 43.058 86.9456 43.478C86.2016 43.898 85.3556 44.108 84.4076 44.108ZM84.4076 42.596C85.0196 42.596 85.5656 42.458 86.0456 42.182C86.5376 41.894 86.9216 41.498 87.1976 40.994C87.4736 40.478 87.6116 39.89 87.6116 39.23C87.6116 38.57 87.4736 37.988 87.1976 37.484C86.9216 36.968 86.5376 36.572 86.0456 36.296C85.5656 36.02 85.0196 35.882 84.4076 35.882C83.7956 35.882 83.2436 36.02 82.7516 36.296C82.2716 36.572 81.8876 36.968 81.5996 37.484C81.3236 37.988 81.1856 38.57 81.1856 39.23C81.1856 39.89 81.3236 40.478 81.5996 40.994C81.8876 41.498 82.2716 41.894 82.7516 42.182C83.2436 42.458 83.7956 42.596 84.4076 42.596ZM97.1114 43.442C96.8594 43.658 96.5474 43.826 96.1754 43.946C95.8034 44.054 95.4194 44.108 95.0234 44.108C94.0634 44.108 93.3194 43.85 92.7914 43.334C92.2634 42.818 91.9994 42.08 91.9994 41.12V35.882H90.3794V34.46H91.9994V32.372H93.7274V34.46H96.4634V35.882H93.7274V41.048C93.7274 41.564 93.8534 41.96 94.1054 42.236C94.3694 42.512 94.7414 42.65 95.2214 42.65C95.7494 42.65 96.1994 42.5 96.5714 42.2L97.1114 43.442ZM104.336 43.442C104.084 43.658 103.772 43.826 103.4 43.946C103.028 44.054 102.644 44.108 102.248 44.108C101.288 44.108 100.544 43.85 100.016 43.334C99.488 42.818 99.224 42.08 99.224 41.12V35.882H97.604V34.46H99.224V32.372H100.952V34.46H103.688V35.882H100.952V41.048C100.952 41.564 101.078 41.96 101.33 42.236C101.594 42.512 101.966 42.65 102.446 42.65C102.974 42.65 103.424 42.5 103.796 42.2L104.336 43.442ZM114.731 39.284C114.731 39.416 114.719 39.59 114.695 39.806H106.955C107.063 40.646 107.429 41.324 108.053 41.84C108.689 42.344 109.475 42.596 110.411 42.596C111.551 42.596 112.469 42.212 113.165 41.444L114.119 42.56C113.687 43.064 113.147 43.448 112.499 43.712C111.863 43.976 111.149 44.108 110.357 44.108C109.349 44.108 108.455 43.904 107.675 43.496C106.895 43.076 106.289 42.494 105.857 41.75C105.437 41.006 105.227 40.166 105.227 39.23C105.227 38.306 105.431 37.472 105.839 36.728C106.259 35.984 106.829 35.408 107.549 35C108.281 34.58 109.103 34.37 110.015 34.37C110.927 34.37 111.737 34.58 112.445 35C113.165 35.408 113.723 35.984 114.119 36.728C114.527 37.472 114.731 38.324 114.731 39.284ZM110.015 35.828C109.187 35.828 108.491 36.08 107.927 36.584C107.375 37.088 107.051 37.748 106.955 38.564H113.075C112.979 37.76 112.649 37.106 112.085 36.602C111.533 36.086 110.843 35.828 110.015 35.828ZM118.786 36.062C119.086 35.51 119.53 35.09 120.118 34.802C120.706 34.514 121.42 34.37 122.26 34.37V36.044C122.164 36.032 122.032 36.026 121.864 36.026C120.928 36.026 120.19 36.308 119.65 36.872C119.122 37.424 118.858 38.216 118.858 39.248V44H117.13V34.46H118.786V36.062ZM133.219 34.46L128.593 44.954C128.185 45.926 127.705 46.61 127.153 47.006C126.613 47.402 125.959 47.6 125.191 47.6C124.723 47.6 124.267 47.522 123.823 47.366C123.391 47.222 123.031 47.006 122.743 46.718L123.481 45.422C123.973 45.89 124.543 46.124 125.191 46.124C125.611 46.124 125.959 46.01 126.235 45.782C126.523 45.566 126.781 45.188 127.009 44.648L127.315 43.982L123.103 34.46H124.903L128.233 42.092L131.527 34.46H133.219ZM142.419 32.966H138.099V31.4H148.521V32.966H144.201V44H142.419V32.966ZM150.001 34.46H151.729V44H150.001V34.46ZM150.865 32.624C150.529 32.624 150.247 32.516 150.019 32.3C149.803 32.084 149.695 31.82 149.695 31.508C149.695 31.196 149.803 30.932 150.019 30.716C150.247 30.488 150.529 30.374 150.865 30.374C151.201 30.374 151.477 30.482 151.693 30.698C151.921 30.902 152.035 31.16 152.035 31.472C152.035 31.796 151.921 32.072 151.693 32.3C151.477 32.516 151.201 32.624 150.865 32.624ZM159.187 44.108C158.215 44.108 157.345 43.898 156.577 43.478C155.821 43.058 155.227 42.482 154.795 41.75C154.363 41.006 154.147 40.166 154.147 39.23C154.147 38.294 154.363 37.46 154.795 36.728C155.227 35.984 155.821 35.408 156.577 35C157.345 34.58 158.215 34.37 159.187 34.37C160.051 34.37 160.819 34.544 161.491 34.892C162.175 35.24 162.703 35.744 163.075 36.404L161.761 37.25C161.461 36.794 161.089 36.452 160.645 36.224C160.201 35.996 159.709 35.882 159.169 35.882C158.545 35.882 157.981 36.02 157.477 36.296C156.985 36.572 156.595 36.968 156.307 37.484C156.031 37.988 155.893 38.57 155.893 39.23C155.893 39.902 156.031 40.496 156.307 41.012C156.595 41.516 156.985 41.906 157.477 42.182C157.981 42.458 158.545 42.596 159.169 42.596C159.709 42.596 160.201 42.482 160.645 42.254C161.089 42.026 161.461 41.684 161.761 41.228L163.075 42.056C162.703 42.716 162.175 43.226 161.491 43.586C160.819 43.934 160.051 44.108 159.187 44.108ZM168.897 39.554L166.917 41.39V44H165.189V30.644H166.917V39.212L172.119 34.46H174.207L170.193 38.402L174.603 44H172.479L168.897 39.554ZM184.498 39.284C184.498 39.416 184.486 39.59 184.462 39.806H176.722C176.83 40.646 177.196 41.324 177.82 41.84C178.456 42.344 179.242 42.596 180.178 42.596C181.318 42.596 182.236 42.212 182.932 41.444L183.886 42.56C183.454 43.064 182.914 43.448 182.266 43.712C181.63 43.976 180.916 44.108 180.124 44.108C179.116 44.108 178.222 43.904 177.442 43.496C176.662 43.076 176.056 42.494 175.624 41.75C175.204 41.006 174.994 40.166 174.994 39.23C174.994 38.306 175.198 37.472 175.606 36.728C176.026 35.984 176.596 35.408 177.316 35C178.048 34.58 178.87 34.37 179.782 34.37C180.694 34.37 181.504 34.58 182.212 35C182.932 35.408 183.49 35.984 183.886 36.728C184.294 37.472 184.498 38.324 184.498 39.284ZM179.782 35.828C178.954 35.828 178.258 36.08 177.694 36.584C177.142 37.088 176.818 37.748 176.722 38.564H182.842C182.746 37.76 182.416 37.106 181.852 36.602C181.3 36.086 180.61 35.828 179.782 35.828ZM192.262 43.442C192.01 43.658 191.698 43.826 191.326 43.946C190.954 44.054 190.57 44.108 190.174 44.108C189.214 44.108 188.47 43.85 187.942 43.334C187.414 42.818 187.15 42.08 187.15 41.12V35.882H185.53V34.46H187.15V32.372H188.878V34.46H191.614V35.882H188.878V41.048C188.878 41.564 189.004 41.96 189.256 42.236C189.52 42.512 189.892 42.65 190.372 42.65C190.9 42.65 191.35 42.5 191.722 42.2L192.262 43.442Z" fill="#205072"/>
</svg>
