<svg width="165" height="28" viewBox="0 0 165 28" fill="none" xmlns="http://www.w3.org/2000/svg">
<path d="M39.4526 21.6552C38.1725 21.6552 36.9839 21.4621 35.8867 21.0759C34.8077 20.6713 33.9665 20.1655 33.3631 19.5586C33.0887 19.2644 32.9699 18.9333 33.0065 18.5655C33.0613 18.1793 33.2442 17.8667 33.5551 17.6276C33.9208 17.3333 34.2774 17.2138 34.6249 17.269C34.9906 17.3057 35.3015 17.4621 35.5575 17.7379C35.8684 18.0874 36.3621 18.4184 37.0387 18.731C37.7336 19.0253 38.5017 19.1724 39.3429 19.1724C40.4035 19.1724 41.2082 18.9977 41.7568 18.6483C42.3237 18.2989 42.6163 17.8483 42.6346 17.2966C42.6528 16.7448 42.3877 16.2667 41.8391 15.8621C41.3087 15.4575 40.3304 15.1264 38.904 14.869C37.057 14.5012 35.7129 13.9494 34.8717 13.2138C34.0488 12.4782 33.6374 11.577 33.6374 10.5103C33.6374 9.57241 33.9117 8.8 34.4603 8.1931C35.0089 7.56782 35.7129 7.10805 36.5724 6.81379C37.4319 6.50115 38.328 6.34483 39.2606 6.34483C40.4675 6.34483 41.5373 6.53793 42.47 6.92414C43.4026 7.31034 44.1432 7.84368 44.6918 8.52414C44.9479 8.81839 45.0667 9.13103 45.0484 9.46207C45.0301 9.77471 44.8747 10.0414 44.5821 10.2621C44.2895 10.4644 43.9421 10.5287 43.5398 10.4552C43.1374 10.3816 42.7991 10.2161 42.5248 9.95862C42.0677 9.51724 41.5739 9.21379 41.0436 9.04828C40.5133 8.88276 39.9006 8.8 39.2057 8.8C38.4011 8.8 37.7154 8.93793 37.1485 9.21379C36.5998 9.48966 36.3255 9.89425 36.3255 10.4276C36.3255 10.7586 36.4078 11.0621 36.5724 11.3379C36.7553 11.5954 37.1027 11.8345 37.6148 12.0552C38.1268 12.2575 38.8766 12.4598 39.8641 12.6621C41.9305 13.0667 43.3569 13.646 44.1432 14.4C44.9479 15.1356 45.3502 16.046 45.3502 17.131C45.3502 17.977 45.1216 18.7402 44.6644 19.4207C44.2255 20.1011 43.5672 20.6437 42.6894 21.0483C41.8299 21.4529 40.751 21.6552 39.4526 21.6552Z" fill="white"/>
<path d="M52.3441 21.5448C52.0515 21.5448 51.7772 21.4621 51.5212 21.2966C51.2834 21.1126 51.1189 20.892 51.0274 20.6345L46.9677 8.38621C46.8214 7.81609 46.8214 7.35632 46.9677 7.0069C47.1323 6.63908 47.4797 6.45517 48.0101 6.45517C48.3575 6.45517 48.641 6.55632 48.8604 6.75862C49.0981 6.94253 49.2902 7.26437 49.4365 7.72414L52.3989 17.0207L55.1969 7.50345C55.2883 7.1908 55.4437 6.94253 55.6632 6.75862C55.8826 6.55632 56.1844 6.45517 56.5684 6.45517C56.9341 6.45517 57.2267 6.55632 57.4462 6.75862C57.6839 6.94253 57.8393 7.1908 57.9125 7.50345L60.3812 17.2138L63.3986 7.72414C63.6546 6.87816 64.1301 6.45517 64.825 6.45517C65.337 6.45517 65.6844 6.63908 65.8673 7.0069C66.0502 7.35632 66.041 7.81609 65.8399 8.38621L61.7802 20.6345C61.707 20.892 61.5516 21.1126 61.3139 21.2966C61.0761 21.4621 60.8018 21.5448 60.4909 21.5448C60.1983 21.5448 59.924 21.4621 59.668 21.2966C59.412 21.1126 59.2474 20.892 59.1743 20.6345L56.4861 10.6207L53.6608 20.6345C53.5876 20.892 53.423 21.1126 53.167 21.2966C52.9293 21.4621 52.655 21.5448 52.3441 21.5448Z" fill="white"/>
<path d="M75.3585 21.6552C73.8407 21.6552 72.4874 21.3333 71.2988 20.6897C70.1284 20.0276 69.2049 19.1264 68.5283 17.9862C67.87 16.8276 67.5408 15.5034 67.5408 14.0138C67.5408 12.5057 67.8517 11.1816 68.4734 10.0414C69.1135 8.88276 69.9912 7.98161 71.1068 7.33793C72.2223 6.67586 73.5023 6.34483 74.947 6.34483C76.3734 6.34483 77.5986 6.66667 78.6227 7.31034C79.6468 7.93563 80.424 8.8092 80.9543 9.93103C81.5029 11.0345 81.7772 12.3126 81.7772 13.7655C81.7772 14.1149 81.6583 14.4092 81.4206 14.6483C81.1829 14.869 80.8811 14.9793 80.5154 14.9793H70.0918C70.293 16.2483 70.869 17.2874 71.8199 18.0966C72.7892 18.8874 73.9687 19.2828 75.3585 19.2828C75.9254 19.2828 76.5014 19.1816 77.0866 18.9793C77.6901 18.7586 78.1747 18.5103 78.5404 18.2345C78.8147 18.0322 79.1073 17.931 79.4182 17.931C79.7474 17.9126 80.0308 18.0046 80.2685 18.2069C80.5794 18.4828 80.744 18.7862 80.7623 19.1172C80.7806 19.4483 80.6343 19.7333 80.3234 19.9724C79.7016 20.469 78.9244 20.8736 77.9918 21.1862C77.0775 21.4988 76.1997 21.6552 75.3585 21.6552ZM74.947 8.71724C73.5938 8.71724 72.5057 9.09425 71.6828 9.84828C70.8599 10.6023 70.3387 11.577 70.1193 12.7724H79.2536C79.089 11.5954 78.641 10.6299 77.9095 9.87586C77.178 9.10345 76.1905 8.71724 74.947 8.71724Z" fill="white"/>
<path d="M91.8596 21.6552C90.3418 21.6552 88.9886 21.3333 87.7999 20.6897C86.6296 20.0276 85.7061 19.1264 85.0294 17.9862C84.3711 16.8276 84.0419 15.5034 84.0419 14.0138C84.0419 12.5057 84.3528 11.1816 84.9746 10.0414C85.6146 8.88276 86.4924 7.98161 87.6079 7.33793C88.7234 6.67586 90.0035 6.34483 91.4482 6.34483C92.8746 6.34483 94.0998 6.66667 95.1239 7.31034C96.1479 7.93563 96.9251 8.8092 97.4554 9.93103C98.0041 11.0345 98.2784 12.3126 98.2784 13.7655C98.2784 14.1149 98.1595 14.4092 97.9218 14.6483C97.684 14.869 97.3823 14.9793 97.0166 14.9793H86.593C86.7941 16.2483 87.3702 17.2874 88.3211 18.0966C89.2903 18.8874 90.4698 19.2828 91.8596 19.2828C92.4265 19.2828 93.0026 19.1816 93.5877 18.9793C94.1912 18.7586 94.6758 18.5103 95.0416 18.2345C95.3159 18.0322 95.6085 17.931 95.9193 17.931C96.2485 17.9126 96.5319 18.0046 96.7697 18.2069C97.0806 18.4828 97.2451 18.7862 97.2634 19.1172C97.2817 19.4483 97.1354 19.7333 96.8245 19.9724C96.2028 20.469 95.4256 20.8736 94.493 21.1862C93.5786 21.4988 92.7008 21.6552 91.8596 21.6552ZM91.4482 8.71724C90.0949 8.71724 89.0069 9.09425 88.1839 9.84828C87.361 10.6023 86.8398 11.577 86.6204 12.7724H95.7548C95.5902 11.5954 95.1421 10.6299 94.4107 9.87586C93.6792 9.10345 92.6917 8.71724 91.4482 8.71724Z" fill="white"/>
<path d="M107.306 21.5448C106.391 21.5448 105.568 21.3149 104.837 20.8552C104.105 20.377 103.529 19.7333 103.109 18.9241C102.688 18.1149 102.478 17.2046 102.478 16.1931V9.37931H101.216C100.832 9.37931 100.521 9.26897 100.283 9.04828C100.046 8.82759 99.9268 8.55172 99.9268 8.22069C99.9268 7.85287 100.046 7.55862 100.283 7.33793C100.521 7.11724 100.832 7.0069 101.216 7.0069H102.478V3.03448C102.478 2.62989 102.606 2.29885 102.862 2.04138C103.118 1.78391 103.447 1.65517 103.849 1.65517C104.252 1.65517 104.581 1.78391 104.837 2.04138C105.093 2.29885 105.221 2.62989 105.221 3.03448V7.0069H107.552C107.936 7.0069 108.247 7.11724 108.485 7.33793C108.723 7.55862 108.842 7.85287 108.842 8.22069C108.842 8.55172 108.723 8.82759 108.485 9.04828C108.247 9.26897 107.936 9.37931 107.552 9.37931H105.221V16.1931C105.221 16.9287 105.422 17.5448 105.824 18.0414C106.227 18.5379 106.72 18.7862 107.306 18.7862H108.238C108.567 18.7862 108.842 18.9149 109.061 19.1724C109.299 19.4299 109.418 19.7609 109.418 20.1655C109.418 20.5701 109.262 20.9011 108.951 21.1586C108.659 21.4161 108.275 21.5448 107.799 21.5448H107.306Z" fill="white"/>
<path d="M114.256 28C113.853 28 113.515 27.8621 113.241 27.5862C112.985 27.3287 112.857 26.9977 112.857 26.5931V14.0138C112.875 12.5609 113.213 11.2552 113.872 10.0966C114.53 8.93793 115.426 8.02759 116.56 7.36552C117.693 6.68506 118.974 6.34483 120.4 6.34483C121.845 6.34483 123.134 6.68506 124.268 7.36552C125.401 8.02759 126.298 8.93793 126.956 10.0966C127.632 11.2552 127.971 12.5609 127.971 14.0138C127.971 15.4667 127.66 16.7724 127.038 17.931C126.435 19.0713 125.603 19.9816 124.542 20.6621C123.481 21.3241 122.284 21.6552 120.949 21.6552C119.87 21.6552 118.873 21.4345 117.959 20.9931C117.063 20.5333 116.295 19.9172 115.654 19.1448V26.5931C115.654 26.9977 115.526 27.3287 115.27 27.5862C115.014 27.8621 114.676 28 114.256 28ZM120.4 19.1724C121.333 19.1724 122.165 18.9517 122.896 18.5103C123.628 18.0506 124.204 17.4345 124.624 16.6621C125.063 15.8713 125.283 14.9885 125.283 14.0138C125.283 13.0207 125.063 12.1379 124.624 11.3655C124.204 10.5747 123.628 9.95862 122.896 9.51724C122.165 9.05747 121.333 8.82759 120.4 8.82759C119.486 8.82759 118.654 9.05747 117.904 9.51724C117.172 9.95862 116.596 10.5747 116.176 11.3655C115.755 12.1379 115.545 13.0207 115.545 14.0138C115.545 14.9885 115.755 15.8713 116.176 16.6621C116.596 17.4345 117.172 18.0506 117.904 18.5103C118.654 18.9517 119.486 19.1724 120.4 19.1724Z" fill="white"/>
<path d="M138.398 21.6552C137.063 21.6552 135.865 21.3241 134.804 20.6621C133.744 19.9816 132.903 19.0713 132.281 17.931C131.677 16.7724 131.376 15.4667 131.376 14.0138C131.376 12.5609 131.705 11.2552 132.363 10.0966C133.04 8.93793 133.945 8.02759 135.079 7.36552C136.231 6.68506 137.52 6.34483 138.946 6.34483C140.373 6.34483 141.653 6.68506 142.787 7.36552C143.92 8.02759 144.817 8.93793 145.475 10.0966C146.151 11.2552 146.49 12.5609 146.49 14.0138V20.1655C146.49 20.5701 146.353 20.9103 146.078 21.1862C145.822 21.4437 145.493 21.5724 145.091 21.5724C144.689 21.5724 144.35 21.4437 144.076 21.1862C143.82 20.9103 143.692 20.5701 143.692 20.1655V19.1448C143.052 19.9172 142.275 20.5333 141.36 20.9931C140.464 21.4345 139.477 21.6552 138.398 21.6552ZM138.946 19.1724C139.879 19.1724 140.711 18.9517 141.443 18.5103C142.174 18.0506 142.75 17.4345 143.171 16.6621C143.591 15.8713 143.802 14.9885 143.802 14.0138C143.802 13.0207 143.591 12.1379 143.171 11.3655C142.75 10.5747 142.174 9.95862 141.443 9.51724C140.711 9.05747 139.879 8.82759 138.946 8.82759C138.032 8.82759 137.2 9.05747 136.45 9.51724C135.719 9.95862 135.134 10.5747 134.695 11.3655C134.274 12.1379 134.064 13.0207 134.064 14.0138C134.064 14.9885 134.274 15.8713 134.695 16.6621C135.134 17.4345 135.719 18.0506 136.45 18.5103C137.2 18.9517 138.032 19.1724 138.946 19.1724Z" fill="white"/>
<path d="M157.457 21.6552C156.03 21.6552 154.741 21.3241 153.589 20.6621C152.455 19.9816 151.55 19.0621 150.873 17.9035C150.215 16.7448 149.886 15.4391 149.886 13.9862C149.886 12.5333 150.188 11.2368 150.791 10.0966C151.413 8.93793 152.254 8.02759 153.315 7.36552C154.375 6.68506 155.573 6.34483 156.908 6.34483C157.987 6.34483 158.984 6.57471 159.898 7.03448C160.812 7.47586 161.58 8.08276 162.202 8.85517V1.4069C162.202 0.983908 162.33 0.643678 162.586 0.386207C162.86 0.128736 163.199 0 163.601 0C164.022 0 164.36 0.128736 164.616 0.386207C164.872 0.643678 165 0.983908 165 1.4069V13.9862C165 15.4391 164.662 16.7448 163.985 17.9035C163.327 19.0621 162.431 19.9816 161.297 20.6621C160.163 21.3241 158.883 21.6552 157.457 21.6552ZM157.457 19.1724C158.389 19.1724 159.221 18.9517 159.953 18.5103C160.684 18.0506 161.26 17.4253 161.681 16.6345C162.102 15.8437 162.312 14.9609 162.312 13.9862C162.312 12.9931 162.102 12.1103 161.681 11.3379C161.26 10.5655 160.684 9.95862 159.953 9.51724C159.221 9.05747 158.389 8.82759 157.457 8.82759C156.542 8.82759 155.71 9.05747 154.96 9.51724C154.229 9.95862 153.644 10.5655 153.205 11.3379C152.784 12.1103 152.574 12.9931 152.574 13.9862C152.574 14.9609 152.784 15.8437 153.205 16.6345C153.644 17.4253 154.229 18.0506 154.96 18.5103C155.71 18.9517 156.542 19.1724 157.457 19.1724Z" fill="white"/>
<path d="M12.9733 26C19.5859 26 24.9466 20.6274 24.9466 14C24.9466 7.37258 19.5859 2 12.9733 2C6.36062 2 1 7.37258 1 14C1 20.6274 6.36062 26 12.9733 26Z" fill="#E8EEEB"/>
<path d="M12.8325 22.344C17.5865 22.344 21.4403 18.4815 21.4403 13.7169C21.4403 8.95231 17.5865 5.08984 12.8325 5.08984C8.07848 5.08984 4.22461 8.95231 4.22461 13.7169C4.22461 18.4815 8.07848 22.344 12.8325 22.344Z" fill="#F3F9F2"/>
<path d="M2.51758 8.32049C2.51758 8.32049 5.19807 4.08947 7.06848 3.64062C7.06848 3.64062 14.6687 6.64723 12.9234 13.9542C12.9234 13.9542 12.143 7.44261 2.51758 8.32049Z" fill="#B978FA"/>
<path d="M12.793 2.07227C12.793 2.07227 17.087 2.11847 19.1517 3.75873C19.1517 3.75873 19.9684 12.2406 13.0004 14.0228C12.9971 14.0228 18.0486 8.85444 12.793 2.07227Z" fill="#B978FA"/>
<path d="M23.255 7.92383C23.255 7.92383 25.3592 11.4156 24.9476 14.0228C24.9476 14.0228 23.3208 15.6004 20.917 15.9964C18.6053 16.376 15.668 16.4321 13.1719 14.0327C13.1719 14.0327 20.1102 16.2341 23.255 7.92383Z" fill="#B978FA"/>
<path d="M23.3961 19.9574C23.3961 19.9574 21.3874 22.9706 19.1844 24.3271C19.1844 24.3271 11.1528 21.4624 13.0035 14.2148C13.0035 14.2148 15.4304 21.865 23.3961 19.9574Z" fill="#B978FA"/>
<path d="M12.9975 26.0005C12.9975 26.0005 9.34554 25.8586 7.05692 24.3965C7.05692 24.3965 5.66069 16.1754 12.8328 14.1094C12.8328 14.1094 7.51135 19.3965 12.9975 26.0005Z" fill="#B978FA"/>
<path d="M2.75593 20.119C2.75593 20.119 0.895393 17.7296 1.05016 14.0233C1.05016 14.0233 7.25085 8.6405 12.9214 14.0926C12.9181 14.0926 6.66799 12.2082 2.75593 20.119Z" fill="#B978FA"/>
<path d="M12.793 2.07227C12.793 2.07227 16.817 2.09537 19.1517 3.75873L18.8553 7.57392C18.8553 7.57392 17.2187 5.83794 14.6107 5.24388C14.6107 5.24388 13.2276 2.23728 12.793 2.07227Z" fill="#A556F3"/>
<path d="M23.2865 7.9668C23.2865 7.9668 25.2293 11.2044 24.9 14.0559L23.135 15.2407L21.1855 15.9701C21.1855 15.9701 21.6993 14.2473 21.2316 11.5675C21.2316 11.5675 23.349 8.42884 23.2865 7.9668Z" fill="#A556F3"/>
<path d="M23.3329 19.9632C23.3329 19.9632 21.9828 22.6233 19.1838 24.3229C19.1838 24.3229 16.3617 23.1942 15.3672 21.983C15.3672 21.983 17.8567 20.9599 18.8512 19.917C18.8512 19.917 21.5086 20.6299 23.3329 19.9632Z" fill="#A556F3"/>
<path d="M2.51758 8.32049C2.51758 8.32049 4.22334 5.06637 7.06848 3.64062C7.06848 3.64062 9.79507 5.16208 10.0552 5.46901C10.0552 5.46901 7.42412 6.3469 6.09705 8.29739C6.09705 8.29739 3.43961 7.99046 2.51758 8.32049Z" fill="#A556F3"/>
<path d="M1.04493 14.0231C1.04493 14.0231 3.32038 12.4323 4.36426 12.1221C4.36426 12.1221 3.77152 14.6897 4.8154 16.9472C4.8154 16.9472 2.82314 19.561 2.75399 20.1188C2.75399 20.1188 0.975782 17.2574 1.04493 14.0231Z" fill="#A556F3"/>
<path d="M7.05608 24.3957C7.05608 24.3957 6.77289 21.6499 7.12853 20.4023C7.12853 20.4023 8.58732 21.7225 10.8628 22.1482C10.8628 22.1482 12.2491 25.7126 12.9966 25.9964C12.9966 25.9997 9.40398 26.0723 7.05608 24.3957Z" fill="#A556F3"/>
<path d="M6.27148 8.0696C6.45918 7.75277 6.68311 7.45904 6.93337 7.19172C7.18364 6.92109 7.45696 6.67026 7.75333 6.44914C8.04969 6.22472 8.36911 6.0366 8.705 5.88148C8.87294 5.80558 9.05076 5.74287 9.22858 5.69337C9.4064 5.64716 9.58752 5.61416 9.77192 5.59766C9.59739 5.66036 9.42945 5.72307 9.2648 5.79898C9.10015 5.87488 8.94209 5.95409 8.78403 6.0432C8.47119 6.22142 8.17483 6.41614 7.88834 6.63396C7.60185 6.84848 7.32524 7.0795 7.05851 7.32043C6.79178 7.56135 6.53163 7.80888 6.27148 8.0696Z" fill="white"/>
<path d="M4.00958 12.8119C4.09191 12.7657 4.17423 12.7228 4.25985 12.6832C4.34547 12.6436 4.43108 12.6073 4.51999 12.571C4.69452 12.5017 4.87234 12.439 5.05346 12.3829C5.41239 12.274 5.7845 12.1948 6.15661 12.1453C6.20271 12.1387 6.2521 12.1321 6.29821 12.1288C6.34431 12.1255 6.3937 12.1189 6.4398 12.1156C6.5353 12.109 6.6275 12.1024 6.723 12.0991C6.9107 12.0925 7.10169 12.0925 7.28939 12.1057C7.66809 12.1255 8.04019 12.1981 8.39913 12.3169C8.03031 12.2872 7.65821 12.2773 7.2861 12.2872C7.1939 12.2872 7.10169 12.2938 7.00949 12.2971C6.91729 12.3004 6.82508 12.307 6.73288 12.3169C6.54847 12.3301 6.36736 12.3499 6.18624 12.3763C5.82072 12.4225 5.45849 12.4852 5.09627 12.5611C4.73404 12.637 4.37181 12.7162 4.00958 12.8119Z" fill="white"/>
<path d="M13.001 25.9772C19.6009 25.9772 24.9512 20.615 24.9512 14.0003C24.9512 7.38568 19.6009 2.02344 13.001 2.02344C6.40108 2.02344 1.05078 7.38568 1.05078 14.0003C1.05078 20.615 6.40108 25.9772 13.001 25.9772Z" stroke="#E8EEEB" stroke-width="0.5" stroke-linecap="round" stroke-linejoin="round"/>
<path d="M12.7949 2.04883C12.7949 2.04883 17.9451 7.7287 12.9991 14.0026C12.9991 14.0026 19.4369 13.1841 19.1504 3.7386" stroke="#E8EEEB" stroke-width="0.5" stroke-linecap="round" stroke-linejoin="round"/>
<path d="M23.2576 7.90137C20.3401 16.172 13 14.0004 13 14.0004C13 14.0004 18.7265 18.9905 24.9502 14.0004" stroke="#E8EEEB" stroke-width="0.5" stroke-linecap="round" stroke-linejoin="round"/>
<path d="M23.3491 19.9175C15.3472 21.7723 12.9993 14 12.9993 14C12.9993 14 10.7238 20.736 19.0452 24.231" stroke="#E8EEEB" stroke-width="0.5" stroke-linecap="round" stroke-linejoin="round"/>
<path d="M12.9984 25.9769C7.41353 18.8119 12.9984 14 12.9984 14C12.9984 14 6.13586 14.9637 7.05789 24.3729" stroke="#E8EEEB" stroke-width="0.5" stroke-linecap="round" stroke-linejoin="round"/>
<path d="M2.75984 20.0955C6.77728 12.0031 13.001 13.9998 13.001 13.9998C13.001 13.9998 7.88043 8.61696 1.05078 13.9998" stroke="#E8EEEB" stroke-width="0.5" stroke-linecap="round" stroke-linejoin="round"/>
<path d="M2.5293 8.29093C11.7035 7.14901 13.001 14.0005 13.001 14.0005C13.001 14.0005 15.1908 7.23152 7.01104 3.63086" stroke="#E8EEEB" stroke-width="0.5" stroke-linecap="round" stroke-linejoin="round"/>
</svg>
