<svg width="238" height="70" viewBox="0 0 238 70" fill="none" xmlns="http://www.w3.org/2000/svg">
<path d="M91.5105 11V39H87.5105V26.52H71.4305V39H67.4305V11H71.4305V23.04H87.5105V11H91.5105ZM119.091 17.8V39H115.451V35.8C114.678 36.8933 113.651 37.7467 112.371 38.36C111.118 38.9467 109.745 39.24 108.251 39.24C105.425 39.24 103.198 38.4667 101.571 36.92C99.9447 35.3467 99.1314 33.04 99.1314 30V17.8H102.971V29.56C102.971 31.6133 103.465 33.1733 104.451 34.24C105.438 35.28 106.851 35.8 108.691 35.8C110.718 35.8 112.318 35.1867 113.491 33.96C114.665 32.7333 115.251 31 115.251 28.76V17.8H119.091ZM146.682 17.8V36.12C146.682 39.8267 145.762 42.56 143.922 44.32C142.082 46.1067 139.335 47 135.682 47C133.682 47 131.775 46.72 129.962 46.16C128.148 45.6267 126.682 44.8533 125.562 43.84L127.402 40.88C128.388 41.7333 129.602 42.4 131.042 42.88C132.508 43.3867 134.015 43.64 135.562 43.64C138.042 43.64 139.868 43.0533 141.042 41.88C142.242 40.7067 142.842 38.92 142.842 36.52V34.84C141.935 35.9333 140.815 36.76 139.482 37.32C138.175 37.8533 136.748 38.12 135.202 38.12C133.175 38.12 131.335 37.6933 129.682 36.84C128.055 35.96 126.775 34.7467 125.842 33.2C124.908 31.6267 124.442 29.84 124.442 27.84C124.442 25.84 124.908 24.0667 125.842 22.52C126.775 20.9467 128.055 19.7333 129.682 18.88C131.335 18.0267 133.175 17.6 135.202 17.6C136.802 17.6 138.282 17.8933 139.642 18.48C141.028 19.0667 142.162 19.9333 143.042 21.08V17.8H146.682ZM135.642 34.76C137.028 34.76 138.268 34.4667 139.362 33.88C140.482 33.2933 141.348 32.48 141.962 31.44C142.602 30.3733 142.922 29.1733 142.922 27.84C142.922 25.7867 142.242 24.1333 140.882 22.88C139.522 21.6 137.775 20.96 135.642 20.96C133.482 20.96 131.722 21.6 130.362 22.88C129.002 24.1333 128.322 25.7867 128.322 27.84C128.322 29.1733 128.628 30.3733 129.242 31.44C129.882 32.48 130.748 33.2933 131.842 33.88C132.962 34.4667 134.228 34.76 135.642 34.76ZM163.099 39.24C160.992 39.24 159.099 38.7733 157.419 37.84C155.739 36.9067 154.419 35.6267 153.459 34C152.526 32.3467 152.059 30.48 152.059 28.4C152.059 26.32 152.526 24.4667 153.459 22.84C154.419 21.1867 155.739 19.9067 157.419 19C159.099 18.0667 160.992 17.6 163.099 17.6C165.206 17.6 167.086 18.0667 168.739 19C170.419 19.9067 171.726 21.1867 172.659 22.84C173.619 24.4667 174.099 26.32 174.099 28.4C174.099 30.48 173.619 32.3467 172.659 34C171.726 35.6267 170.419 36.9067 168.739 37.84C167.086 38.7733 165.206 39.24 163.099 39.24ZM163.099 35.88C164.459 35.88 165.672 35.5733 166.739 34.96C167.832 34.32 168.686 33.44 169.299 32.32C169.912 31.1733 170.219 29.8667 170.219 28.4C170.219 26.9333 169.912 25.64 169.299 24.52C168.686 23.3733 167.832 22.4933 166.739 21.88C165.672 21.2667 164.459 20.96 163.099 20.96C161.739 20.96 160.512 21.2667 159.419 21.88C158.352 22.4933 157.499 23.3733 156.859 24.52C156.246 25.64 155.939 26.9333 155.939 28.4C155.939 29.8667 156.246 31.1733 156.859 32.32C157.499 33.44 158.352 34.32 159.419 34.96C160.512 35.5733 161.739 35.88 163.099 35.88Z" fill="#03A66D"/>
<path d="M102.109 63V52.824H98.1734V51.8H107.229V52.824H103.293V63H102.109ZM108.881 63V54.6H110.017V63H108.881ZM109.457 52.744C109.222 52.744 109.025 52.664 108.865 52.504C108.705 52.344 108.625 52.152 108.625 51.928C108.625 51.704 108.705 51.5173 108.865 51.368C109.025 51.208 109.222 51.128 109.457 51.128C109.692 51.128 109.889 51.2027 110.049 51.352C110.209 51.5013 110.289 51.688 110.289 51.912C110.289 52.1467 110.209 52.344 110.049 52.504C109.9 52.664 109.702 52.744 109.457 52.744ZM116.746 63.08C115.871 63.08 115.103 62.8987 114.442 62.536C113.78 62.1627 113.263 61.656 112.89 61.016C112.516 60.3653 112.33 59.624 112.33 58.792C112.33 57.96 112.506 57.224 112.858 56.584C113.22 55.944 113.711 55.4427 114.33 55.08C114.959 54.7067 115.663 54.52 116.442 54.52C117.231 54.52 117.93 54.7013 118.538 55.064C119.156 55.416 119.642 55.9173 119.994 56.568C120.346 57.208 120.522 57.9493 120.522 58.792C120.522 58.8453 120.516 58.904 120.506 58.968C120.506 59.0213 120.506 59.08 120.506 59.144H113.194V58.296H119.898L119.45 58.632C119.45 58.024 119.316 57.4853 119.05 57.016C118.794 56.536 118.442 56.1627 117.994 55.896C117.546 55.6293 117.028 55.496 116.442 55.496C115.866 55.496 115.348 55.6293 114.89 55.896C114.431 56.1627 114.074 56.536 113.818 57.016C113.562 57.496 113.434 58.0453 113.434 58.664V58.84C113.434 59.48 113.572 60.0453 113.85 60.536C114.138 61.016 114.532 61.3947 115.034 61.672C115.546 61.9387 116.127 62.072 116.778 62.072C117.29 62.072 117.764 61.9813 118.202 61.8C118.65 61.6187 119.034 61.3413 119.354 60.968L119.994 61.704C119.62 62.152 119.151 62.4933 118.586 62.728C118.031 62.9627 117.418 63.08 116.746 63.08ZM122.834 63V54.6H123.922V56.888L123.81 56.488C124.045 55.848 124.439 55.3627 124.994 55.032C125.549 54.6907 126.237 54.52 127.058 54.52V55.624C127.015 55.624 126.973 55.624 126.93 55.624C126.887 55.6133 126.845 55.608 126.802 55.608C125.917 55.608 125.223 55.88 124.722 56.424C124.221 56.9573 123.97 57.72 123.97 58.712V63H122.834ZM136.035 63.096C135.225 63.096 134.457 62.968 133.731 62.712C133.017 62.4453 132.441 62.0933 132.003 61.656L132.563 60.744C132.926 61.1173 133.411 61.4267 134.019 61.672C134.638 61.9173 135.31 62.04 136.035 62.04C136.963 62.04 137.673 61.8373 138.163 61.432C138.665 61.0267 138.915 60.4827 138.915 59.8C138.915 59.1173 138.67 58.5733 138.179 58.168C137.699 57.7627 136.937 57.56 135.891 57.56H135.091V56.712L138.547 52.376L138.707 52.824H132.467V51.8H139.667V52.616L136.211 56.952L135.651 56.584H136.083C137.427 56.584 138.43 56.8827 139.091 57.48C139.763 58.0773 140.099 58.8453 140.099 59.784C140.099 60.4133 139.95 60.9787 139.651 61.48C139.353 61.9813 138.899 62.376 138.291 62.664C137.694 62.952 136.942 63.096 136.035 63.096Z" fill="#505050"/>
</svg>
