<svg width="238" height="49" viewBox="0 0 238 49" fill="none" xmlns="http://www.w3.org/2000/svg">
<path d="M48.8208 36.692C50.0568 36.812 50.9988 37.196 51.6468 37.844C52.2948 38.48 52.6188 39.296 52.6188 40.292C52.6188 41.012 52.4388 41.666 52.0788 42.254C51.7188 42.83 51.1788 43.292 50.4588 43.64C49.7508 43.976 48.8808 44.144 47.8488 44.144C46.9488 44.144 46.0848 44.012 45.2568 43.748C44.4288 43.472 43.7508 43.094 43.2228 42.614L44.0508 41.192C44.4828 41.6 45.0348 41.93 45.7068 42.182C46.3788 42.422 47.0928 42.542 47.8488 42.542C48.7848 42.542 49.5108 42.344 50.0268 41.948C50.5548 41.552 50.8188 41.006 50.8188 40.31C50.8188 39.614 50.5608 39.074 50.0448 38.69C49.5288 38.306 48.7488 38.114 47.7048 38.114H46.6968V36.854L49.8648 32.966H43.7988V31.4H52.1148V32.624L48.8208 36.692ZM59.4456 44.144C58.4496 44.144 57.5616 43.892 56.7816 43.388C56.0136 42.872 55.4076 42.128 54.9636 41.156C54.5196 40.184 54.2976 39.032 54.2976 37.7C54.2976 36.368 54.5196 35.216 54.9636 34.244C55.4076 33.272 56.0136 32.534 56.7816 32.03C57.5616 31.514 58.4496 31.256 59.4456 31.256C60.4296 31.256 61.3056 31.514 62.0736 32.03C62.8536 32.534 63.4656 33.272 63.9096 34.244C64.3536 35.216 64.5756 36.368 64.5756 37.7C64.5756 39.032 64.3536 40.184 63.9096 41.156C63.4656 42.128 62.8536 42.872 62.0736 43.388C61.3056 43.892 60.4296 44.144 59.4456 44.144ZM59.4456 42.542C60.4536 42.542 61.2576 42.128 61.8576 41.3C62.4696 40.472 62.7756 39.272 62.7756 37.7C62.7756 36.128 62.4696 34.928 61.8576 34.1C61.2576 33.272 60.4536 32.858 59.4456 32.858C58.4256 32.858 57.6096 33.272 56.9976 34.1C56.3976 34.928 56.0976 36.128 56.0976 37.7C56.0976 39.272 56.3976 40.472 56.9976 41.3C57.6096 42.128 58.4256 42.542 59.4456 42.542ZM72.1634 31.4H73.9634V42.434H80.7854V44H72.1634V31.4ZM86.5619 44.108C85.6139 44.108 84.7619 43.898 84.0059 43.478C83.2499 43.058 82.6559 42.482 82.2239 41.75C81.8039 41.006 81.5939 40.166 81.5939 39.23C81.5939 38.294 81.8039 37.46 82.2239 36.728C82.6559 35.984 83.2499 35.408 84.0059 35C84.7619 34.58 85.6139 34.37 86.5619 34.37C87.5099 34.37 88.3559 34.58 89.0999 35C89.8559 35.408 90.4439 35.984 90.8639 36.728C91.2959 37.46 91.5119 38.294 91.5119 39.23C91.5119 40.166 91.2959 41.006 90.8639 41.75C90.4439 42.482 89.8559 43.058 89.0999 43.478C88.3559 43.898 87.5099 44.108 86.5619 44.108ZM86.5619 42.596C87.1739 42.596 87.7199 42.458 88.1999 42.182C88.6919 41.894 89.0759 41.498 89.3519 40.994C89.6279 40.478 89.7659 39.89 89.7659 39.23C89.7659 38.57 89.6279 37.988 89.3519 37.484C89.0759 36.968 88.6919 36.572 88.1999 36.296C87.7199 36.02 87.1739 35.882 86.5619 35.882C85.9499 35.882 85.3979 36.02 84.9059 36.296C84.4259 36.572 84.0419 36.968 83.7539 37.484C83.4779 37.988 83.3399 38.57 83.3399 39.23C83.3399 39.89 83.4779 40.478 83.7539 40.994C84.0419 41.498 84.4259 41.894 84.9059 42.182C85.3979 42.458 85.9499 42.596 86.5619 42.596ZM99.2657 43.442C99.0137 43.658 98.7017 43.826 98.3297 43.946C97.9577 44.054 97.5737 44.108 97.1777 44.108C96.2177 44.108 95.4737 43.85 94.9457 43.334C94.4177 42.818 94.1537 42.08 94.1537 41.12V35.882H92.5337V34.46H94.1537V32.372H95.8817V34.46H98.6177V35.882H95.8817V41.048C95.8817 41.564 96.0077 41.96 96.2597 42.236C96.5237 42.512 96.8957 42.65 97.3757 42.65C97.9037 42.65 98.3537 42.5 98.7257 42.2L99.2657 43.442ZM106.49 43.442C106.238 43.658 105.926 43.826 105.554 43.946C105.182 44.054 104.798 44.108 104.402 44.108C103.442 44.108 102.698 43.85 102.17 43.334C101.642 42.818 101.378 42.08 101.378 41.12V35.882H99.7583V34.46H101.378V32.372H103.106V34.46H105.842V35.882H103.106V41.048C103.106 41.564 103.232 41.96 103.484 42.236C103.748 42.512 104.12 42.65 104.6 42.65C105.128 42.65 105.578 42.5 105.95 42.2L106.49 43.442ZM116.885 39.284C116.885 39.416 116.873 39.59 116.849 39.806H109.109C109.217 40.646 109.583 41.324 110.207 41.84C110.843 42.344 111.629 42.596 112.565 42.596C113.705 42.596 114.623 42.212 115.319 41.444L116.273 42.56C115.841 43.064 115.301 43.448 114.653 43.712C114.017 43.976 113.303 44.108 112.511 44.108C111.503 44.108 110.609 43.904 109.829 43.496C109.049 43.076 108.443 42.494 108.011 41.75C107.591 41.006 107.381 40.166 107.381 39.23C107.381 38.306 107.585 37.472 107.993 36.728C108.413 35.984 108.983 35.408 109.703 35C110.435 34.58 111.257 34.37 112.169 34.37C113.081 34.37 113.891 34.58 114.599 35C115.319 35.408 115.877 35.984 116.273 36.728C116.681 37.472 116.885 38.324 116.885 39.284ZM112.169 35.828C111.341 35.828 110.645 36.08 110.081 36.584C109.529 37.088 109.205 37.748 109.109 38.564H115.229C115.133 37.76 114.803 37.106 114.239 36.602C113.687 36.086 112.997 35.828 112.169 35.828ZM120.94 36.062C121.24 35.51 121.684 35.09 122.272 34.802C122.86 34.514 123.574 34.37 124.414 34.37V36.044C124.318 36.032 124.186 36.026 124.018 36.026C123.082 36.026 122.344 36.308 121.804 36.872C121.276 37.424 121.012 38.216 121.012 39.248V44H119.284V34.46H120.94V36.062ZM135.373 34.46L130.747 44.954C130.339 45.926 129.859 46.61 129.307 47.006C128.767 47.402 128.113 47.6 127.345 47.6C126.877 47.6 126.421 47.522 125.977 47.366C125.545 47.222 125.185 47.006 124.897 46.718L125.635 45.422C126.127 45.89 126.697 46.124 127.345 46.124C127.765 46.124 128.113 46.01 128.389 45.782C128.677 45.566 128.935 45.188 129.163 44.648L129.469 43.982L125.257 34.46H127.057L130.387 42.092L133.681 34.46H135.373ZM144.574 32.966H140.254V31.4H150.676V32.966H146.356V44H144.574V32.966ZM152.156 34.46H153.884V44H152.156V34.46ZM153.02 32.624C152.684 32.624 152.402 32.516 152.174 32.3C151.958 32.084 151.85 31.82 151.85 31.508C151.85 31.196 151.958 30.932 152.174 30.716C152.402 30.488 152.684 30.374 153.02 30.374C153.356 30.374 153.632 30.482 153.848 30.698C154.076 30.902 154.19 31.16 154.19 31.472C154.19 31.796 154.076 32.072 153.848 32.3C153.632 32.516 153.356 32.624 153.02 32.624ZM161.341 44.108C160.369 44.108 159.499 43.898 158.731 43.478C157.975 43.058 157.381 42.482 156.949 41.75C156.517 41.006 156.301 40.166 156.301 39.23C156.301 38.294 156.517 37.46 156.949 36.728C157.381 35.984 157.975 35.408 158.731 35C159.499 34.58 160.369 34.37 161.341 34.37C162.205 34.37 162.973 34.544 163.645 34.892C164.329 35.24 164.857 35.744 165.229 36.404L163.915 37.25C163.615 36.794 163.243 36.452 162.799 36.224C162.355 35.996 161.863 35.882 161.323 35.882C160.699 35.882 160.135 36.02 159.631 36.296C159.139 36.572 158.749 36.968 158.461 37.484C158.185 37.988 158.047 38.57 158.047 39.23C158.047 39.902 158.185 40.496 158.461 41.012C158.749 41.516 159.139 41.906 159.631 42.182C160.135 42.458 160.699 42.596 161.323 42.596C161.863 42.596 162.355 42.482 162.799 42.254C163.243 42.026 163.615 41.684 163.915 41.228L165.229 42.056C164.857 42.716 164.329 43.226 163.645 43.586C162.973 43.934 162.205 44.108 161.341 44.108ZM171.051 39.554L169.071 41.39V44H167.343V30.644H169.071V39.212L174.273 34.46H176.361L172.347 38.402L176.757 44H174.633L171.051 39.554ZM186.653 39.284C186.653 39.416 186.641 39.59 186.617 39.806H178.877C178.985 40.646 179.351 41.324 179.975 41.84C180.611 42.344 181.397 42.596 182.333 42.596C183.473 42.596 184.391 42.212 185.087 41.444L186.041 42.56C185.609 43.064 185.069 43.448 184.421 43.712C183.785 43.976 183.071 44.108 182.279 44.108C181.271 44.108 180.377 43.904 179.597 43.496C178.817 43.076 178.211 42.494 177.779 41.75C177.359 41.006 177.149 40.166 177.149 39.23C177.149 38.306 177.353 37.472 177.761 36.728C178.181 35.984 178.751 35.408 179.471 35C180.203 34.58 181.025 34.37 181.937 34.37C182.849 34.37 183.659 34.58 184.367 35C185.087 35.408 185.645 35.984 186.041 36.728C186.449 37.472 186.653 38.324 186.653 39.284ZM181.937 35.828C181.109 35.828 180.413 36.08 179.849 36.584C179.297 37.088 178.973 37.748 178.877 38.564H184.997C184.901 37.76 184.571 37.106 184.007 36.602C183.455 36.086 182.765 35.828 181.937 35.828ZM194.416 43.442C194.164 43.658 193.852 43.826 193.48 43.946C193.108 44.054 192.724 44.108 192.328 44.108C191.368 44.108 190.624 43.85 190.096 43.334C189.568 42.818 189.304 42.08 189.304 41.12V35.882H187.684V34.46H189.304V32.372H191.032V34.46H193.768V35.882H191.032V41.048C191.032 41.564 191.158 41.96 191.41 42.236C191.674 42.512 192.046 42.65 192.526 42.65C193.054 42.65 193.504 42.5 193.876 42.2L194.416 43.442Z" fill="#205072"/>
</svg>
