<svg width="20" height="10" viewBox="0 0 20 10" fill="none" xmlns="http://www.w3.org/2000/svg">
<path d="M12 2H19C19.55 2 20 1.55 20 1C20 0.45 19.55 0 19 0H12C11.45 0 11 0.45 11 1C11 1.55 11.45 2 12 2Z" fill="#03A66D"/>
<path d="M19 8H12C11.45 8 11 8.45 11 9C11 9.55 11.45 10 12 10H19C19.55 10 20 9.55 20 9C20 8.45 19.55 8 19 8Z" fill="#03A66D"/>
<path d="M19 4H15C14.45 4 14 4.45 14 5C14 5.55 14.45 6 15 6H19C19.55 6 20 5.55 20 5C20 4.45 19.55 4 19 4Z" fill="#03A66D"/>
<path d="M6.85 0.849941C6.54 0.539941 6 0.759941 6 1.20994V3.99994H1C0.45 3.99994 0 4.44994 0 4.99994C0 5.54994 0.45 5.99994 1 5.99994H6V8.78994C6 9.23994 6.54 9.45994 6.85 9.13994L10.64 5.34994C10.84 5.14994 10.84 4.83994 10.64 4.63994L6.85 0.849941Z" fill="#03A66D"/>
</svg>
