<svg width="15" height="4593" viewBox="0 0 15 4593" fill="none" xmlns="http://www.w3.org/2000/svg">
<g clip-path="url(#clip0_18_12152)">
<path d="M15 5693V0H0V5693H15Z" fill="url(#paint0_linear_18_12152)"/>
<path d="M15 26.3613V0C9.83725 12.2688 -0.388313 40.3874 0.0113833 54.712V95C5.00759 85.2181 15 62.9686 15 52.2251V26.3613Z" fill="url(#paint1_linear_18_12152)"/>
<path d="M15 406.361V380C9.83725 392.269 -0.388313 420.387 0.0113833 434.712V475C5.00759 465.218 15 442.969 15 432.225V406.361Z" fill="url(#paint2_linear_18_12152)"/>
<path d="M15 786.361V760C9.83725 772.269 -0.388313 800.387 0.0113833 814.712V855C5.00759 845.218 15 822.969 15 812.225V786.361Z" fill="url(#paint3_linear_18_12152)"/>
<path d="M15 1166.36V1140C9.83725 1152.27 -0.388313 1180.39 0.0113833 1194.71V1235C5.00759 1225.22 15 1202.97 15 1192.23V1166.36Z" fill="url(#paint4_linear_18_12152)"/>
<path d="M15 216.361V190C9.83725 202.269 -0.388313 230.387 0.0113833 244.712V285C5.00759 275.218 15 252.969 15 242.225V216.361Z" fill="url(#paint5_linear_18_12152)"/>
<path d="M15 976.361V950C9.83725 962.269 -0.388313 990.387 0.0113833 1004.71V1045C5.00759 1035.22 15 1012.97 15 1002.23V976.361Z" fill="url(#paint6_linear_18_12152)"/>
<path d="M15 596.361V570C9.83725 582.269 -0.388313 610.387 0.0113833 624.712V665C5.00759 655.218 15 632.969 15 622.225V596.361Z" fill="url(#paint7_linear_18_12152)"/>
<path d="M15 1356.36V1330C9.83725 1342.27 -0.388313 1370.39 0.0113833 1384.71V1425C5.00759 1415.22 15 1392.97 15 1382.23V1356.36Z" fill="url(#paint8_linear_18_12152)"/>
<path d="M15 121.361V95C9.83725 107.269 -0.388313 135.387 0.0113833 149.712V190C5.00759 180.218 15 157.969 15 147.225V121.361Z" fill="url(#paint9_linear_18_12152)"/>
<path d="M15 881.361V855C9.83725 867.269 -0.388313 895.387 0.0113833 909.712V950C5.00759 940.218 15 917.969 15 907.225V881.361Z" fill="url(#paint10_linear_18_12152)"/>
<path d="M15 501.361V475C9.83725 487.269 -0.388313 515.387 0.0113833 529.712V570C5.00759 560.218 15 537.969 15 527.225V501.361Z" fill="url(#paint11_linear_18_12152)"/>
<path d="M15 1261.36V1235C9.83725 1247.27 -0.388313 1275.39 0.0113833 1289.71V1330C5.00759 1320.22 15 1297.97 15 1287.23V1261.36Z" fill="url(#paint12_linear_18_12152)"/>
<path d="M15 311.361V285C9.83725 297.269 -0.388313 325.387 0.0113833 339.712V380C5.00759 370.218 15 347.969 15 337.225V311.361Z" fill="url(#paint13_linear_18_12152)"/>
<path d="M15 1071.36V1045C9.83725 1057.27 -0.388313 1085.39 0.0113833 1099.71V1140C5.00759 1130.22 15 1107.97 15 1097.23V1071.36Z" fill="url(#paint14_linear_18_12152)"/>
<path d="M15 691.361V665C9.83725 677.269 -0.388313 705.387 0.0113833 719.712V760C5.00759 750.218 15 727.969 15 717.225V691.361Z" fill="url(#paint15_linear_18_12152)"/>
<path d="M15 1451.36V1425C9.83725 1437.27 -0.388313 1465.39 0.0113833 1479.71V1520C5.00759 1510.22 15 1487.97 15 1477.23V1451.36Z" fill="url(#paint16_linear_18_12152)"/>
<path d="M15 1542.36V1516C9.83725 1528.27 -0.388313 1556.39 0.0113833 1570.71V1611C5.00759 1601.22 15 1578.97 15 1568.23V1542.36Z" fill="url(#paint17_linear_18_12152)"/>
<path d="M15 1922.36V1896C9.83725 1908.27 -0.388313 1936.39 0.0113833 1950.71V1991C5.00759 1981.22 15 1958.97 15 1948.23V1922.36Z" fill="url(#paint18_linear_18_12152)"/>
<path d="M15 2302.36V2276C9.83725 2288.27 -0.388313 2316.39 0.0113833 2330.71V2371C5.00759 2361.22 15 2338.97 15 2328.23V2302.36Z" fill="url(#paint19_linear_18_12152)"/>
<path d="M15 2682.36V2656C9.83725 2668.27 -0.388313 2696.39 0.0113833 2710.71V2751C5.00759 2741.22 15 2718.97 15 2708.23V2682.36Z" fill="url(#paint20_linear_18_12152)"/>
<path d="M15 1732.36V1706C9.83725 1718.27 -0.388313 1746.39 0.0113833 1760.71V1801C5.00759 1791.22 15 1768.97 15 1758.23V1732.36Z" fill="url(#paint21_linear_18_12152)"/>
<path d="M15 2492.36V2466C9.83725 2478.27 -0.388313 2506.39 0.0113833 2520.71V2561C5.00759 2551.22 15 2528.97 15 2518.23V2492.36Z" fill="url(#paint22_linear_18_12152)"/>
<path d="M15 2112.36V2086C9.83725 2098.27 -0.388313 2126.39 0.0113833 2140.71V2181C5.00759 2171.22 15 2148.97 15 2138.23V2112.36Z" fill="url(#paint23_linear_18_12152)"/>
<path d="M15 2872.36V2846C9.83725 2858.27 -0.388313 2886.39 0.0113833 2900.71V2941C5.00759 2931.22 15 2908.97 15 2898.23V2872.36Z" fill="url(#paint24_linear_18_12152)"/>
<path d="M15 1637.36V1611C9.83725 1623.27 -0.388313 1651.39 0.0113833 1665.71V1706C5.00759 1696.22 15 1673.97 15 1663.23V1637.36Z" fill="url(#paint25_linear_18_12152)"/>
<path d="M15 2397.36V2371C9.83725 2383.27 -0.388313 2411.39 0.0113833 2425.71V2466C5.00759 2456.22 15 2433.97 15 2423.23V2397.36Z" fill="url(#paint26_linear_18_12152)"/>
<path d="M15 2017.36V1991C9.83725 2003.27 -0.388313 2031.39 0.0113833 2045.71V2086C5.00759 2076.22 15 2053.97 15 2043.23V2017.36Z" fill="url(#paint27_linear_18_12152)"/>
<path d="M15 2777.36V2751C9.83725 2763.27 -0.388313 2791.39 0.0113833 2805.71V2846C5.00759 2836.22 15 2813.97 15 2803.23V2777.36Z" fill="url(#paint28_linear_18_12152)"/>
<path d="M15 1827.36V1801C9.83725 1813.27 -0.388313 1841.39 0.0113833 1855.71V1896C5.00759 1886.22 15 1863.97 15 1853.23V1827.36Z" fill="url(#paint29_linear_18_12152)"/>
<path d="M15 2587.36V2561C9.83725 2573.27 -0.388313 2601.39 0.0113833 2615.71V2656C5.00759 2646.22 15 2623.97 15 2613.23V2587.36Z" fill="url(#paint30_linear_18_12152)"/>
<path d="M15 2207.36V2181C9.83725 2193.27 -0.388313 2221.39 0.0113833 2235.71V2276C5.00759 2266.22 15 2243.97 15 2233.23V2207.36Z" fill="url(#paint31_linear_18_12152)"/>
<path d="M15 2967.36V2941C9.83725 2953.27 -0.388313 2981.39 0.0113833 2995.71V3036C5.00759 3026.22 15 3003.97 15 2993.23V2967.36Z" fill="url(#paint32_linear_18_12152)"/>
<path d="M15 4582.36V4556C9.83725 4568.27 -0.388313 4596.39 0.0113833 4610.71V4651C5.00759 4641.22 15 4618.97 15 4608.23V4582.36Z" fill="url(#paint33_linear_18_12152)"/>
<path d="M15 3062.36V3036C9.83725 3048.27 -0.388313 3076.39 0.0113833 3090.71V3131C5.00759 3121.22 15 3098.97 15 3088.23V3062.36Z" fill="url(#paint34_linear_18_12152)"/>
<path d="M15 3442.36V3416C9.83725 3428.27 -0.388313 3456.39 0.0113833 3470.71V3511C5.00759 3501.22 15 3478.97 15 3468.23V3442.36Z" fill="url(#paint35_linear_18_12152)"/>
<path d="M15 3822.36V3796C9.83725 3808.27 -0.388313 3836.39 0.0113833 3850.71V3891C5.00759 3881.22 15 3858.97 15 3848.23V3822.36Z" fill="url(#paint36_linear_18_12152)"/>
<path d="M15 4202.36V4176C9.83725 4188.27 -0.388313 4216.39 0.0113833 4230.71V4271C5.00759 4261.22 15 4238.97 15 4228.23V4202.36Z" fill="url(#paint37_linear_18_12152)"/>
<path d="M15 3252.36V3226C9.83725 3238.27 -0.388313 3266.39 0.0113833 3280.71V3321C5.00759 3311.22 15 3288.97 15 3278.23V3252.36Z" fill="url(#paint38_linear_18_12152)"/>
<path d="M15 4012.36V3986C9.83725 3998.27 -0.388313 4026.39 0.0113833 4040.71V4081C5.00759 4071.22 15 4048.97 15 4038.23V4012.36Z" fill="url(#paint39_linear_18_12152)"/>
<path d="M15 3632.36V3606C9.83725 3618.27 -0.388313 3646.39 0.0113833 3660.71V3701C5.00759 3691.22 15 3668.97 15 3658.23V3632.36Z" fill="url(#paint40_linear_18_12152)"/>
<path d="M15 4392.36V4366C9.83725 4378.27 -0.388313 4406.39 0.0113833 4420.71V4461C5.00759 4451.22 15 4428.97 15 4418.23V4392.36Z" fill="url(#paint41_linear_18_12152)"/>
<path d="M15 3157.36V3131C9.83725 3143.27 -0.388313 3171.39 0.0113833 3185.71V3226C5.00759 3216.22 15 3193.97 15 3183.23V3157.36Z" fill="url(#paint42_linear_18_12152)"/>
<path d="M15 3917.36V3891C9.83725 3903.27 -0.388313 3931.39 0.0113833 3945.71V3986C5.00759 3976.22 15 3953.97 15 3943.23V3917.36Z" fill="url(#paint43_linear_18_12152)"/>
<path d="M15 3537.36V3511C9.83725 3523.27 -0.388313 3551.39 0.0113833 3565.71V3606C5.00759 3596.22 15 3573.97 15 3563.23V3537.36Z" fill="url(#paint44_linear_18_12152)"/>
<path d="M15 4297.36V4271C9.83725 4283.27 -0.388313 4311.39 0.0113833 4325.71V4366C5.00759 4356.22 15 4333.97 15 4323.23V4297.36Z" fill="url(#paint45_linear_18_12152)"/>
<path d="M15 3347.36V3321C9.83725 3333.27 -0.388313 3361.39 0.0113833 3375.71V3416C5.00759 3406.22 15 3383.97 15 3373.23V3347.36Z" fill="url(#paint46_linear_18_12152)"/>
<path d="M15 4107.36V4081C9.83725 4093.27 -0.388313 4121.39 0.0113833 4135.71V4176C5.00759 4166.22 15 4143.97 15 4133.23V4107.36Z" fill="url(#paint47_linear_18_12152)"/>
<path d="M15 3727.36V3701C9.83725 3713.27 -0.388313 3741.39 0.0113833 3755.71V3796C5.00759 3786.22 15 3763.97 15 3753.23V3727.36Z" fill="url(#paint48_linear_18_12152)"/>
<path d="M15 4487.36V4461C9.83725 4473.27 -0.388313 4501.39 0.0113833 4515.71V4556C5.00759 4546.22 15 4523.97 15 4513.23V4487.36Z" fill="url(#paint49_linear_18_12152)"/>
<path d="M9 0H15V5693H9V0Z" fill="url(#paint50_linear_18_12152)"/>
</g>
<defs>
<linearGradient id="paint0_linear_18_12152" x1="3.25766e-07" y1="2820.39" x2="15" y2="2820.39" gradientUnits="userSpaceOnUse">
<stop stop-color="#F8F8F8"/>
<stop offset="0.180208" stop-color="#E6E6E6"/>
<stop offset="0.690625" stop-color="#F7F7F7"/>
<stop offset="1" stop-color="white"/>
</linearGradient>
<linearGradient id="paint1_linear_18_12152" x1="-3.00318e-07" y1="43" x2="15" y2="43" gradientUnits="userSpaceOnUse">
<stop stop-color="#B283FF"/>
<stop offset="0.216667" stop-color="#B061FF"/>
<stop offset="0.45625" stop-color="#9547E3"/>
<stop offset="0.773958" stop-color="#9A3FE2"/>
<stop offset="1" stop-color="#9F4DE0"/>
</linearGradient>
<linearGradient id="paint2_linear_18_12152" x1="-3.00318e-07" y1="423" x2="15" y2="423" gradientUnits="userSpaceOnUse">
<stop stop-color="#B283FF"/>
<stop offset="0.216667" stop-color="#B061FF"/>
<stop offset="0.45625" stop-color="#9547E3"/>
<stop offset="0.773958" stop-color="#9A3FE2"/>
<stop offset="1" stop-color="#9F4DE0"/>
</linearGradient>
<linearGradient id="paint3_linear_18_12152" x1="-3.00318e-07" y1="803" x2="15" y2="803" gradientUnits="userSpaceOnUse">
<stop stop-color="#B283FF"/>
<stop offset="0.216667" stop-color="#B061FF"/>
<stop offset="0.45625" stop-color="#9547E3"/>
<stop offset="0.773958" stop-color="#9A3FE2"/>
<stop offset="1" stop-color="#9F4DE0"/>
</linearGradient>
<linearGradient id="paint4_linear_18_12152" x1="-3.00318e-07" y1="1183" x2="15" y2="1183" gradientUnits="userSpaceOnUse">
<stop stop-color="#B283FF"/>
<stop offset="0.216667" stop-color="#B061FF"/>
<stop offset="0.45625" stop-color="#9547E3"/>
<stop offset="0.773958" stop-color="#9A3FE2"/>
<stop offset="1" stop-color="#9F4DE0"/>
</linearGradient>
<linearGradient id="paint5_linear_18_12152" x1="-3.00318e-07" y1="233" x2="15" y2="233" gradientUnits="userSpaceOnUse">
<stop stop-color="#B283FF"/>
<stop offset="0.216667" stop-color="#B061FF"/>
<stop offset="0.45625" stop-color="#9547E3"/>
<stop offset="0.773958" stop-color="#9A3FE2"/>
<stop offset="1" stop-color="#9F4DE0"/>
</linearGradient>
<linearGradient id="paint6_linear_18_12152" x1="-3.00318e-07" y1="993" x2="15" y2="993" gradientUnits="userSpaceOnUse">
<stop stop-color="#B283FF"/>
<stop offset="0.216667" stop-color="#B061FF"/>
<stop offset="0.45625" stop-color="#9547E3"/>
<stop offset="0.773958" stop-color="#9A3FE2"/>
<stop offset="1" stop-color="#9F4DE0"/>
</linearGradient>
<linearGradient id="paint7_linear_18_12152" x1="-3.00318e-07" y1="613" x2="15" y2="613" gradientUnits="userSpaceOnUse">
<stop stop-color="#B283FF"/>
<stop offset="0.216667" stop-color="#B061FF"/>
<stop offset="0.45625" stop-color="#9547E3"/>
<stop offset="0.773958" stop-color="#9A3FE2"/>
<stop offset="1" stop-color="#9F4DE0"/>
</linearGradient>
<linearGradient id="paint8_linear_18_12152" x1="-3.00318e-07" y1="1373" x2="15" y2="1373" gradientUnits="userSpaceOnUse">
<stop stop-color="#B283FF"/>
<stop offset="0.216667" stop-color="#B061FF"/>
<stop offset="0.45625" stop-color="#9547E3"/>
<stop offset="0.773958" stop-color="#9A3FE2"/>
<stop offset="1" stop-color="#9F4DE0"/>
</linearGradient>
<linearGradient id="paint9_linear_18_12152" x1="-3.00318e-07" y1="138" x2="15" y2="138" gradientUnits="userSpaceOnUse">
<stop stop-color="#B283FF"/>
<stop offset="0.216667" stop-color="#B061FF"/>
<stop offset="0.45625" stop-color="#9547E3"/>
<stop offset="0.773958" stop-color="#9A3FE2"/>
<stop offset="1" stop-color="#9F4DE0"/>
</linearGradient>
<linearGradient id="paint10_linear_18_12152" x1="-3.00318e-07" y1="898" x2="15" y2="898" gradientUnits="userSpaceOnUse">
<stop stop-color="#B283FF"/>
<stop offset="0.216667" stop-color="#B061FF"/>
<stop offset="0.45625" stop-color="#9547E3"/>
<stop offset="0.773958" stop-color="#9A3FE2"/>
<stop offset="1" stop-color="#9F4DE0"/>
</linearGradient>
<linearGradient id="paint11_linear_18_12152" x1="-3.00318e-07" y1="518" x2="15" y2="518" gradientUnits="userSpaceOnUse">
<stop stop-color="#B283FF"/>
<stop offset="0.216667" stop-color="#B061FF"/>
<stop offset="0.45625" stop-color="#9547E3"/>
<stop offset="0.773958" stop-color="#9A3FE2"/>
<stop offset="1" stop-color="#9F4DE0"/>
</linearGradient>
<linearGradient id="paint12_linear_18_12152" x1="-3.00318e-07" y1="1278" x2="15" y2="1278" gradientUnits="userSpaceOnUse">
<stop stop-color="#B283FF"/>
<stop offset="0.216667" stop-color="#B061FF"/>
<stop offset="0.45625" stop-color="#9547E3"/>
<stop offset="0.773958" stop-color="#9A3FE2"/>
<stop offset="1" stop-color="#9F4DE0"/>
</linearGradient>
<linearGradient id="paint13_linear_18_12152" x1="-3.00318e-07" y1="328" x2="15" y2="328" gradientUnits="userSpaceOnUse">
<stop stop-color="#B283FF"/>
<stop offset="0.216667" stop-color="#B061FF"/>
<stop offset="0.45625" stop-color="#9547E3"/>
<stop offset="0.773958" stop-color="#9A3FE2"/>
<stop offset="1" stop-color="#9F4DE0"/>
</linearGradient>
<linearGradient id="paint14_linear_18_12152" x1="-3.00318e-07" y1="1088" x2="15" y2="1088" gradientUnits="userSpaceOnUse">
<stop stop-color="#B283FF"/>
<stop offset="0.216667" stop-color="#B061FF"/>
<stop offset="0.45625" stop-color="#9547E3"/>
<stop offset="0.773958" stop-color="#9A3FE2"/>
<stop offset="1" stop-color="#9F4DE0"/>
</linearGradient>
<linearGradient id="paint15_linear_18_12152" x1="-3.00318e-07" y1="708" x2="15" y2="708" gradientUnits="userSpaceOnUse">
<stop stop-color="#B283FF"/>
<stop offset="0.216667" stop-color="#B061FF"/>
<stop offset="0.45625" stop-color="#9547E3"/>
<stop offset="0.773958" stop-color="#9A3FE2"/>
<stop offset="1" stop-color="#9F4DE0"/>
</linearGradient>
<linearGradient id="paint16_linear_18_12152" x1="-3.00318e-07" y1="1468" x2="15" y2="1468" gradientUnits="userSpaceOnUse">
<stop stop-color="#B283FF"/>
<stop offset="0.216667" stop-color="#B061FF"/>
<stop offset="0.45625" stop-color="#9547E3"/>
<stop offset="0.773958" stop-color="#9A3FE2"/>
<stop offset="1" stop-color="#9F4DE0"/>
</linearGradient>
<linearGradient id="paint17_linear_18_12152" x1="-3.00318e-07" y1="1559" x2="15" y2="1559" gradientUnits="userSpaceOnUse">
<stop stop-color="#B283FF"/>
<stop offset="0.216667" stop-color="#B061FF"/>
<stop offset="0.45625" stop-color="#9547E3"/>
<stop offset="0.773958" stop-color="#9A3FE2"/>
<stop offset="1" stop-color="#9F4DE0"/>
</linearGradient>
<linearGradient id="paint18_linear_18_12152" x1="-3.00318e-07" y1="1939" x2="15" y2="1939" gradientUnits="userSpaceOnUse">
<stop stop-color="#B283FF"/>
<stop offset="0.216667" stop-color="#B061FF"/>
<stop offset="0.45625" stop-color="#9547E3"/>
<stop offset="0.773958" stop-color="#9A3FE2"/>
<stop offset="1" stop-color="#9F4DE0"/>
</linearGradient>
<linearGradient id="paint19_linear_18_12152" x1="-3.00318e-07" y1="2319" x2="15" y2="2319" gradientUnits="userSpaceOnUse">
<stop stop-color="#B283FF"/>
<stop offset="0.216667" stop-color="#B061FF"/>
<stop offset="0.45625" stop-color="#9547E3"/>
<stop offset="0.773958" stop-color="#9A3FE2"/>
<stop offset="1" stop-color="#9F4DE0"/>
</linearGradient>
<linearGradient id="paint20_linear_18_12152" x1="-3.00318e-07" y1="2699" x2="15" y2="2699" gradientUnits="userSpaceOnUse">
<stop stop-color="#B283FF"/>
<stop offset="0.216667" stop-color="#B061FF"/>
<stop offset="0.45625" stop-color="#9547E3"/>
<stop offset="0.773958" stop-color="#9A3FE2"/>
<stop offset="1" stop-color="#9F4DE0"/>
</linearGradient>
<linearGradient id="paint21_linear_18_12152" x1="-3.00318e-07" y1="1749" x2="15" y2="1749" gradientUnits="userSpaceOnUse">
<stop stop-color="#B283FF"/>
<stop offset="0.216667" stop-color="#B061FF"/>
<stop offset="0.45625" stop-color="#9547E3"/>
<stop offset="0.773958" stop-color="#9A3FE2"/>
<stop offset="1" stop-color="#9F4DE0"/>
</linearGradient>
<linearGradient id="paint22_linear_18_12152" x1="-3.00318e-07" y1="2509" x2="15" y2="2509" gradientUnits="userSpaceOnUse">
<stop stop-color="#B283FF"/>
<stop offset="0.216667" stop-color="#B061FF"/>
<stop offset="0.45625" stop-color="#9547E3"/>
<stop offset="0.773958" stop-color="#9A3FE2"/>
<stop offset="1" stop-color="#9F4DE0"/>
</linearGradient>
<linearGradient id="paint23_linear_18_12152" x1="-3.00318e-07" y1="2129" x2="15" y2="2129" gradientUnits="userSpaceOnUse">
<stop stop-color="#B283FF"/>
<stop offset="0.216667" stop-color="#B061FF"/>
<stop offset="0.45625" stop-color="#9547E3"/>
<stop offset="0.773958" stop-color="#9A3FE2"/>
<stop offset="1" stop-color="#9F4DE0"/>
</linearGradient>
<linearGradient id="paint24_linear_18_12152" x1="-3.00318e-07" y1="2889" x2="15" y2="2889" gradientUnits="userSpaceOnUse">
<stop stop-color="#B283FF"/>
<stop offset="0.216667" stop-color="#B061FF"/>
<stop offset="0.45625" stop-color="#9547E3"/>
<stop offset="0.773958" stop-color="#9A3FE2"/>
<stop offset="1" stop-color="#9F4DE0"/>
</linearGradient>
<linearGradient id="paint25_linear_18_12152" x1="-3.00318e-07" y1="1654" x2="15" y2="1654" gradientUnits="userSpaceOnUse">
<stop stop-color="#B283FF"/>
<stop offset="0.216667" stop-color="#B061FF"/>
<stop offset="0.45625" stop-color="#9547E3"/>
<stop offset="0.773958" stop-color="#9A3FE2"/>
<stop offset="1" stop-color="#9F4DE0"/>
</linearGradient>
<linearGradient id="paint26_linear_18_12152" x1="-3.00318e-07" y1="2414" x2="15" y2="2414" gradientUnits="userSpaceOnUse">
<stop stop-color="#B283FF"/>
<stop offset="0.216667" stop-color="#B061FF"/>
<stop offset="0.45625" stop-color="#9547E3"/>
<stop offset="0.773958" stop-color="#9A3FE2"/>
<stop offset="1" stop-color="#9F4DE0"/>
</linearGradient>
<linearGradient id="paint27_linear_18_12152" x1="-3.00318e-07" y1="2034" x2="15" y2="2034" gradientUnits="userSpaceOnUse">
<stop stop-color="#B283FF"/>
<stop offset="0.216667" stop-color="#B061FF"/>
<stop offset="0.45625" stop-color="#9547E3"/>
<stop offset="0.773958" stop-color="#9A3FE2"/>
<stop offset="1" stop-color="#9F4DE0"/>
</linearGradient>
<linearGradient id="paint28_linear_18_12152" x1="-3.00318e-07" y1="2794" x2="15" y2="2794" gradientUnits="userSpaceOnUse">
<stop stop-color="#B283FF"/>
<stop offset="0.216667" stop-color="#B061FF"/>
<stop offset="0.45625" stop-color="#9547E3"/>
<stop offset="0.773958" stop-color="#9A3FE2"/>
<stop offset="1" stop-color="#9F4DE0"/>
</linearGradient>
<linearGradient id="paint29_linear_18_12152" x1="-3.00318e-07" y1="1844" x2="15" y2="1844" gradientUnits="userSpaceOnUse">
<stop stop-color="#B283FF"/>
<stop offset="0.216667" stop-color="#B061FF"/>
<stop offset="0.45625" stop-color="#9547E3"/>
<stop offset="0.773958" stop-color="#9A3FE2"/>
<stop offset="1" stop-color="#9F4DE0"/>
</linearGradient>
<linearGradient id="paint30_linear_18_12152" x1="-3.00318e-07" y1="2604" x2="15" y2="2604" gradientUnits="userSpaceOnUse">
<stop stop-color="#B283FF"/>
<stop offset="0.216667" stop-color="#B061FF"/>
<stop offset="0.45625" stop-color="#9547E3"/>
<stop offset="0.773958" stop-color="#9A3FE2"/>
<stop offset="1" stop-color="#9F4DE0"/>
</linearGradient>
<linearGradient id="paint31_linear_18_12152" x1="-3.00318e-07" y1="2224" x2="15" y2="2224" gradientUnits="userSpaceOnUse">
<stop stop-color="#B283FF"/>
<stop offset="0.216667" stop-color="#B061FF"/>
<stop offset="0.45625" stop-color="#9547E3"/>
<stop offset="0.773958" stop-color="#9A3FE2"/>
<stop offset="1" stop-color="#9F4DE0"/>
</linearGradient>
<linearGradient id="paint32_linear_18_12152" x1="-3.00318e-07" y1="2984" x2="15" y2="2984" gradientUnits="userSpaceOnUse">
<stop stop-color="#B283FF"/>
<stop offset="0.216667" stop-color="#B061FF"/>
<stop offset="0.45625" stop-color="#9547E3"/>
<stop offset="0.773958" stop-color="#9A3FE2"/>
<stop offset="1" stop-color="#9F4DE0"/>
</linearGradient>
<linearGradient id="paint33_linear_18_12152" x1="-3.00318e-07" y1="4599" x2="15" y2="4599" gradientUnits="userSpaceOnUse">
<stop stop-color="#B283FF"/>
<stop offset="0.216667" stop-color="#B061FF"/>
<stop offset="0.45625" stop-color="#9547E3"/>
<stop offset="0.773958" stop-color="#9A3FE2"/>
<stop offset="1" stop-color="#9F4DE0"/>
</linearGradient>
<linearGradient id="paint34_linear_18_12152" x1="-3.00318e-07" y1="3079" x2="15" y2="3079" gradientUnits="userSpaceOnUse">
<stop stop-color="#B283FF"/>
<stop offset="0.216667" stop-color="#B061FF"/>
<stop offset="0.45625" stop-color="#9547E3"/>
<stop offset="0.773958" stop-color="#9A3FE2"/>
<stop offset="1" stop-color="#9F4DE0"/>
</linearGradient>
<linearGradient id="paint35_linear_18_12152" x1="-3.00318e-07" y1="3459" x2="15" y2="3459" gradientUnits="userSpaceOnUse">
<stop stop-color="#B283FF"/>
<stop offset="0.216667" stop-color="#B061FF"/>
<stop offset="0.45625" stop-color="#9547E3"/>
<stop offset="0.773958" stop-color="#9A3FE2"/>
<stop offset="1" stop-color="#9F4DE0"/>
</linearGradient>
<linearGradient id="paint36_linear_18_12152" x1="-3.00318e-07" y1="3839" x2="15" y2="3839" gradientUnits="userSpaceOnUse">
<stop stop-color="#B283FF"/>
<stop offset="0.216667" stop-color="#B061FF"/>
<stop offset="0.45625" stop-color="#9547E3"/>
<stop offset="0.773958" stop-color="#9A3FE2"/>
<stop offset="1" stop-color="#9F4DE0"/>
</linearGradient>
<linearGradient id="paint37_linear_18_12152" x1="-3.00318e-07" y1="4219" x2="15" y2="4219" gradientUnits="userSpaceOnUse">
<stop stop-color="#B283FF"/>
<stop offset="0.216667" stop-color="#B061FF"/>
<stop offset="0.45625" stop-color="#9547E3"/>
<stop offset="0.773958" stop-color="#9A3FE2"/>
<stop offset="1" stop-color="#9F4DE0"/>
</linearGradient>
<linearGradient id="paint38_linear_18_12152" x1="-3.00318e-07" y1="3269" x2="15" y2="3269" gradientUnits="userSpaceOnUse">
<stop stop-color="#B283FF"/>
<stop offset="0.216667" stop-color="#B061FF"/>
<stop offset="0.45625" stop-color="#9547E3"/>
<stop offset="0.773958" stop-color="#9A3FE2"/>
<stop offset="1" stop-color="#9F4DE0"/>
</linearGradient>
<linearGradient id="paint39_linear_18_12152" x1="-3.00318e-07" y1="4029" x2="15" y2="4029" gradientUnits="userSpaceOnUse">
<stop stop-color="#B283FF"/>
<stop offset="0.216667" stop-color="#B061FF"/>
<stop offset="0.45625" stop-color="#9547E3"/>
<stop offset="0.773958" stop-color="#9A3FE2"/>
<stop offset="1" stop-color="#9F4DE0"/>
</linearGradient>
<linearGradient id="paint40_linear_18_12152" x1="-3.00318e-07" y1="3649" x2="15" y2="3649" gradientUnits="userSpaceOnUse">
<stop stop-color="#B283FF"/>
<stop offset="0.216667" stop-color="#B061FF"/>
<stop offset="0.45625" stop-color="#9547E3"/>
<stop offset="0.773958" stop-color="#9A3FE2"/>
<stop offset="1" stop-color="#9F4DE0"/>
</linearGradient>
<linearGradient id="paint41_linear_18_12152" x1="-3.00318e-07" y1="4409" x2="15" y2="4409" gradientUnits="userSpaceOnUse">
<stop stop-color="#B283FF"/>
<stop offset="0.216667" stop-color="#B061FF"/>
<stop offset="0.45625" stop-color="#9547E3"/>
<stop offset="0.773958" stop-color="#9A3FE2"/>
<stop offset="1" stop-color="#9F4DE0"/>
</linearGradient>
<linearGradient id="paint42_linear_18_12152" x1="-3.00318e-07" y1="3174" x2="15" y2="3174" gradientUnits="userSpaceOnUse">
<stop stop-color="#B283FF"/>
<stop offset="0.216667" stop-color="#B061FF"/>
<stop offset="0.45625" stop-color="#9547E3"/>
<stop offset="0.773958" stop-color="#9A3FE2"/>
<stop offset="1" stop-color="#9F4DE0"/>
</linearGradient>
<linearGradient id="paint43_linear_18_12152" x1="-3.00318e-07" y1="3934" x2="15" y2="3934" gradientUnits="userSpaceOnUse">
<stop stop-color="#B283FF"/>
<stop offset="0.216667" stop-color="#B061FF"/>
<stop offset="0.45625" stop-color="#9547E3"/>
<stop offset="0.773958" stop-color="#9A3FE2"/>
<stop offset="1" stop-color="#9F4DE0"/>
</linearGradient>
<linearGradient id="paint44_linear_18_12152" x1="-3.00318e-07" y1="3554" x2="15" y2="3554" gradientUnits="userSpaceOnUse">
<stop stop-color="#B283FF"/>
<stop offset="0.216667" stop-color="#B061FF"/>
<stop offset="0.45625" stop-color="#9547E3"/>
<stop offset="0.773958" stop-color="#9A3FE2"/>
<stop offset="1" stop-color="#9F4DE0"/>
</linearGradient>
<linearGradient id="paint45_linear_18_12152" x1="-3.00318e-07" y1="4314" x2="15" y2="4314" gradientUnits="userSpaceOnUse">
<stop stop-color="#B283FF"/>
<stop offset="0.216667" stop-color="#B061FF"/>
<stop offset="0.45625" stop-color="#9547E3"/>
<stop offset="0.773958" stop-color="#9A3FE2"/>
<stop offset="1" stop-color="#9F4DE0"/>
</linearGradient>
<linearGradient id="paint46_linear_18_12152" x1="-3.00318e-07" y1="3364" x2="15" y2="3364" gradientUnits="userSpaceOnUse">
<stop stop-color="#B283FF"/>
<stop offset="0.216667" stop-color="#B061FF"/>
<stop offset="0.45625" stop-color="#9547E3"/>
<stop offset="0.773958" stop-color="#9A3FE2"/>
<stop offset="1" stop-color="#9F4DE0"/>
</linearGradient>
<linearGradient id="paint47_linear_18_12152" x1="-3.00318e-07" y1="4124" x2="15" y2="4124" gradientUnits="userSpaceOnUse">
<stop stop-color="#B283FF"/>
<stop offset="0.216667" stop-color="#B061FF"/>
<stop offset="0.45625" stop-color="#9547E3"/>
<stop offset="0.773958" stop-color="#9A3FE2"/>
<stop offset="1" stop-color="#9F4DE0"/>
</linearGradient>
<linearGradient id="paint48_linear_18_12152" x1="-3.00318e-07" y1="3744" x2="15" y2="3744" gradientUnits="userSpaceOnUse">
<stop stop-color="#B283FF"/>
<stop offset="0.216667" stop-color="#B061FF"/>
<stop offset="0.45625" stop-color="#9547E3"/>
<stop offset="0.773958" stop-color="#9A3FE2"/>
<stop offset="1" stop-color="#9F4DE0"/>
</linearGradient>
<linearGradient id="paint49_linear_18_12152" x1="-3.00318e-07" y1="4504" x2="15" y2="4504" gradientUnits="userSpaceOnUse">
<stop stop-color="#B283FF"/>
<stop offset="0.216667" stop-color="#B061FF"/>
<stop offset="0.45625" stop-color="#9547E3"/>
<stop offset="0.773958" stop-color="#9A3FE2"/>
<stop offset="1" stop-color="#9F4DE0"/>
</linearGradient>
<linearGradient id="paint50_linear_18_12152" x1="9" y1="1331.85" x2="15" y2="1331.85" gradientUnits="userSpaceOnUse">
<stop stop-color="white" stop-opacity="0.3"/>
<stop offset="0.322917" stop-color="white" stop-opacity="0.5"/>
<stop offset="0.716667" stop-color="white" stop-opacity="0.6"/>
<stop offset="1" stop-color="white" stop-opacity="0.9"/>
</linearGradient>
<clipPath id="clip0_18_12152">
<rect width="15" height="4593" fill="white"/>
</clipPath>
</defs>
</svg>
