<svg width="30" height="30" viewBox="0 0 30 30" fill="none" xmlns="http://www.w3.org/2000/svg">
<path d="M6.81011 29.2095V9.50075H0.379067V29.2095H6.81078H6.81011ZM3.59593 6.81031C5.8381 6.81031 7.234 5.29691 7.234 3.40558C7.19203 1.47116 5.8381 0 3.63857 0C1.43753 0 0 1.47116 0 3.40541C0 5.29674 1.3954 6.81014 3.55379 6.81014H3.59543L3.59593 6.81031ZM10.3698 29.2095H16.8003V18.2044C16.8003 17.6162 16.8423 17.0264 17.0122 16.6062C17.4769 15.4288 18.535 14.2101 20.312 14.2101C22.6384 14.2101 23.5696 16.0173 23.5696 18.667V29.2095H30V17.9091C30 11.8557 26.8278 9.03869 22.5968 9.03869C19.1279 9.03869 17.6044 11.0136 16.758 12.3588H16.8008V9.50143H10.3701C10.4541 11.3503 10.3696 29.2102 10.3696 29.2102L10.3698 29.2095Z" fill="#205072"/>
</svg>
