<svg width="238" height="70" viewBox="0 0 238 70" fill="none" xmlns="http://www.w3.org/2000/svg">
<path d="M104.308 39L104.268 18.6L94.1484 35.6H92.3084L82.1884 18.72V39H78.3484V11H81.6284L93.3084 30.68L104.828 11H108.108L108.148 39H104.308ZM115.992 17.8H119.832V39H115.992V17.8ZM117.912 13.72C117.165 13.72 116.538 13.48 116.032 13C115.552 12.52 115.312 11.9333 115.312 11.24C115.312 10.5467 115.552 9.96 116.032 9.48C116.538 8.97333 117.165 8.72 117.912 8.72C118.658 8.72 119.272 8.96 119.752 9.44C120.258 9.89333 120.512 10.4667 120.512 11.16C120.512 11.88 120.258 12.4933 119.752 13C119.272 13.48 118.658 13.72 117.912 13.72ZM130.843 21.36C131.51 20.1333 132.497 19.2 133.803 18.56C135.11 17.92 136.697 17.6 138.563 17.6V21.32C138.35 21.2933 138.057 21.28 137.683 21.28C135.603 21.28 133.963 21.9067 132.763 23.16C131.59 24.3867 131.003 26.1467 131.003 28.44V39H127.163V17.8H130.843V21.36ZM152.181 39.24C150.074 39.24 148.181 38.7733 146.501 37.84C144.821 36.9067 143.501 35.6267 142.541 34C141.608 32.3467 141.141 30.48 141.141 28.4C141.141 26.32 141.608 24.4667 142.541 22.84C143.501 21.1867 144.821 19.9067 146.501 19C148.181 18.0667 150.074 17.6 152.181 17.6C154.288 17.6 156.168 18.0667 157.821 19C159.501 19.9067 160.808 21.1867 161.741 22.84C162.701 24.4667 163.181 26.32 163.181 28.4C163.181 30.48 162.701 32.3467 161.741 34C160.808 35.6267 159.501 36.9067 157.821 37.84C156.168 38.7733 154.288 39.24 152.181 39.24ZM152.181 35.88C153.541 35.88 154.754 35.5733 155.821 34.96C156.914 34.32 157.768 33.44 158.381 32.32C158.994 31.1733 159.301 29.8667 159.301 28.4C159.301 26.9333 158.994 25.64 158.381 24.52C157.768 23.3733 156.914 22.4933 155.821 21.88C154.754 21.2667 153.541 20.96 152.181 20.96C150.821 20.96 149.594 21.2667 148.501 21.88C147.434 22.4933 146.581 23.3733 145.941 24.52C145.328 25.64 145.021 26.9333 145.021 28.4C145.021 29.8667 145.328 31.1733 145.941 32.32C146.581 33.44 147.434 34.32 148.501 34.96C149.594 35.5733 150.821 35.88 152.181 35.88Z" fill="#03A66D"/>
<path d="M102.094 61V50.824H98.1578V49.8H107.214V50.824H103.278V61H102.094ZM108.865 61V52.6H110.001V61H108.865ZM109.441 50.744C109.207 50.744 109.009 50.664 108.849 50.504C108.689 50.344 108.609 50.152 108.609 49.928C108.609 49.704 108.689 49.5173 108.849 49.368C109.009 49.208 109.207 49.128 109.441 49.128C109.676 49.128 109.873 49.2027 110.033 49.352C110.193 49.5013 110.273 49.688 110.273 49.912C110.273 50.1467 110.193 50.344 110.033 50.504C109.884 50.664 109.687 50.744 109.441 50.744ZM116.73 61.08C115.855 61.08 115.087 60.8987 114.426 60.536C113.765 60.1627 113.247 59.656 112.874 59.016C112.501 58.3653 112.314 57.624 112.314 56.792C112.314 55.96 112.49 55.224 112.842 54.584C113.205 53.944 113.695 53.4427 114.314 53.08C114.943 52.7067 115.647 52.52 116.426 52.52C117.215 52.52 117.914 52.7013 118.522 53.064C119.141 53.416 119.626 53.9173 119.978 54.568C120.33 55.208 120.506 55.9493 120.506 56.792C120.506 56.8453 120.501 56.904 120.49 56.968C120.49 57.0213 120.49 57.08 120.49 57.144H113.178V56.296H119.882L119.434 56.632C119.434 56.024 119.301 55.4853 119.034 55.016C118.778 54.536 118.426 54.1627 117.978 53.896C117.53 53.6293 117.013 53.496 116.426 53.496C115.85 53.496 115.333 53.6293 114.874 53.896C114.415 54.1627 114.058 54.536 113.802 55.016C113.546 55.496 113.418 56.0453 113.418 56.664V56.84C113.418 57.48 113.557 58.0453 113.834 58.536C114.122 59.016 114.517 59.3947 115.018 59.672C115.53 59.9387 116.111 60.072 116.762 60.072C117.274 60.072 117.749 59.9813 118.186 59.8C118.634 59.6187 119.018 59.3413 119.338 58.968L119.978 59.704C119.605 60.152 119.135 60.4933 118.57 60.728C118.015 60.9627 117.402 61.08 116.73 61.08ZM122.818 61V52.6H123.906V54.888L123.794 54.488C124.029 53.848 124.424 53.3627 124.978 53.032C125.533 52.6907 126.221 52.52 127.042 52.52V53.624C127 53.624 126.957 53.624 126.914 53.624C126.872 53.6133 126.829 53.608 126.786 53.608C125.901 53.608 125.208 53.88 124.706 54.424C124.205 54.9573 123.954 55.72 123.954 56.712V61H122.818ZM136.212 61.096C135.412 61.096 134.649 60.968 133.924 60.712C133.198 60.4453 132.622 60.0933 132.196 59.656L132.756 58.744C133.108 59.1173 133.588 59.4267 134.196 59.672C134.814 59.9173 135.481 60.04 136.196 60.04C137.145 60.04 137.865 59.832 138.356 59.416C138.857 58.9893 139.108 58.4347 139.108 57.752C139.108 57.272 138.99 56.8613 138.756 56.52C138.532 56.168 138.148 55.896 137.604 55.704C137.06 55.512 136.313 55.416 135.364 55.416H132.98L133.556 49.8H139.684V50.824H134.02L134.612 50.264L134.116 54.968L133.524 54.392H135.62C136.75 54.392 137.657 54.5307 138.34 54.808C139.022 55.0853 139.513 55.4747 139.812 55.976C140.121 56.4667 140.276 57.0427 140.276 57.704C140.276 58.3333 140.126 58.9093 139.828 59.432C139.529 59.944 139.081 60.3493 138.484 60.648C137.886 60.9467 137.129 61.096 136.212 61.096Z" fill="#505050"/>
</svg>
