<svg width="238" height="49" viewBox="0 0 238 49" fill="none" xmlns="http://www.w3.org/2000/svg">
<path d="M26.9989 37.628H28.7269V42.542C28.1029 43.058 27.3769 43.454 26.5489 43.73C25.7209 44.006 24.8569 44.144 23.9569 44.144C22.6849 44.144 21.5389 43.868 20.5189 43.316C19.4989 42.752 18.6949 41.984 18.1069 41.012C17.5309 40.028 17.2429 38.924 17.2429 37.7C17.2429 36.476 17.5309 35.372 18.1069 34.388C18.6949 33.404 19.4989 32.636 20.5189 32.084C21.5509 31.532 22.7089 31.256 23.9929 31.256C25.0009 31.256 25.9129 31.424 26.7289 31.76C27.5569 32.084 28.2589 32.564 28.8349 33.2L27.7189 34.316C26.7109 33.344 25.4929 32.858 24.0649 32.858C23.1049 32.858 22.2409 33.068 21.4729 33.488C20.7169 33.896 20.1229 34.472 19.6909 35.216C19.2589 35.948 19.0429 36.776 19.0429 37.7C19.0429 38.612 19.2589 39.44 19.6909 40.184C20.1229 40.916 20.7169 41.492 21.4729 41.912C22.2409 42.332 23.0989 42.542 24.0469 42.542C25.1749 42.542 26.1589 42.272 26.9989 41.732V37.628ZM40.8132 34.46V44H39.1752V42.56C38.8272 43.052 38.3652 43.436 37.7892 43.712C37.2252 43.976 36.6072 44.108 35.9352 44.108C34.6632 44.108 33.6612 43.76 32.9292 43.064C32.1972 42.356 31.8312 41.318 31.8312 39.95V34.46H33.5592V39.752C33.5592 40.676 33.7812 41.378 34.2252 41.858C34.6692 42.326 35.3052 42.56 36.1332 42.56C37.0452 42.56 37.7652 42.284 38.2932 41.732C38.8212 41.18 39.0852 40.4 39.0852 39.392V34.46H40.8132ZM47.5768 34.37C48.8968 34.37 49.9048 34.694 50.6008 35.342C51.3088 35.99 51.6628 36.956 51.6628 38.24V44H50.0248V42.74C49.7368 43.184 49.3228 43.526 48.7828 43.766C48.2548 43.994 47.6248 44.108 46.8928 44.108C45.8248 44.108 44.9668 43.85 44.3188 43.334C43.6828 42.818 43.3648 42.14 43.3648 41.3C43.3648 40.46 43.6708 39.788 44.2828 39.284C44.8948 38.768 45.8668 38.51 47.1988 38.51H49.9348V38.168C49.9348 37.424 49.7188 36.854 49.2868 36.458C48.8548 36.062 48.2188 35.864 47.3788 35.864C46.8148 35.864 46.2628 35.96 45.7228 36.152C45.1828 36.332 44.7268 36.578 44.3548 36.89L43.6348 35.594C44.1268 35.198 44.7148 34.898 45.3988 34.694C46.0828 34.478 46.8088 34.37 47.5768 34.37ZM47.1808 42.776C47.8408 42.776 48.4108 42.632 48.8908 42.344C49.3708 42.044 49.7188 41.624 49.9348 41.084V39.752H47.2708C45.8068 39.752 45.0748 40.244 45.0748 41.228C45.0748 41.708 45.2608 42.086 45.6328 42.362C46.0048 42.638 46.5208 42.776 47.1808 42.776ZM56.5167 36.062C56.8167 35.51 57.2607 35.09 57.8487 34.802C58.4367 34.514 59.1507 34.37 59.9907 34.37V36.044C59.8947 36.032 59.7627 36.026 59.5947 36.026C58.6587 36.026 57.9207 36.308 57.3807 36.872C56.8527 37.424 56.5887 38.216 56.5887 39.248V44H54.8607V34.46H56.5167V36.062ZM65.5768 34.37C66.8968 34.37 67.9048 34.694 68.6008 35.342C69.3088 35.99 69.6628 36.956 69.6628 38.24V44H68.0248V42.74C67.7368 43.184 67.3228 43.526 66.7828 43.766C66.2548 43.994 65.6248 44.108 64.8928 44.108C63.8248 44.108 62.9668 43.85 62.3188 43.334C61.6828 42.818 61.3648 42.14 61.3648 41.3C61.3648 40.46 61.6708 39.788 62.2828 39.284C62.8948 38.768 63.8668 38.51 65.1988 38.51H67.9348V38.168C67.9348 37.424 67.7188 36.854 67.2868 36.458C66.8548 36.062 66.2188 35.864 65.3788 35.864C64.8148 35.864 64.2628 35.96 63.7228 36.152C63.1828 36.332 62.7268 36.578 62.3548 36.89L61.6348 35.594C62.1268 35.198 62.7148 34.898 63.3988 34.694C64.0828 34.478 64.8088 34.37 65.5768 34.37ZM65.1808 42.776C65.8408 42.776 66.4108 42.632 66.8908 42.344C67.3708 42.044 67.7188 41.624 67.9348 41.084V39.752H65.2708C63.8068 39.752 63.0748 40.244 63.0748 41.228C63.0748 41.708 63.2608 42.086 63.6328 42.362C64.0048 42.638 64.5208 42.776 65.1808 42.776ZM77.9547 34.37C79.1667 34.37 80.1267 34.724 80.8347 35.432C81.5547 36.128 81.9147 37.154 81.9147 38.51V44H80.1867V38.708C80.1867 37.784 79.9647 37.088 79.5207 36.62C79.0767 36.152 78.4407 35.918 77.6127 35.918C76.6767 35.918 75.9387 36.194 75.3987 36.746C74.8587 37.286 74.5887 38.066 74.5887 39.086V44H72.8607V34.46H74.5167V35.9C74.8647 35.408 75.3327 35.03 75.9207 34.766C76.5207 34.502 77.1987 34.37 77.9547 34.37ZM90.4766 43.442C90.2246 43.658 89.9126 43.826 89.5406 43.946C89.1686 44.054 88.7846 44.108 88.3886 44.108C87.4286 44.108 86.6846 43.85 86.1566 43.334C85.6286 42.818 85.3646 42.08 85.3646 41.12V35.882H83.7446V34.46H85.3646V32.372H87.0926V34.46H89.8286V35.882H87.0926V41.048C87.0926 41.564 87.2186 41.96 87.4706 42.236C87.7346 42.512 88.1066 42.65 88.5866 42.65C89.1146 42.65 89.5646 42.5 89.9366 42.2L90.4766 43.442ZM100.871 39.284C100.871 39.416 100.859 39.59 100.835 39.806H93.0953C93.2033 40.646 93.5693 41.324 94.1933 41.84C94.8293 42.344 95.6153 42.596 96.5513 42.596C97.6913 42.596 98.6093 42.212 99.3053 41.444L100.259 42.56C99.8273 43.064 99.2873 43.448 98.6393 43.712C98.0033 43.976 97.2893 44.108 96.4973 44.108C95.4893 44.108 94.5953 43.904 93.8153 43.496C93.0353 43.076 92.4293 42.494 91.9973 41.75C91.5773 41.006 91.3673 40.166 91.3673 39.23C91.3673 38.306 91.5713 37.472 91.9793 36.728C92.3993 35.984 92.9693 35.408 93.6893 35C94.4213 34.58 95.2433 34.37 96.1553 34.37C97.0673 34.37 97.8773 34.58 98.5853 35C99.3053 35.408 99.8633 35.984 100.259 36.728C100.667 37.472 100.871 38.324 100.871 39.284ZM96.1553 35.828C95.3273 35.828 94.6313 36.08 94.0673 36.584C93.5153 37.088 93.1913 37.748 93.0953 38.564H99.2153C99.1193 37.76 98.7893 37.106 98.2253 36.602C97.6733 36.086 96.9833 35.828 96.1553 35.828ZM111.893 39.284C111.893 39.416 111.881 39.59 111.857 39.806H104.117C104.225 40.646 104.591 41.324 105.215 41.84C105.851 42.344 106.637 42.596 107.573 42.596C108.713 42.596 109.631 42.212 110.327 41.444L111.281 42.56C110.849 43.064 110.309 43.448 109.661 43.712C109.025 43.976 108.311 44.108 107.519 44.108C106.511 44.108 105.617 43.904 104.837 43.496C104.057 43.076 103.451 42.494 103.019 41.75C102.599 41.006 102.389 40.166 102.389 39.23C102.389 38.306 102.593 37.472 103.001 36.728C103.421 35.984 103.991 35.408 104.711 35C105.443 34.58 106.265 34.37 107.177 34.37C108.089 34.37 108.899 34.58 109.607 35C110.327 35.408 110.885 35.984 111.281 36.728C111.689 37.472 111.893 38.324 111.893 39.284ZM107.177 35.828C106.349 35.828 105.653 36.08 105.089 36.584C104.537 37.088 104.213 37.748 104.117 38.564H110.237C110.141 37.76 109.811 37.106 109.247 36.602C108.695 36.086 108.005 35.828 107.177 35.828ZM123.292 30.644V44H121.636V42.488C121.252 43.016 120.766 43.418 120.178 43.694C119.59 43.97 118.942 44.108 118.234 44.108C117.31 44.108 116.482 43.904 115.75 43.496C115.018 43.088 114.442 42.518 114.022 41.786C113.614 41.042 113.41 40.19 113.41 39.23C113.41 38.27 113.614 37.424 114.022 36.692C114.442 35.96 115.018 35.39 115.75 34.982C116.482 34.574 117.31 34.37 118.234 34.37C118.918 34.37 119.548 34.502 120.124 34.766C120.7 35.018 121.18 35.396 121.564 35.9V30.644H123.292ZM118.378 42.596C118.978 42.596 119.524 42.458 120.016 42.182C120.508 41.894 120.892 41.498 121.168 40.994C121.444 40.478 121.582 39.89 121.582 39.23C121.582 38.57 121.444 37.988 121.168 37.484C120.892 36.968 120.508 36.572 120.016 36.296C119.524 36.02 118.978 35.882 118.378 35.882C117.766 35.882 117.214 36.02 116.722 36.296C116.242 36.572 115.858 36.968 115.57 37.484C115.294 37.988 115.156 38.57 115.156 39.23C115.156 39.89 115.294 40.478 115.57 40.994C115.858 41.498 116.242 41.894 116.722 42.182C117.214 42.458 117.766 42.596 118.378 42.596ZM139.676 40.85H132.98L131.594 44H129.74L135.446 31.4H137.228L142.952 44H141.062L139.676 40.85ZM139.046 39.41L136.328 33.236L133.61 39.41H139.046ZM144.579 30.644H146.307V44H144.579V30.644ZM149.607 30.644H151.335V44H149.607V30.644ZM158.72 44.108C157.772 44.108 156.92 43.898 156.164 43.478C155.408 43.058 154.814 42.482 154.382 41.75C153.962 41.006 153.752 40.166 153.752 39.23C153.752 38.294 153.962 37.46 154.382 36.728C154.814 35.984 155.408 35.408 156.164 35C156.92 34.58 157.772 34.37 158.72 34.37C159.668 34.37 160.514 34.58 161.258 35C162.014 35.408 162.602 35.984 163.022 36.728C163.454 37.46 163.67 38.294 163.67 39.23C163.67 40.166 163.454 41.006 163.022 41.75C162.602 42.482 162.014 43.058 161.258 43.478C160.514 43.898 159.668 44.108 158.72 44.108ZM158.72 42.596C159.332 42.596 159.878 42.458 160.358 42.182C160.85 41.894 161.234 41.498 161.51 40.994C161.786 40.478 161.924 39.89 161.924 39.23C161.924 38.57 161.786 37.988 161.51 37.484C161.234 36.968 160.85 36.572 160.358 36.296C159.878 36.02 159.332 35.882 158.72 35.882C158.108 35.882 157.556 36.02 157.064 36.296C156.584 36.572 156.2 36.968 155.912 37.484C155.636 37.988 155.498 38.57 155.498 39.23C155.498 39.89 155.636 40.478 155.912 40.994C156.2 41.498 156.584 41.894 157.064 42.182C157.556 42.458 158.108 42.596 158.72 42.596ZM170.218 44.108C169.246 44.108 168.376 43.898 167.608 43.478C166.852 43.058 166.258 42.482 165.826 41.75C165.394 41.006 165.178 40.166 165.178 39.23C165.178 38.294 165.394 37.46 165.826 36.728C166.258 35.984 166.852 35.408 167.608 35C168.376 34.58 169.246 34.37 170.218 34.37C171.082 34.37 171.85 34.544 172.522 34.892C173.206 35.24 173.734 35.744 174.106 36.404L172.792 37.25C172.492 36.794 172.12 36.452 171.676 36.224C171.232 35.996 170.74 35.882 170.2 35.882C169.576 35.882 169.012 36.02 168.508 36.296C168.016 36.572 167.626 36.968 167.338 37.484C167.062 37.988 166.924 38.57 166.924 39.23C166.924 39.902 167.062 40.496 167.338 41.012C167.626 41.516 168.016 41.906 168.508 42.182C169.012 42.458 169.576 42.596 170.2 42.596C170.74 42.596 171.232 42.482 171.676 42.254C172.12 42.026 172.492 41.684 172.792 41.228L174.106 42.056C173.734 42.716 173.206 43.226 172.522 43.586C171.85 43.934 171.082 44.108 170.218 44.108ZM179.817 34.37C181.137 34.37 182.145 34.694 182.841 35.342C183.549 35.99 183.903 36.956 183.903 38.24V44H182.265V42.74C181.977 43.184 181.563 43.526 181.023 43.766C180.495 43.994 179.865 44.108 179.133 44.108C178.065 44.108 177.207 43.85 176.559 43.334C175.923 42.818 175.605 42.14 175.605 41.3C175.605 40.46 175.911 39.788 176.523 39.284C177.135 38.768 178.107 38.51 179.439 38.51H182.175V38.168C182.175 37.424 181.959 36.854 181.527 36.458C181.095 36.062 180.459 35.864 179.619 35.864C179.055 35.864 178.503 35.96 177.963 36.152C177.423 36.332 176.967 36.578 176.595 36.89L175.875 35.594C176.367 35.198 176.955 34.898 177.639 34.694C178.323 34.478 179.049 34.37 179.817 34.37ZM179.421 42.776C180.081 42.776 180.651 42.632 181.131 42.344C181.611 42.044 181.959 41.624 182.175 41.084V39.752H179.511C178.047 39.752 177.315 40.244 177.315 41.228C177.315 41.708 177.501 42.086 177.873 42.362C178.245 42.638 178.761 42.776 179.421 42.776ZM192.465 43.442C192.213 43.658 191.901 43.826 191.529 43.946C191.157 44.054 190.773 44.108 190.377 44.108C189.417 44.108 188.673 43.85 188.145 43.334C187.617 42.818 187.353 42.08 187.353 41.12V35.882H185.733V34.46H187.353V32.372H189.081V34.46H191.817V35.882H189.081V41.048C189.081 41.564 189.207 41.96 189.459 42.236C189.723 42.512 190.095 42.65 190.575 42.65C191.103 42.65 191.553 42.5 191.925 42.2L192.465 43.442ZM194.554 34.46H196.282V44H194.554V34.46ZM195.418 32.624C195.082 32.624 194.8 32.516 194.572 32.3C194.356 32.084 194.248 31.82 194.248 31.508C194.248 31.196 194.356 30.932 194.572 30.716C194.8 30.488 195.082 30.374 195.418 30.374C195.754 30.374 196.03 30.482 196.246 30.698C196.474 30.902 196.588 31.16 196.588 31.472C196.588 31.796 196.474 32.072 196.246 32.3C196.03 32.516 195.754 32.624 195.418 32.624ZM203.667 44.108C202.719 44.108 201.867 43.898 201.111 43.478C200.355 43.058 199.761 42.482 199.329 41.75C198.909 41.006 198.699 40.166 198.699 39.23C198.699 38.294 198.909 37.46 199.329 36.728C199.761 35.984 200.355 35.408 201.111 35C201.867 34.58 202.719 34.37 203.667 34.37C204.615 34.37 205.461 34.58 206.205 35C206.961 35.408 207.549 35.984 207.969 36.728C208.401 37.46 208.617 38.294 208.617 39.23C208.617 40.166 208.401 41.006 207.969 41.75C207.549 42.482 206.961 43.058 206.205 43.478C205.461 43.898 204.615 44.108 203.667 44.108ZM203.667 42.596C204.279 42.596 204.825 42.458 205.305 42.182C205.797 41.894 206.181 41.498 206.457 40.994C206.733 40.478 206.871 39.89 206.871 39.23C206.871 38.57 206.733 37.988 206.457 37.484C206.181 36.968 205.797 36.572 205.305 36.296C204.825 36.02 204.279 35.882 203.667 35.882C203.055 35.882 202.503 36.02 202.011 36.296C201.531 36.572 201.147 36.968 200.859 37.484C200.583 37.988 200.445 38.57 200.445 39.23C200.445 39.89 200.583 40.478 200.859 40.994C201.147 41.498 201.531 41.894 202.011 42.182C202.503 42.458 203.055 42.596 203.667 42.596ZM216.101 34.37C217.313 34.37 218.273 34.724 218.981 35.432C219.701 36.128 220.061 37.154 220.061 38.51V44H218.333V38.708C218.333 37.784 218.111 37.088 217.667 36.62C217.223 36.152 216.587 35.918 215.759 35.918C214.823 35.918 214.085 36.194 213.545 36.746C213.005 37.286 212.735 38.066 212.735 39.086V44H211.007V34.46H212.663V35.9C213.011 35.408 213.479 35.03 214.067 34.766C214.667 34.502 215.345 34.37 216.101 34.37Z" fill="#205072"/>
<path d="M82.585 18.148C82.585 19.324 82.177 20.308 81.361 21.1C80.545 21.892 79.537 22.288 78.337 22.288C77.377 22.288 76.507 21.988 75.727 21.388C74.947 20.788 74.431 19.978 74.179 18.958L75.655 18.364C75.835 19.084 76.159 19.654 76.627 20.074C77.107 20.494 77.665 20.704 78.301 20.704C79.069 20.704 79.693 20.47 80.173 20.002C80.665 19.522 80.911 18.91 80.911 18.166C80.911 17.41 80.665 16.792 80.173 16.312C79.693 15.832 79.075 15.592 78.319 15.592C77.443 15.592 76.753 15.946 76.249 16.654L74.575 15.934L75.367 9.688H81.829V11.272H76.753L76.303 14.8L76.375 14.818C76.987 14.326 77.731 14.08 78.607 14.08C79.711 14.08 80.647 14.47 81.415 15.25C82.195 16.03 82.585 16.996 82.585 18.148ZM84.2354 15.844C84.2354 13.972 84.6974 12.43 85.6214 11.218C86.5454 10.006 87.7334 9.4 89.1854 9.4C90.6374 9.4 91.8254 10.012 92.7494 11.236C93.6734 12.448 94.1354 13.984 94.1354 15.844C94.1354 17.692 93.6734 19.234 92.7494 20.47C91.8254 21.682 90.6374 22.288 89.1854 22.288C87.7334 22.288 86.5454 21.682 85.6214 20.47C84.6974 19.234 84.2354 17.692 84.2354 15.844ZM92.4434 15.844C92.4434 14.428 92.1434 13.264 91.5434 12.352C90.9554 11.44 90.1694 10.984 89.1854 10.984C88.2014 10.984 87.4154 11.44 86.8274 12.352C86.2274 13.264 85.9274 14.428 85.9274 15.844C85.9274 17.26 86.2274 18.43 86.8274 19.354C87.4154 20.254 88.2014 20.704 89.1854 20.704C90.1694 20.704 90.9554 20.248 91.5434 19.336C92.1434 18.412 92.4434 17.248 92.4434 15.844ZM98.2339 20.884C98.2339 21.22 98.1139 21.508 97.8739 21.748C97.6459 21.988 97.3579 22.108 97.0099 22.108C96.6739 22.108 96.3859 21.988 96.1459 21.748C95.9059 21.508 95.7859 21.22 95.7859 20.884C95.7859 20.536 95.9059 20.248 96.1459 20.02C96.3859 19.78 96.6739 19.66 97.0099 19.66C97.3579 19.66 97.6459 19.78 97.8739 20.02C98.1139 20.248 98.2339 20.536 98.2339 20.884ZM99.8975 15.844C99.8975 13.972 100.359 12.43 101.283 11.218C102.207 10.006 103.395 9.4 104.847 9.4C106.299 9.4 107.487 10.012 108.411 11.236C109.335 12.448 109.797 13.984 109.797 15.844C109.797 17.692 109.335 19.234 108.411 20.47C107.487 21.682 106.299 22.288 104.847 22.288C103.395 22.288 102.207 21.682 101.283 20.47C100.359 19.234 99.8975 17.692 99.8975 15.844ZM108.105 15.844C108.105 14.428 107.805 13.264 107.205 12.352C106.617 11.44 105.831 10.984 104.847 10.984C103.863 10.984 103.077 11.44 102.489 12.352C101.889 13.264 101.589 14.428 101.589 15.844C101.589 17.26 101.889 18.43 102.489 19.354C103.077 20.254 103.863 20.704 104.847 20.704C105.831 20.704 106.617 20.248 107.205 19.336C107.805 18.412 108.105 17.248 108.105 15.844ZM111.376 15.844C111.376 13.972 111.838 12.43 112.762 11.218C113.686 10.006 114.874 9.4 116.326 9.4C117.778 9.4 118.966 10.012 119.89 11.236C120.814 12.448 121.276 13.984 121.276 15.844C121.276 17.692 120.814 19.234 119.89 20.47C118.966 21.682 117.778 22.288 116.326 22.288C114.874 22.288 113.686 21.682 112.762 20.47C111.838 19.234 111.376 17.692 111.376 15.844ZM119.584 15.844C119.584 14.428 119.284 13.264 118.684 12.352C118.096 11.44 117.31 10.984 116.326 10.984C115.342 10.984 114.556 11.44 113.968 12.352C113.368 13.264 113.068 14.428 113.068 15.844C113.068 17.26 113.368 18.43 113.968 19.354C114.556 20.254 115.342 20.704 116.326 20.704C117.31 20.704 118.096 20.248 118.684 19.336C119.284 18.412 119.584 17.248 119.584 15.844ZM122.855 15.844C122.855 13.972 123.317 12.43 124.241 11.218C125.165 10.006 126.353 9.4 127.805 9.4C129.257 9.4 130.445 10.012 131.369 11.236C132.293 12.448 132.755 13.984 132.755 15.844C132.755 17.692 132.293 19.234 131.369 20.47C130.445 21.682 129.257 22.288 127.805 22.288C126.353 22.288 125.165 21.682 124.241 20.47C123.317 19.234 122.855 17.692 122.855 15.844ZM131.062 15.844C131.062 14.428 130.763 13.264 130.163 12.352C129.575 11.44 128.789 10.984 127.805 10.984C126.821 10.984 126.035 11.44 125.447 12.352C124.847 13.264 124.547 14.428 124.547 15.844C124.547 17.26 124.847 18.43 125.447 19.354C126.035 20.254 126.821 20.704 127.805 20.704C128.789 20.704 129.575 20.248 130.163 19.336C130.763 18.412 131.062 17.248 131.062 15.844Z" fill="#205072"/>
<path d="M141.609 18.0791L143.709 21.0671H142.413L140.961 18.8951L139.533 21.0671H138.237L140.313 18.0791L138.285 15.1871H139.533L140.985 17.2631L142.365 15.1871H143.661L141.609 18.0791ZM149.969 18.7751C149.969 19.5271 149.693 20.1311 149.141 20.5871C148.581 21.0351 147.901 21.2591 147.101 21.2591C146.389 21.2591 145.761 21.0511 145.217 20.6351C144.673 20.2191 144.297 19.6511 144.089 18.9311L145.145 18.4991C145.217 18.7551 145.317 18.9871 145.445 19.1951C145.573 19.4031 145.721 19.5831 145.889 19.7351C146.065 19.8791 146.257 19.9951 146.465 20.0831C146.673 20.1631 146.893 20.2031 147.125 20.2031C147.629 20.2031 148.041 20.0751 148.361 19.8191C148.681 19.5551 148.841 19.2071 148.841 18.7751C148.841 18.4151 148.709 18.1071 148.445 17.8511C148.197 17.6031 147.733 17.3631 147.053 17.1311C146.365 16.8831 145.937 16.7151 145.769 16.6271C144.857 16.1631 144.401 15.4791 144.401 14.5751C144.401 13.9431 144.653 13.4031 145.157 12.9551C145.669 12.5071 146.297 12.2831 147.041 12.2831C147.697 12.2831 148.265 12.4511 148.745 12.7871C149.225 13.1151 149.545 13.5271 149.705 14.0231L148.673 14.4551C148.577 14.1351 148.385 13.8711 148.097 13.6631C147.817 13.4471 147.473 13.3391 147.065 13.3391C146.633 13.3391 146.269 13.4591 145.973 13.6991C145.677 13.9231 145.529 14.2151 145.529 14.5751C145.529 14.8711 145.645 15.1271 145.877 15.3431C146.133 15.5591 146.689 15.8151 147.545 16.1111C148.417 16.4071 149.037 16.7711 149.405 17.2031C149.781 17.6271 149.969 18.1511 149.969 18.7751ZM160.036 12.4751H161.188L158.896 21.0671H157.768L155.92 15.4031H155.872L154.024 21.0671H152.896L150.508 12.4751H151.66L153.472 19.2311H153.52L155.38 13.6271H156.412L158.272 19.2311H158.32L160.036 12.4751ZM165.171 13.5311V21.0671H164.067V13.5311H161.667V12.4751H167.571V13.5311H165.171Z" fill="#205072"/>
</svg>
