<svg width="238" height="70" viewBox="0 0 238 70" fill="none" xmlns="http://www.w3.org/2000/svg">
<path d="M106.608 11V39H103.328L86.5281 18.12V39H82.5281V11H85.8081L102.608 31.88V11H106.608ZM133.589 28.52C133.589 28.8133 133.562 29.2 133.509 29.68H116.309C116.549 31.5467 117.362 33.0533 118.749 34.2C120.162 35.32 121.909 35.88 123.989 35.88C126.522 35.88 128.562 35.0267 130.109 33.32L132.229 35.8C131.269 36.92 130.069 37.7733 128.629 38.36C127.216 38.9467 125.629 39.24 123.869 39.24C121.629 39.24 119.642 38.7867 117.909 37.88C116.176 36.9467 114.829 35.6533 113.869 34C112.936 32.3467 112.469 30.48 112.469 28.4C112.469 26.3467 112.922 24.4933 113.829 22.84C114.762 21.1867 116.029 19.9067 117.629 19C119.256 18.0667 121.082 17.6 123.109 17.6C125.136 17.6 126.936 18.0667 128.509 19C130.109 19.9067 131.349 21.1867 132.229 22.84C133.136 24.4933 133.589 26.3867 133.589 28.52ZM123.109 20.84C121.269 20.84 119.722 21.4 118.469 22.52C117.242 23.64 116.522 25.1067 116.309 26.92H129.909C129.696 25.1333 128.962 23.68 127.709 22.56C126.482 21.4133 124.949 20.84 123.109 20.84ZM148.001 39.24C145.895 39.24 144.001 38.7733 142.321 37.84C140.641 36.9067 139.321 35.6267 138.361 34C137.428 32.3467 136.961 30.48 136.961 28.4C136.961 26.32 137.428 24.4667 138.361 22.84C139.321 21.1867 140.641 19.9067 142.321 19C144.001 18.0667 145.895 17.6 148.001 17.6C150.108 17.6 151.988 18.0667 153.641 19C155.321 19.9067 156.628 21.1867 157.561 22.84C158.521 24.4667 159.001 26.32 159.001 28.4C159.001 30.48 158.521 32.3467 157.561 34C156.628 35.6267 155.321 36.9067 153.641 37.84C151.988 38.7733 150.108 39.24 148.001 39.24ZM148.001 35.88C149.361 35.88 150.575 35.5733 151.641 34.96C152.735 34.32 153.588 33.44 154.201 32.32C154.815 31.1733 155.121 29.8667 155.121 28.4C155.121 26.9333 154.815 25.64 154.201 24.52C153.588 23.3733 152.735 22.4933 151.641 21.88C150.575 21.2667 149.361 20.96 148.001 20.96C146.641 20.96 145.415 21.2667 144.321 21.88C143.255 22.4933 142.401 23.3733 141.761 24.52C141.148 25.64 140.841 26.9333 140.841 28.4C140.841 29.8667 141.148 31.1733 141.761 32.32C142.401 33.44 143.255 34.32 144.321 34.96C145.415 35.5733 146.641 35.88 148.001 35.88Z" fill="#03A66D"/>
<path d="M101.25 61V50.824H97.314V49.8H106.37V50.824H102.434V61H101.25ZM108.022 61V52.6H109.158V61H108.022ZM108.598 50.744C108.363 50.744 108.166 50.664 108.006 50.504C107.846 50.344 107.766 50.152 107.766 49.928C107.766 49.704 107.846 49.5173 108.006 49.368C108.166 49.208 108.363 49.128 108.598 49.128C108.832 49.128 109.03 49.2027 109.19 49.352C109.35 49.5013 109.43 49.688 109.43 49.912C109.43 50.1467 109.35 50.344 109.19 50.504C109.04 50.664 108.843 50.744 108.598 50.744ZM115.886 61.08C115.012 61.08 114.244 60.8987 113.582 60.536C112.921 60.1627 112.404 59.656 112.03 59.016C111.657 58.3653 111.47 57.624 111.47 56.792C111.47 55.96 111.646 55.224 111.998 54.584C112.361 53.944 112.852 53.4427 113.47 53.08C114.1 52.7067 114.804 52.52 115.582 52.52C116.372 52.52 117.07 52.7013 117.678 53.064C118.297 53.416 118.782 53.9173 119.134 54.568C119.486 55.208 119.662 55.9493 119.662 56.792C119.662 56.8453 119.657 56.904 119.646 56.968C119.646 57.0213 119.646 57.08 119.646 57.144H112.334V56.296H119.038L118.59 56.632C118.59 56.024 118.457 55.4853 118.19 55.016C117.934 54.536 117.582 54.1627 117.134 53.896C116.686 53.6293 116.169 53.496 115.582 53.496C115.006 53.496 114.489 53.6293 114.03 53.896C113.572 54.1627 113.214 54.536 112.958 55.016C112.702 55.496 112.574 56.0453 112.574 56.664V56.84C112.574 57.48 112.713 58.0453 112.99 58.536C113.278 59.016 113.673 59.3947 114.174 59.672C114.686 59.9387 115.268 60.072 115.918 60.072C116.43 60.072 116.905 59.9813 117.342 59.8C117.79 59.6187 118.174 59.3413 118.494 58.968L119.134 59.704C118.761 60.152 118.292 60.4933 117.726 60.728C117.172 60.9627 116.558 61.08 115.886 61.08ZM121.975 61V52.6H123.063V54.888L122.951 54.488C123.185 53.848 123.58 53.3627 124.135 53.032C124.689 52.6907 125.377 52.52 126.199 52.52V53.624C126.156 53.624 126.113 53.624 126.071 53.624C126.028 53.6133 125.985 53.608 125.943 53.608C125.057 53.608 124.364 53.88 123.863 54.424C123.361 54.9573 123.111 55.72 123.111 56.712V61H121.975ZM136.424 61.096C135.432 61.096 134.595 60.8773 133.912 60.44C133.229 59.992 132.712 59.352 132.36 58.52C132.008 57.6773 131.832 56.6693 131.832 55.496C131.832 54.2267 132.045 53.1653 132.472 52.312C132.909 51.448 133.512 50.7973 134.28 50.36C135.048 49.9227 135.939 49.704 136.952 49.704C137.453 49.704 137.933 49.752 138.392 49.848C138.851 49.944 139.256 50.0987 139.608 50.312L139.144 51.24C138.856 51.048 138.525 50.9147 138.152 50.84C137.779 50.7547 137.384 50.712 136.968 50.712C135.763 50.712 134.797 51.096 134.072 51.864C133.357 52.632 133 53.7787 133 55.304C133 55.5387 133.011 55.832 133.032 56.184C133.064 56.5253 133.128 56.8667 133.224 57.208L132.824 56.904C132.941 56.3493 133.171 55.88 133.512 55.496C133.853 55.1013 134.28 54.8027 134.792 54.6C135.304 54.3973 135.864 54.296 136.472 54.296C137.219 54.296 137.875 54.4347 138.44 54.712C139.005 54.9893 139.448 55.3787 139.768 55.88C140.088 56.3813 140.248 56.9733 140.248 57.656C140.248 58.3493 140.083 58.9573 139.752 59.48C139.421 59.992 138.963 60.392 138.376 60.68C137.8 60.9573 137.149 61.096 136.424 61.096ZM136.376 60.12C136.909 60.12 137.379 60.024 137.784 59.832C138.2 59.6293 138.525 59.3467 138.76 58.984C138.995 58.6107 139.112 58.1787 139.112 57.688C139.112 56.952 138.856 56.3653 138.344 55.928C137.843 55.4907 137.16 55.272 136.296 55.272C135.72 55.272 135.219 55.3787 134.792 55.592C134.365 55.8053 134.029 56.0987 133.784 56.472C133.539 56.8347 133.416 57.2507 133.416 57.72C133.416 58.1253 133.528 58.5147 133.752 58.888C133.976 59.2507 134.307 59.5493 134.744 59.784C135.192 60.008 135.736 60.12 136.376 60.12Z" fill="#505050"/>
</svg>
