<svg width="21" height="19" viewBox="0 0 21 19" fill="none" xmlns="http://www.w3.org/2000/svg">
<path d="M20.005 10C20.008 10.2055 19.9825 10.4107 19.9285 10.609C19.8745 10.8074 19.7927 10.9975 19.6855 11.173C19.5786 11.3485 19.4474 11.5083 19.2959 11.6474C19.1444 11.7865 18.9741 11.9035 18.79 11.995C18.7941 12.0498 18.7975 12.1049 18.7994 12.16C18.8039 12.27 18.8039 12.3801 18.7994 12.49C18.7975 12.5452 18.7941 12.6003 18.79 12.655C18.79 16.015 14.875 18.745 10.045 18.745C5.21498 18.745 1.29998 16.015 1.29998 12.655C1.29586 12.6003 1.29248 12.5452 1.29061 12.49C1.28609 12.3801 1.28609 12.27 1.29061 12.16C1.29248 12.1049 1.29586 12.0498 1.29998 11.995C1.01151 11.8624 0.755302 11.6687 0.549077 11.4274C0.342851 11.186 0.191537 10.9027 0.105605 10.597C0.0198162 10.2913 0.00154195 9.9705 0.0520488 9.65696C0.102556 9.34343 0.220636 9.04463 0.398105 8.78128C0.575419 8.51796 0.8079 8.29638 1.07942 8.1319C1.35094 7.96742 1.65499 7.86399 1.97048 7.82878C2.28601 7.79341 2.60546 7.82708 2.90669 7.92744C3.20792 8.02781 3.48372 8.19247 3.71498 8.41003C4.14429 8.11904 4.59409 7.85949 5.06086 7.6334C5.52773 7.40765 6.01036 7.21565 6.50498 7.05965C6.99961 6.90365 7.50511 6.78403 8.01698 6.70115C8.52886 6.61828 9.04636 6.5729 9.56498 6.56502L10.675 1.36002C10.6874 1.29965 10.7117 1.24265 10.7466 1.19165C10.7811 1.14102 10.8257 1.09752 10.8771 1.06415C10.9289 1.03077 10.9866 1.0079 11.0474 0.996649C11.1077 0.985774 11.17 0.986899 11.23 1.00002L14.905 1.73502C15.2759 1.0979 16.0544 0.824899 16.7417 1.0904C17.4291 1.3559 17.8221 2.08152 17.6684 2.80227C17.515 3.52302 16.8602 4.02552 16.1245 3.98765C15.3884 3.94977 14.7887 3.38277 14.71 2.65002L11.5 1.97502L10.525 6.65502C11.0372 6.6659 11.5484 6.7139 12.0539 6.79828C13.0662 6.96701 14.0488 7.281 14.9714 7.73053C15.4321 7.95477 15.8762 8.21194 16.3 8.50003C16.6047 8.20745 16.9876 8.00935 17.4025 7.92965C17.8173 7.84966 18.2465 7.89147 18.6381 8.05003C19.0298 8.2085 19.3672 8.47692 19.6097 8.8229C19.8523 9.16891 19.9896 9.57773 20.005 10V10ZM5.11898 12.0742C5.19473 12.256 5.30498 12.4214 5.44448 12.5605C5.58361 12.7 5.74898 12.8103 5.93086 12.886C6.1129 12.9613 6.30798 13 6.50498 13C7.11173 13 7.65848 12.6344 7.89098 12.0742C8.12311 11.5135 7.99448 10.8685 7.56548 10.4395C7.13648 10.0105 6.49148 9.8819 5.93086 10.114C5.37061 10.3465 5.00498 10.8933 5.00498 11.5C5.00498 11.6969 5.04361 11.8919 5.11898 12.0742V12.0742ZM13.7102 15.6749C13.7871 15.5999 13.831 15.4975 13.8325 15.3903C13.834 15.2827 13.7924 15.1792 13.7174 15.1023C13.6424 15.0254 13.54 14.9815 13.4327 14.98C13.3251 14.9785 13.2216 15.0202 13.135 15.085C12.9094 15.2468 12.6706 15.3892 12.421 15.5107C12.1714 15.6322 11.912 15.7324 11.6455 15.8103C11.3792 15.8879 11.1066 15.943 10.831 15.9749C10.555 16.0068 10.2771 16.015 9.99998 16C9.72323 16.0124 9.44573 16.0012 9.17086 15.9667C8.89592 15.9325 8.62442 15.8748 8.35936 15.7942C8.09386 15.7139 7.83623 15.6112 7.58836 15.4874C7.34048 15.3637 7.10348 15.2189 6.87998 15.055C6.80236 14.9913 6.70373 14.9587 6.60323 14.9635C6.50273 14.9684 6.40786 15.0108 6.33661 15.0817C6.26573 15.1529 6.22336 15.2478 6.21848 15.3483C6.21361 15.4488 6.24623 15.5474 6.30998 15.625C6.57361 15.8238 6.85373 15.9993 7.14736 16.15C7.44098 16.3008 7.74736 16.4257 8.06236 16.5239C8.37736 16.6222 8.70023 16.693 9.02761 16.7362C9.35498 16.7789 9.68536 16.7935 10.015 16.78C10.3446 16.7935 10.675 16.7789 11.0024 16.7362C11.6581 16.6499 12.2941 16.4516 12.8826 16.15C13.1762 15.9993 13.4564 15.8238 13.72 15.625L13.7102 15.6749ZM13.435 13.12C13.6382 13.1223 13.84 13.0829 14.0279 13.0049C14.2157 12.9265 14.3856 12.811 14.5274 12.6652C14.6691 12.5193 14.7794 12.346 14.8521 12.1559C14.9249 11.966 14.9582 11.7632 14.95 11.56C14.95 10.9533 14.5844 10.4065 14.0241 10.174C13.4635 9.9419 12.8185 10.0705 12.3895 10.4995C11.9605 10.9285 11.8319 11.5735 12.064 12.1342C12.2965 12.6944 12.8432 13.06 13.45 13.06L13.435 13.12Z" fill="#DFE1E1"/>
</svg>
