<svg width="156" height="33" viewBox="0 0 156 33" fill="none" xmlns="http://www.w3.org/2000/svg">
<path d="M2.34838 25C1.87904 25 1.48438 24.84 1.16438 24.52C0.844375 24.2 0.684375 23.8053 0.684375 23.336V1.672C0.684375 1.18133 0.844375 0.786666 1.16438 0.487999C1.48438 0.167999 1.87904 0.00799942 2.34838 0.00799942H8.10838C9.70838 0.00799942 11.127 0.349333 12.3644 1.032C13.6017 1.69333 14.5617 2.61067 15.2444 3.784C15.9484 4.95733 16.3004 6.32267 16.3004 7.88C16.3004 9.33067 15.9484 10.6213 15.2444 11.752C14.5617 12.8827 13.6017 13.768 12.3644 14.408C11.127 15.048 9.70838 15.368 8.10838 15.368H4.01238V23.336C4.01238 23.8053 3.85238 24.2 3.53238 24.52C3.23371 24.84 2.83904 25 2.34838 25ZM15.6284 25C15.3297 25 15.0524 24.936 14.7964 24.808C14.5617 24.68 14.359 24.4773 14.1884 24.2L8.42838 14.92L11.6604 13.992L16.9084 22.44C17.2924 23.0587 17.3457 23.6453 17.0684 24.2C16.791 24.7333 16.311 25 15.6284 25ZM4.01238 12.296H8.10838C9.08971 12.296 9.95371 12.1147 10.7004 11.752C11.447 11.368 12.0337 10.8453 12.4604 10.184C12.887 9.50133 13.1004 8.73333 13.1004 7.88C13.1004 6.94133 12.887 6.10933 12.4604 5.384C12.0337 4.65867 11.447 4.09333 10.7004 3.688C9.95371 3.28267 9.08971 3.08 8.10838 3.08H4.01238V12.296ZM28.5191 25.128C26.7911 25.128 25.2658 24.7547 23.9431 24.008C22.6205 23.24 21.5751 22.1947 20.8071 20.872C20.0605 19.528 19.6871 17.992 19.6871 16.264C19.6871 14.5147 20.0605 12.9787 20.8071 11.656C21.5751 10.312 22.6205 9.26667 23.9431 8.52C25.2658 7.752 26.7911 7.368 28.5191 7.368C30.2258 7.368 31.7405 7.752 33.0631 8.52C34.3858 9.26667 35.4205 10.312 36.1671 11.656C36.9351 12.9787 37.3191 14.5147 37.3191 16.264C37.3191 17.992 36.9458 19.528 36.1991 20.872C35.4525 22.1947 34.4178 23.24 33.0951 24.008C31.7725 24.7547 30.2471 25.128 28.5191 25.128ZM28.5191 22.248C29.6285 22.248 30.6098 21.992 31.4631 21.48C32.3165 20.968 32.9778 20.264 33.4471 19.368C33.9378 18.472 34.1831 17.4373 34.1831 16.264C34.1831 15.0907 33.9378 14.056 33.4471 13.16C32.9778 12.2427 32.3165 11.528 31.4631 11.016C30.6098 10.504 29.6285 10.248 28.5191 10.248C27.4098 10.248 26.4285 10.504 25.5751 11.016C24.7218 11.528 24.0498 12.2427 23.5591 13.16C23.0685 14.056 22.8231 15.0907 22.8231 16.264C22.8231 17.4373 23.0685 18.472 23.5591 19.368C24.0498 20.264 24.7218 20.968 25.5751 21.48C26.4285 21.992 27.4098 22.248 28.5191 22.248ZM49.4729 25.128C47.9155 25.128 46.5182 24.744 45.2809 23.976C44.0435 23.1867 43.0622 22.1307 42.3369 20.808C41.6329 19.464 41.2809 17.9493 41.2809 16.264C41.2809 14.5787 41.6649 13.064 42.4329 11.72C43.2222 10.376 44.2782 9.32 45.6009 8.552C46.9449 7.76267 48.4489 7.368 50.1129 7.368C51.7769 7.368 53.2702 7.76267 54.5929 8.552C55.9155 9.32 56.9609 10.376 57.7289 11.72C58.5182 13.064 58.9129 14.5787 58.9129 16.264H57.6649C57.6649 17.9493 57.3022 19.464 56.5769 20.808C55.8729 22.1307 54.9022 23.1867 53.6649 23.976C52.4275 24.744 51.0302 25.128 49.4729 25.128ZM50.1129 22.248C51.2009 22.248 52.1715 21.992 53.0249 21.48C53.8782 20.9467 54.5502 20.232 55.0409 19.336C55.5315 18.4187 55.7769 17.3947 55.7769 16.264C55.7769 15.112 55.5315 14.088 55.0409 13.192C54.5502 12.2747 53.8782 11.56 53.0249 11.048C52.1715 10.5147 51.2009 10.248 50.1129 10.248C49.0462 10.248 48.0755 10.5147 47.2009 11.048C46.3475 11.56 45.6649 12.2747 45.1529 13.192C44.6622 14.088 44.4169 15.112 44.4169 16.264C44.4169 17.3947 44.6622 18.4187 45.1529 19.336C45.6649 20.232 46.3475 20.9467 47.2009 21.48C48.0755 21.992 49.0462 22.248 50.1129 22.248ZM57.2809 25.032C56.8115 25.032 56.4169 24.8827 56.0969 24.584C55.7982 24.264 55.6489 23.8693 55.6489 23.4V18.504L56.2569 15.112L58.9129 16.264V23.4C58.9129 23.8693 58.7529 24.264 58.4329 24.584C58.1342 24.8827 57.7502 25.032 57.2809 25.032ZM71.7066 25.128C70.0426 25.128 68.5386 24.744 67.1946 23.976C65.872 23.1867 64.816 22.12 64.0266 20.776C63.2586 19.432 62.8746 17.9173 62.8746 16.232C62.8746 14.5467 63.2266 13.0427 63.9306 11.72C64.656 10.376 65.6373 9.32 66.8746 8.552C68.112 7.76267 69.5093 7.368 71.0666 7.368C72.3253 7.368 73.488 7.63467 74.5546 8.168C75.6213 8.68 76.5173 9.384 77.2426 10.28V1.64C77.2426 1.14933 77.392 0.754666 77.6906 0.455999C78.0106 0.157333 78.4053 0.00799942 78.8746 0.00799942C79.3653 0.00799942 79.76 0.157333 80.0586 0.455999C80.3573 0.754666 80.5066 1.14933 80.5066 1.64V16.232C80.5066 17.9173 80.112 19.432 79.3226 20.776C78.5546 22.12 77.5093 23.1867 76.1866 23.976C74.864 24.744 73.3706 25.128 71.7066 25.128ZM71.7066 22.248C72.7946 22.248 73.7653 21.992 74.6186 21.48C75.472 20.9467 76.144 20.2213 76.6346 19.304C77.1253 18.3867 77.3706 17.3627 77.3706 16.232C77.3706 15.08 77.1253 14.056 76.6346 13.16C76.144 12.264 75.472 11.56 74.6186 11.048C73.7653 10.5147 72.7946 10.248 71.7066 10.248C70.64 10.248 69.6693 10.5147 68.7946 11.048C67.9413 11.56 67.2586 12.264 66.7466 13.16C66.256 14.056 66.0106 15.08 66.0106 16.232C66.0106 17.3627 66.256 18.3867 66.7466 19.304C67.2586 20.2213 67.9413 20.9467 68.7946 21.48C69.6693 21.992 70.64 22.248 71.7066 22.248ZM109.247 25.032C108.777 25.032 108.383 24.8827 108.063 24.584C107.764 24.264 107.615 23.8693 107.615 23.4V14.248C107.615 12.904 107.284 11.912 106.623 11.272C105.961 10.6107 105.097 10.28 104.031 10.28C102.921 10.28 102.004 10.664 101.279 11.432C100.575 12.2 100.223 13.1813 100.223 14.376H97.5666C97.5666 12.9893 97.8653 11.7733 98.4626 10.728C99.06 9.66133 99.892 8.82933 100.959 8.232C102.047 7.63467 103.284 7.336 104.671 7.336C105.887 7.336 106.964 7.60267 107.903 8.136C108.841 8.66933 109.567 9.45867 110.079 10.504C110.612 11.528 110.879 12.776 110.879 14.248V23.4C110.879 23.8693 110.729 24.264 110.431 24.584C110.132 24.8827 109.737 25.032 109.247 25.032ZM87.9026 25.032C87.4333 25.032 87.0386 24.8827 86.7186 24.584C86.42 24.264 86.2706 23.8693 86.2706 23.4V9.16C86.2706 8.66933 86.42 8.27467 86.7186 7.976C87.0386 7.67733 87.4333 7.528 87.9026 7.528C88.3933 7.528 88.788 7.67733 89.0866 7.976C89.3853 8.27467 89.5346 8.66933 89.5346 9.16V23.4C89.5346 23.8693 89.3853 24.264 89.0866 24.584C88.788 24.8827 88.3933 25.032 87.9026 25.032ZM98.5906 25.032C98.1213 25.032 97.7266 24.8827 97.4066 24.584C97.108 24.264 96.9586 23.8693 96.9586 23.4V14.248C96.9586 12.904 96.628 11.912 95.9666 11.272C95.3053 10.6107 94.4413 10.28 93.3746 10.28C92.2653 10.28 91.348 10.664 90.6226 11.432C89.8973 12.2 89.5346 13.1813 89.5346 14.376H87.5186C87.5186 12.9893 87.796 11.7733 88.3506 10.728C88.9053 9.66133 89.6733 8.82933 90.6546 8.232C91.636 7.63467 92.756 7.336 94.0146 7.336C95.2306 7.336 96.308 7.60267 97.2466 8.136C98.1853 8.66933 98.9106 9.45867 99.4226 10.504C99.956 11.528 100.223 12.776 100.223 14.248V23.4C100.223 23.8693 100.073 24.264 99.7746 24.584C99.476 24.8827 99.0813 25.032 98.5906 25.032ZM123.598 25.128C122.041 25.128 120.643 24.744 119.406 23.976C118.169 23.1867 117.187 22.1307 116.462 20.808C115.758 19.464 115.406 17.9493 115.406 16.264C115.406 14.5787 115.79 13.064 116.558 11.72C117.347 10.376 118.403 9.32 119.726 8.552C121.07 7.76267 122.574 7.368 124.238 7.368C125.902 7.368 127.395 7.76267 128.718 8.552C130.041 9.32 131.086 10.376 131.854 11.72C132.643 13.064 133.038 14.5787 133.038 16.264H131.79C131.79 17.9493 131.427 19.464 130.702 20.808C129.998 22.1307 129.027 23.1867 127.79 23.976C126.553 24.744 125.155 25.128 123.598 25.128ZM124.238 22.248C125.326 22.248 126.297 21.992 127.15 21.48C128.003 20.9467 128.675 20.232 129.166 19.336C129.657 18.4187 129.902 17.3947 129.902 16.264C129.902 15.112 129.657 14.088 129.166 13.192C128.675 12.2747 128.003 11.56 127.15 11.048C126.297 10.5147 125.326 10.248 124.238 10.248C123.171 10.248 122.201 10.5147 121.326 11.048C120.473 11.56 119.79 12.2747 119.278 13.192C118.787 14.088 118.542 15.112 118.542 16.264C118.542 17.3947 118.787 18.4187 119.278 19.336C119.79 20.232 120.473 20.9467 121.326 21.48C122.201 21.992 123.171 22.248 124.238 22.248ZM131.406 25.032C130.937 25.032 130.542 24.8827 130.222 24.584C129.923 24.264 129.774 23.8693 129.774 23.4V18.504L130.382 15.112L133.038 16.264V23.4C133.038 23.8693 132.878 24.264 132.558 24.584C132.259 24.8827 131.875 25.032 131.406 25.032ZM139.528 32.488C139.058 32.488 138.664 32.328 138.344 32.008C138.045 31.7093 137.896 31.3253 137.896 30.856V16.264C137.917 14.5787 138.312 13.064 139.08 11.72C139.848 10.376 140.893 9.32 142.216 8.552C143.538 7.76267 145.032 7.368 146.696 7.368C148.381 7.368 149.885 7.76267 151.208 8.552C152.53 9.32 153.576 10.376 154.344 11.72C155.133 13.064 155.528 14.5787 155.528 16.264C155.528 17.9493 155.165 19.464 154.44 20.808C153.736 22.1307 152.765 23.1867 151.528 23.976C150.29 24.744 148.893 25.128 147.336 25.128C146.077 25.128 144.914 24.872 143.848 24.36C142.802 23.8267 141.906 23.112 141.16 22.216V30.856C141.16 31.3253 141.01 31.7093 140.712 32.008C140.413 32.328 140.018 32.488 139.528 32.488ZM146.696 22.248C147.784 22.248 148.754 21.992 149.608 21.48C150.461 20.9467 151.133 20.232 151.624 19.336C152.136 18.4187 152.392 17.3947 152.392 16.264C152.392 15.112 152.136 14.088 151.624 13.192C151.133 12.2747 150.461 11.56 149.608 11.048C148.754 10.5147 147.784 10.248 146.696 10.248C145.629 10.248 144.658 10.5147 143.784 11.048C142.93 11.56 142.258 12.2747 141.768 13.192C141.277 14.088 141.032 15.112 141.032 16.264C141.032 17.3947 141.277 18.4187 141.768 19.336C142.258 20.232 142.93 20.9467 143.784 21.48C144.658 21.992 145.629 22.248 146.696 22.248Z" fill="#205072"/>
</svg>
