<svg width="42" height="42" viewBox="0 0 42 42" fill="none" xmlns="http://www.w3.org/2000/svg">
<path d="M20.9555 41C31.9766 41 40.9109 32.0457 40.9109 21C40.9109 9.95431 31.9766 1 20.9555 1C9.93437 1 1 9.95431 1 21C1 32.0457 9.93437 41 20.9555 41Z" fill="#E8EEEB"/>
<path d="M20.7195 34.9056C28.6428 34.9056 35.0659 28.4681 35.0659 20.5271C35.0659 12.5861 28.6428 6.14868 20.7195 6.14868C12.7962 6.14868 6.37305 12.5861 6.37305 20.5271C6.37305 28.4681 12.7962 34.9056 20.7195 34.9056Z" fill="#F3F9F2"/>
<path d="M3.53125 11.5339C3.53125 11.5339 7.99873 4.48221 11.1161 3.73413C11.1161 3.73413 23.7831 8.74513 20.8743 20.9233C20.8743 20.9233 19.5736 10.0708 3.53125 11.5339Z" fill="#B978FA"/>
<path d="M20.6533 1.12134C20.6533 1.12134 27.8101 1.19835 31.2512 3.93212C31.2512 3.93212 32.6123 18.0685 20.9991 21.0388C20.9936 21.0388 29.4127 12.425 20.6533 1.12134Z" fill="#B978FA"/>
<path d="M38.0923 10.8735C38.0923 10.8735 41.5993 16.6931 40.9133 21.0386C40.9133 21.0386 38.2021 23.6678 34.1956 24.3279C30.3428 24.9604 25.4472 25.054 21.2871 21.0551C21.2871 21.0551 32.851 24.7239 38.0923 10.8735Z" fill="#B978FA"/>
<path d="M38.3265 30.9281C38.3265 30.9281 34.9787 35.9501 31.307 38.2109C31.307 38.2109 17.921 33.4364 21.0055 21.3572C21.0055 21.3572 25.0503 34.1075 38.3265 30.9281Z" fill="#B978FA"/>
<path d="M20.9938 41.0001C20.9938 41.0001 14.9073 40.7636 11.0929 38.3269C11.0929 38.3269 8.76587 24.625 20.7194 21.1816C20.7194 21.1816 11.8503 29.9935 20.9938 41.0001Z" fill="#B978FA"/>
<path d="M3.92459 31.1982C3.92459 31.1982 0.823701 27.2158 1.08165 21.0387C1.08165 21.0387 11.4161 12.0673 20.867 21.1542C20.8615 21.1542 10.4447 18.0134 3.92459 31.1982Z" fill="#B978FA"/>
<path d="M20.6533 1.12134C20.6533 1.12134 27.36 1.15984 31.2512 3.93212L30.7573 10.2908C30.7573 10.2908 28.0296 7.39747 23.6829 6.40737C23.6829 6.40737 21.3778 1.39637 20.6533 1.12134Z" fill="#A556F3"/>
<path d="M38.1461 10.9448C38.1461 10.9448 41.3842 16.3409 40.8353 21.0933L37.8936 23.068L34.6445 24.2837C34.6445 24.2837 35.5007 21.4124 34.7214 16.9459C34.7214 16.9459 38.2503 11.7149 38.1461 10.9448Z" fill="#A556F3"/>
<path d="M38.2215 30.9393C38.2215 30.9393 35.9713 35.3728 31.3063 38.2055C31.3063 38.2055 26.6028 36.3244 24.9453 34.3056C24.9453 34.3056 29.0945 32.6005 30.7519 30.8623C30.7519 30.8623 35.181 32.0504 38.2215 30.9393Z" fill="#A556F3"/>
<path d="M3.53125 11.5339C3.53125 11.5339 6.37419 6.11037 11.1161 3.73413C11.1161 3.73413 15.6604 6.26988 16.094 6.78144C16.094 6.78144 11.7088 8.24458 9.49704 11.4954C9.49704 11.4954 5.06797 10.9839 3.53125 11.5339Z" fill="#A556F3"/>
<path d="M1.07652 21.0384C1.07652 21.0384 4.86894 18.3872 6.60873 17.8701C6.60873 17.8701 5.62083 22.1495 7.36063 25.9119C7.36063 25.9119 4.0402 30.2684 3.92495 31.198C3.92495 31.198 0.961264 26.429 1.07652 21.0384Z" fill="#A556F3"/>
<path d="M11.0951 38.3268C11.0951 38.3268 10.6231 33.7504 11.2158 31.6711C11.2158 31.6711 13.6472 33.8714 17.4396 34.5809C17.4396 34.5809 19.7501 40.5215 20.996 40.9946C20.996 41.0001 15.0083 41.1211 11.0951 38.3268Z" fill="#A556F3"/>
<path d="M9.78711 11.1155C10.0999 10.5875 10.4731 10.0979 10.8903 9.65237C11.3074 9.20133 11.7629 8.78328 12.2568 8.41475C12.7508 8.04071 13.2832 7.72718 13.843 7.46865C14.1229 7.34214 14.4192 7.23763 14.7156 7.15512C15.012 7.07811 15.3138 7.02311 15.6212 6.99561C15.3303 7.10012 15.0504 7.20463 14.776 7.33114C14.5016 7.45765 14.2381 7.58966 13.9747 7.73818C13.4533 8.03521 12.9593 8.35974 12.4819 8.72278C12.0044 9.08031 11.5434 9.46535 11.0988 9.86689C10.6543 10.2684 10.2207 10.681 9.78711 11.1155Z" fill="white"/>
<path d="M6.0166 19.0198C6.15381 18.9428 6.29102 18.8713 6.43371 18.8053C6.57641 18.7393 6.7191 18.6788 6.86729 18.6183C7.15817 18.5028 7.45454 18.3982 7.75639 18.3047C8.35462 18.1232 8.9748 17.9912 9.59498 17.9087C9.67181 17.8977 9.75414 17.8867 9.83097 17.8812C9.90781 17.8757 9.99013 17.8647 10.067 17.8592C10.2261 17.8482 10.3798 17.8372 10.539 17.8317C10.8518 17.8207 11.1701 17.8207 11.483 17.8427C12.1141 17.8757 12.7343 17.9967 13.3325 18.1947C12.7178 18.1452 12.0976 18.1287 11.4775 18.1452C11.3238 18.1452 11.1701 18.1562 11.0164 18.1617C10.8628 18.1672 10.7091 18.1782 10.5554 18.1947C10.2481 18.2167 9.94623 18.2497 9.64437 18.2937C9.03517 18.3707 8.43146 18.4753 7.82774 18.6018C7.22403 18.7283 6.62032 18.8603 6.0166 19.0198Z" fill="white"/>
<path d="M21.0001 40.9616C31.9999 40.9616 40.9171 32.0245 40.9171 21.0001C40.9171 9.97564 31.9999 1.03857 21.0001 1.03857C10.0002 1.03857 1.08301 9.97564 1.08301 21.0001C1.08301 32.0245 10.0002 40.9616 21.0001 40.9616Z" stroke="black" stroke-width="0.5" stroke-linecap="round" stroke-linejoin="round"/>
<path d="M20.6602 1.08252C20.6602 1.08252 29.2439 10.549 21.0004 21.0055C21.0004 21.0055 31.7301 19.6414 31.2526 3.8988" stroke="black" stroke-width="0.5" stroke-linecap="round" stroke-linejoin="round"/>
<path d="M38.0961 10.835C33.2334 24.6193 21 21 21 21C21 21 30.5442 29.3168 40.9171 21" stroke="black" stroke-width="0.5" stroke-linecap="round" stroke-linejoin="round"/>
<path d="M38.2482 30.8625C24.9116 33.9538 20.9984 21 20.9984 21C20.9984 21 17.206 32.2266 31.075 38.0517" stroke="black" stroke-width="0.5" stroke-linecap="round" stroke-linejoin="round"/>
<path d="M20.999 40.9615C11.6909 29.0198 20.999 21 20.999 21C20.999 21 9.56139 22.6062 11.0981 38.2882" stroke="black" stroke-width="0.5" stroke-linecap="round" stroke-linejoin="round"/>
<path d="M3.93144 31.1593C10.6272 17.6719 21.0001 20.9997 21.0001 20.9997C21.0001 20.9997 12.4657 12.0283 1.08301 20.9997" stroke="black" stroke-width="0.5" stroke-linecap="round" stroke-linejoin="round"/>
<path d="M3.54688 11.4838C18.8373 9.58063 20.9997 20.9998 20.9997 20.9998C20.9997 20.9998 24.6494 9.71814 11.0165 3.71704" stroke="black" stroke-width="0.5" stroke-linecap="round" stroke-linejoin="round"/>
</svg>
