<svg width="57" height="57" viewBox="0 0 57 57" fill="none" xmlns="http://www.w3.org/2000/svg">
<path d="M15.8392 26.986C15.8392 26.986 29.1075 21.4484 33.7092 19.4985C35.4732 18.7186 41.4554 16.2227 41.4554 16.2227C41.4554 16.2227 44.2165 15.1308 43.9864 17.7826C43.9096 18.8746 43.2961 22.6963 42.6826 26.83C41.7622 32.6797 40.7652 39.0753 40.7652 39.0753C40.7652 39.0753 40.6118 40.8692 39.308 41.1812C38.0042 41.4931 35.8566 40.0893 35.4732 39.7772C35.1664 39.5433 29.7211 36.0335 27.727 34.3176C27.1901 33.8496 26.5766 32.9137 27.8036 31.8218C30.5647 29.2479 33.8626 26.0501 35.8566 24.0223C36.777 23.0863 37.6973 20.9024 33.8626 23.5542C28.4173 27.376 23.0486 30.9638 23.0486 30.9638C23.0486 30.9638 21.8214 31.7437 19.5206 31.0417C17.2197 30.3399 14.5353 29.4039 14.5353 29.4039C14.5353 29.4039 12.6948 28.234 15.8392 26.986Z" fill="#205072"/>
</svg>
