<svg width="40" height="40" viewBox="0 0 40 40" fill="none" xmlns="http://www.w3.org/2000/svg">
<path d="M11.1149 18.9375C11.1149 18.9375 20.426 15.0515 23.6552 13.6831C24.8932 13.1358 29.0912 11.3843 29.0912 11.3843C29.0912 11.3843 31.0288 10.6181 30.8673 12.479C30.8134 13.2453 30.3829 15.9272 29.9523 18.8281C29.3065 22.9331 28.6068 27.4212 28.6068 27.4212C28.6068 27.4212 28.4991 28.6801 27.5842 28.899C26.6693 29.1179 25.1622 28.1328 24.8932 27.9138C24.6778 27.7497 20.8565 25.2866 19.4572 24.0825C19.0804 23.7541 18.6499 23.0973 19.511 22.331C21.4486 20.5248 23.7629 18.2808 25.1622 16.8577C25.8081 16.2009 26.4539 14.6683 23.7629 16.5292C19.9416 19.2112 16.1741 21.7289 16.1741 21.7289C16.1741 21.7289 15.3129 22.2762 13.6983 21.7836C12.0836 21.2911 10.1999 20.6343 10.1999 20.6343C10.1999 20.6343 8.90827 19.8133 11.1149 18.9375V18.9375Z" fill="white"/>
</svg>
