<svg width="40" height="40" viewBox="0 0 40 40" fill="none" xmlns="http://www.w3.org/2000/svg">
<path d="M11.2471 27.8404L11.316 28.0353C11.3072 28.013 11.282 27.9448 11.2471 27.8404ZM13.9756 23.4218C14.0966 22.3741 14.5078 21.7875 15.2826 21.1862C16.3913 20.3718 17.7761 20.8324 17.7761 20.8324V18.0995C18.1128 18.0905 18.4496 18.1114 18.7826 18.1618V21.6788C18.7826 21.6788 17.3981 21.2182 16.2895 22.033C15.5151 22.6339 15.1031 23.2209 14.9824 24.2686C14.9787 24.8375 15.0808 25.5812 15.5513 26.2242C15.435 26.1619 15.3164 26.0908 15.1956 26.0111C14.1593 25.2839 13.9705 24.1928 13.9756 23.4218ZM24.5006 13.0463C23.738 12.173 23.4496 11.2912 23.3453 10.6718H24.3047C24.3047 10.6718 24.1134 12.2959 25.5075 13.8932L25.5268 13.9146C25.1511 13.6676 24.8065 13.3761 24.5006 13.0463ZM29.1222 15.5224V18.9687C29.1222 18.9687 27.898 18.9185 26.992 18.6777C25.727 18.3408 24.9139 17.8241 24.9139 17.8241C24.9139 17.8241 24.3522 17.4556 24.3068 17.43V24.5465C24.3068 24.9428 24.203 25.9324 23.8864 26.7577C23.4731 27.8374 22.8354 28.5461 22.7181 28.691C22.7181 28.691 21.9424 29.649 20.574 30.2941C19.3405 30.8761 18.2575 30.8613 17.9338 30.876C17.9338 30.876 16.0617 30.9535 14.3771 29.8094C14.0128 29.5572 13.6727 29.2716 13.3613 28.9563L13.3697 28.9626C15.0548 30.1067 16.9264 30.0292 16.9264 30.0292C17.2506 30.0145 18.3336 30.0292 19.5666 29.4473C20.9338 28.8021 21.7108 27.8441 21.7108 27.8441C21.8268 27.6993 22.4675 26.9906 22.8791 25.9105C23.1948 25.0855 23.2995 24.0955 23.2995 23.6993V16.5836C23.3449 16.6097 23.9062 16.9781 23.9062 16.9781C23.9062 16.9781 24.7197 17.4952 25.9847 17.8317C26.8911 18.0726 28.1149 18.1227 28.1149 18.1227V15.4222C28.5336 15.5203 28.8906 15.5468 29.1222 15.5224Z" fill="#205072"/>
<path d="M28.1151 15.4222V18.1218C28.1151 18.1218 26.8913 18.0717 25.9849 17.8308C24.7198 17.494 23.9063 16.9773 23.9063 16.9773C23.9063 16.9773 23.3451 16.6088 23.2997 16.5827V23.7001C23.2997 24.0964 23.1958 25.0864 22.8793 25.9113C22.466 26.9914 21.8282 27.7001 21.7109 27.845C21.7109 27.845 20.9348 28.803 19.5668 29.4481C18.3337 30.0301 17.2508 30.0153 16.9266 30.0301C16.9266 30.0301 15.0549 30.1075 13.3699 28.9634L13.3615 28.9571C13.1836 28.7771 13.0161 28.587 12.86 28.3878C12.3222 27.7027 11.9926 26.8925 11.9098 26.6613C11.9097 26.6603 11.9097 26.6593 11.9098 26.6583C11.7765 26.2566 11.4965 25.2919 11.5348 24.3574C11.6025 22.7088 12.1574 21.6969 12.3042 21.4434C12.6928 20.7522 13.1982 20.1337 13.7979 19.6155C14.3271 19.1683 14.927 18.8125 15.5729 18.5627C16.2711 18.2694 17.0188 18.1122 17.7759 18.0995V20.8324C17.7759 20.8324 16.391 20.3734 15.2828 21.1862C14.508 21.7875 14.0968 22.3741 13.9757 23.4218C13.9707 24.1928 14.1595 25.2839 15.1949 26.0115C15.3157 26.0915 15.4343 26.1626 15.5506 26.2246C15.7315 26.4703 15.9517 26.6845 16.2022 26.8584C17.2138 27.5275 18.0613 27.5742 19.1451 27.1396C19.8678 26.8491 20.4118 26.1943 20.6641 25.4687C20.8226 25.0156 20.8205 24.5596 20.8205 24.0879V10.6718H23.343C23.4472 11.2912 23.7356 12.173 24.4983 13.0463C24.8042 13.3761 25.1488 13.6676 25.5245 13.9146C25.6355 14.0346 26.2031 14.628 26.9316 14.9922C27.3084 15.1805 27.7055 15.3248 28.1151 15.4222Z" fill="#205072"/>
<path d="M10.9053 25.8221V25.8242L10.9675 26.0015C10.9603 25.9809 10.9372 25.9182 10.9053 25.8221Z" fill="#205072"/>
<path d="M15.5725 18.5627C14.9266 18.8125 14.3268 19.1683 13.7975 19.6155C13.1976 20.1348 12.6923 20.7547 12.3042 21.4473C12.1575 21.6999 11.6025 22.7127 11.5349 24.3613C11.4966 25.2957 11.7766 26.2604 11.9099 26.6621C11.9097 26.6631 11.9097 26.6641 11.9099 26.6651C11.9939 26.8942 12.3223 27.7044 12.86 28.3916C13.0162 28.5908 13.1837 28.7809 13.3616 28.9609C12.7916 28.5661 12.2832 28.0887 11.8531 27.5443C11.32 26.8651 10.9913 26.0633 10.9055 25.8267C10.9054 25.825 10.9054 25.8233 10.9055 25.8216V25.8187C10.7718 25.4174 10.491 24.4522 10.5301 23.5165C10.5978 21.8679 11.1527 20.856 11.2994 20.6025C11.6874 19.9099 12.1927 19.29 12.7927 18.7708C13.3219 18.3235 13.9217 17.9677 14.5677 17.718C14.9706 17.5506 15.3904 17.427 15.8197 17.3496C16.4667 17.2364 17.1275 17.2266 17.7776 17.3205V18.0995C17.0198 18.1119 16.2714 18.2692 15.5725 18.5627Z" fill="#205072"/>
<path d="M23.3448 10.6718H20.8224V24.0885C20.8224 24.5601 20.8224 25.0149 20.666 25.4692C20.4112 26.1944 19.8693 26.8492 19.147 27.1397C18.0628 27.576 17.2152 27.5276 16.2041 26.8584C15.9531 26.6853 15.7324 26.4719 15.5508 26.2268C16.4122 26.687 17.1832 26.679 18.1384 26.295C18.8603 26.0044 19.403 25.3496 19.657 24.6241C19.8159 24.171 19.8138 23.7149 19.8138 23.2437V9.82458H23.2969C23.2969 9.82458 23.2578 10.1581 23.3448 10.6718ZM28.1148 14.6756V15.4222C27.7059 15.3247 27.3095 15.1804 26.9335 14.9923C26.2049 14.6281 25.6373 14.0347 25.5264 13.9147C25.6552 13.9994 25.7888 14.0765 25.9266 14.1455C26.8124 14.5885 27.6848 14.7207 28.1148 14.6756Z" fill="#205072"/>
</svg>
