<svg width="30" height="29" viewBox="0 0 30 29" fill="none" xmlns="http://www.w3.org/2000/svg">
<path d="M11.0526 20.5263V7.89474C11.0526 6.1579 12.4579 4.73684 14.2105 4.73684H28.4211V3.15789C28.4211 1.42105 27 0 25.2632 0H3.15789C1.40526 0 0 1.42105 0 3.15789V25.2632C0 27 1.40526 28.4211 3.15789 28.4211H25.2632C27 28.4211 28.4211 27 28.4211 25.2632V23.6842H14.2105C12.4579 23.6842 11.0526 22.2632 11.0526 20.5263ZM15.7895 7.89474C14.9211 7.89474 14.2105 8.60526 14.2105 9.47368V18.9474C14.2105 19.8158 14.9211 20.5263 15.7895 20.5263H30V7.89474H15.7895ZM20.5263 16.5789C19.2158 16.5789 18.1579 15.5211 18.1579 14.2105C18.1579 12.9 19.2158 11.8421 20.5263 11.8421C21.8368 11.8421 22.8947 12.9 22.8947 14.2105C22.8947 15.5211 21.8368 16.5789 20.5263 16.5789Z" fill="#205072"/>
</svg>
